<?xml version="1.0" encoding="UTF-8" standalone="no"?>
<!DOCTYPE svg PUBLIC "-//W3C//DTD SVG 1.1//EN" "http://www.w3.org/Graphics/SVG/1.1/DTD/svg11.dtd">
<!-- Generated by Microsoft Visio, SVG Export sap-netweaver.svg Page-1 -->
<svg xmlns="http://www.w3.org/2000/svg" xmlns:xlink="http://www.w3.org/1999/xlink" xmlns:ev="http://www.w3.org/2001/xml-events"
		width="6.59109in" height="2.88261in" viewBox="0 0 474.558 207.548" xml:space="preserve" color-interpolation-filters="sRGB"
		class="st28">
	<style type="text/css">
	<![CDATA[
		.st1 {fill:none;stroke:#0078d7;stroke-dasharray:0,6.75;stroke-linecap:round;stroke-linejoin:round;stroke-width:2.25}
		.st2 {fill:#ffffff;stroke:none;stroke-linecap:round;stroke-linejoin:round;stroke-width:0.75}
		.st3 {fill:#0078d7;stroke:none;stroke-linecap:butt;stroke-width:0.6375}
		.st4 {fill:#f2f2f2;stroke:#bfbfbf;stroke-linecap:round;stroke-linejoin:round;stroke-width:0.75}
		.st5 {stroke:#0070c0;stroke-linecap:round;stroke-linejoin:round;stroke-width:1.5}
		.st6 {fill:none;stroke:#7f7f7f;stroke-dasharray:2.25,2.25;stroke-linecap:round;stroke-linejoin:round;stroke-width:0.75}
		.st7 {fill:#feffff;stroke:#395ea3;stroke-linecap:butt;stroke-width:1.25}
		.st8 {fill:#0078d7;stroke:none;stroke-linecap:butt;stroke-width:1.25}
		.st9 {stroke:#0078d7;stroke-linecap:round;stroke-linejoin:round;stroke-width:1.5}
		.st10 {stroke:#0078d7;stroke-linecap:round;stroke-linejoin:round;stroke-width:1}
		.st11 {fill:#0078d7;stroke:none;stroke-width:0.25}
		.st12 {fill:#0078d7;stroke:none;stroke-linecap:round;stroke-linejoin:round;stroke-width:0.75}
		.st13 {fill:none;stroke:none;stroke-linecap:round;stroke-linejoin:round;stroke-width:0.75}
		.st14 {fill:#ffffff;font-family:Segoe UI;font-size:0.499992em}
		.st15 {fill:#00188f;stroke:none;stroke-width:0.25}
		.st16 {fill:#ffffff;stroke:none;stroke-width:0.25}
		.st17 {fill:#00188f;stroke:none;stroke-width:1.5}
		.st18 {fill:#ffffff;stroke:none;stroke-width:1.5}
		.st19 {stroke:#4672c4;stroke-linecap:round;stroke-linejoin:round;stroke-width:1}
		.st20 {fill:#4672c4;stroke:none;stroke-width:0.25}
		.st21 {fill:#f2f2f2;stroke:#bfbfbf;stroke-linecap:round;stroke-linejoin:round;stroke-width:1}
		.st22 {fill:#002060;stroke:none;stroke-linecap:butt;stroke-width:1.25}
		.st23 {fill:#ffffff;stroke:#ffffff;stroke-linecap:butt;stroke-width:1.5}
		.st24 {fill:#0078d7;stroke:none;stroke-linecap:butt;stroke-width:0.75}
		.st25 {marker-end:url(#mrkr4-259);marker-start:url(#mrkr4-257);stroke:#5b9bd5;stroke-width:3}
		.st26 {fill:#5b9bd5;fill-opacity:1;stroke:#5b9bd5;stroke-opacity:1;stroke-width:0.67567567567568}
		.st27 {stroke:#0070c0;stroke-linecap:round;stroke-linejoin:round;stroke-width:2.25}
		.st28 {fill:none;fill-rule:evenodd;font-size:12px;overflow:visible;stroke-linecap:square;stroke-miterlimit:3}
	]]>
	</style>

	<defs id="Markers">
		<g id="lend4">
			<path d="M 2 1 L 0 0 L 2 -1 L 2 1 " style="stroke:none"/>
		</g>
		<marker id="mrkr4-257" class="st26" refX="2.84" orient="auto" markerUnits="strokeWidth" overflow="visible">
			<use xlink:href="#lend4" transform="scale(1.48) "/>
		</marker>
		<marker id="mrkr4-259" class="st26" refX="-2.96" orient="auto" markerUnits="strokeWidth" overflow="visible">
			<use xlink:href="#lend4" transform="scale(-1.48,-1.48) "/>
		</marker>
	</defs>
	<g>
		<title>Page-1</title>
		<g id="group248-1" transform="translate(4.28995,-19.1697)">
			<title>Sheet.248</title>
			<g id="shape2-2" transform="translate(136.539,-6.69077)">
				<title>Virtual Network Box</title>
				<path d="M0 207.55 L325.27 207.55 L325.27 121.04 L0 121.04 L0 207.55 Z" class="st1"/>
			</g>
			<g id="group3-4" transform="translate(436.5,2.84217E-14)">
				<title>Sheet.3</title>
				<g id="shape4-5">
					<title>Sheet.4</title>
					<rect x="0" y="195.291" width="18" height="12.2566" class="st2"/>
				</g>
				<g id="group5-7" transform="translate(0.337483,-1.86743)">
					<title>Virtual Network</title>
					<g id="shape6-8" transform="translate(12.0617,2.84217E-14)">
						<title>Sheet.6</title>
						<path d="M5.26 203.29 L4.21 202.33 L0.57 199.03 L0 199.58 L4.08 203.29 L0 206.99 L0.57 207.55 L4.21 204.24
									 L5.26 203.29 Z" class="st3"/>
					</g>
					<g id="shape7-10">
						<title>Sheet.7</title>
						<path d="M0 203.29 L1.05 202.33 L4.69 199.03 L5.26 199.58 L1.18 203.29 L5.26 206.99 L4.69 207.55 L1.05 204.24
									 L0 203.29 Z" class="st3"/>
					</g>
					<g id="shape8-12" transform="translate(4.4738,-3.30514)">
						<title>Sheet.8</title>
						<path d="M2.11 206.59 C2.11 207.11 1.62 207.55 1.05 207.55 C0.44 207.55 0 207.11 0 206.59 C0 206.07 0.48
									 205.64 1.05 205.64 C1.62 205.64 2.11 206.03 2.11 206.59 Z" class="st3"/>
					</g>
					<g id="shape9-14" transform="translate(7.63177,-3.30514)">
						<title>Sheet.9</title>
						<ellipse cx="1.05266" cy="206.592" rx="1.05266" ry="0.955703" class="st3"/>
					</g>
					<g id="shape10-16" transform="translate(10.7897,-3.30514)">
						<title>Sheet.10</title>
						<ellipse cx="1.05266" cy="206.592" rx="1.05266" ry="0.955703" class="st3"/>
					</g>
				</g>
			</g>
			<g id="shape11-18" transform="translate(136.775,-127.628)">
				<title>Virtual Network Box.295</title>
				<path d="M0 207.55 L325.27 207.55 L325.27 147.92 L0 147.92 L0 207.55 Z" class="st1"/>
			</g>
			<g id="shape12-20" transform="translate(375.3,-14.0068)">
				<title>Sheet.12</title>
				<rect x="0" y="135.29" width="79.2" height="72.2575" class="st4"/>
			</g>
			<g id="shape13-22" transform="translate(221.314,-131.684)">
				<title>Sheet.13</title>
				<rect x="0" y="159.173" width="72" height="48.375" class="st4"/>
			</g>
			<g id="shape14-24" transform="translate(312.75,-131.684)">
				<title>Sheet.14</title>
				<rect x="0" y="159.173" width="92.25" height="48.375" class="st4"/>
			</g>
			<g id="shape15-26" transform="translate(141.827,-13.9865)">
				<title>Sheet.15</title>
				<rect x="0" y="135.29" width="213.673" height="72.2575" class="st4"/>
			</g>
			<g id="shape16-28" transform="translate(145.404,-131.684)">
				<title>Sheet.16</title>
				<rect x="0" y="159.173" width="57.6" height="48.375" class="st4"/>
			</g>
			<g id="shape18-30" transform="translate(186.958,-151.196) rotate(-0.0921682)">
				<title>Sheet.18</title>
				<path d="M0 207.55 L49.35 207.55" class="st5"/>
			</g>
			<g id="group19-33" transform="translate(336.008,-138.642)">
				<title>Sheet.19</title>
			</g>
			<g id="group20-34" transform="translate(211.577,-12.8745)">
				<title>Sheet.20</title>
				<g id="shape22-35" transform="translate(0,-8.44124)">
					<title>Sheet.22</title>
					<path d="M0 207.55 L54 207.55 L54 178.42 L0 178.42 L0 207.55 Z" class="st6"/>
				</g>
				<g id="group23-37" transform="translate(2.77639,-14.4028)">
					<title>Virtual machine (opaque).576</title>
					<g id="shape24-38">
						<title>Sheet.24</title>
						<path d="M20.5 190.39 L0.95 190.39 C0.43 190.39 0 190.82 0 191.34 L0 206.6 C0 207.13 0.43 207.55 0.95 207.55
									 L20.5 207.55 C21.03 207.55 21.45 207.13 21.45 206.6 L21.45 191.34 C21.45 190.82 21.03 190.39
									 20.5 190.39 Z" class="st7"/>
					</g>
					<g id="group25-40">
						<title>Sheet.25</title>
						<g id="shape26-41" transform="translate(7.02175,-7.70248)">
							<title>Sheet.26</title>
							<path d="M0 207.55 L8.1 207.55 L8.1 202.12 L0 202.12 L0 207.55 ZM5.83 205.96 L4.31 206.84 L4.31 205.09
										 L5.83 204.21 L5.83 205.96 ZM4.17 203.08 L5.69 203.97 L4.18 204.84 L2.65 203.96 L4.17 203.08
										 ZM2.51 204.2 L4.03 205.08 L4.03 206.84 L2.51 205.96 L2.51 204.2 Z" class="st8"/>
						</g>
						<g id="shape27-43">
							<title>Sheet.27</title>
							<path d="M20.5 190.39 L0.95 190.39 C0.43 190.39 0 190.82 0 191.34 L0 206.6 C0 207.13 0.43 207.55 0.95
										 207.55 L20.5 207.55 C21.03 207.55 21.45 207.13 21.45 206.6 L21.45 191.34 C21.45 190.82 21.03
										 190.39 20.5 190.39 ZM10.65 204.59 L10.06 206.37 C10.05 206.39 10.04 206.4 10.04 206.41 C10.03
										 206.42 10.01 206.43 10 206.43 C9.98 206.44 9.95 206.44 9.92 206.45 C9.89 206.45 9.85 206.45
										 9.8 206.45 C9.75 206.45 9.72 206.45 9.69 206.45 C9.66 206.45 9.64 206.45 9.62 206.44 C9.59
										 206.44 9.58 206.44 9.56 206.43 C9.55 206.43 9.54 206.42 9.53 206.42 C9.52 206.41 9.52 206.4
										 9.51 206.4 C9.51 206.39 9.5 206.38 9.5 206.36 L8.9 204.59 C8.89 204.55 8.88 204.52 8.88
										 204.5 C8.88 204.48 8.88 204.47 8.9 204.45 C8.91 204.44 8.93 204.44 8.96 204.43 C8.99 204.43
										 9.04 204.43 9.09 204.43 C9.14 204.43 9.18 204.43 9.2 204.43 C9.23 204.44 9.25 204.44 9.27
										 204.44 C9.28 204.45 9.29 204.46 9.3 204.47 C9.3 204.48 9.31 204.49 9.31 204.51 L9.8 206.05
										 L9.8 206.05 L10.28 204.51 C10.28 204.5 10.29 204.48 10.29 204.47 C10.3 204.46 10.31 204.45
										 10.32 204.45 C10.34 204.44 10.36 204.44 10.39 204.43 C10.42 204.43 10.45 204.43 10.5 204.43
										 C10.55 204.43 10.59 204.43 10.61 204.44 C10.64 204.44 10.66 204.45 10.67 204.46 C10.68 204.47
										 10.68 204.49 10.68 204.51 C10.67 204.53 10.67 204.56 10.65 204.59 ZM13.26 206.38 C13.26
										 206.39 13.26 206.4 13.25 206.41 C13.25 206.42 13.24 206.43 13.22 206.43 C13.21 206.44 13.19
										 206.44 13.16 206.44 C13.14 206.45 13.11 206.45 13.07 206.45 C13.03 206.45 13 206.45 12.98
										 206.44 C12.95 206.44 12.93 206.44 12.92 206.43 C12.9 206.43 12.89 206.42 12.89 206.41 C12.88
										 206.4 12.88 206.39 12.88 206.38 L12.88 204.76 L12.88 204.76 L12.3 206.38 C12.29 206.4 12.28
										 206.41 12.28 206.42 C12.27 206.42 12.25 206.43 12.24 206.44 C12.22 206.44 12.2 206.44 12.18
										 206.45 C12.15 206.45 12.12 206.45 12.09 206.45 C12.05 206.45 12.02 206.45 12 206.44 C11.97
										 206.44 11.95 206.44 11.94 206.43 C11.92 206.43 11.91 206.42 11.9 206.41 C11.89 206.4 11.88
										 206.39 11.88 206.38 L11.32 204.76 L11.32 204.76 L11.32 206.38 C11.32 206.39 11.31 206.4
										 11.31 206.41 C11.3 206.42 11.29 206.43 11.28 206.43 C11.26 206.44 11.24 206.44 11.22 206.44
										 C11.19 206.45 11.16 206.45 11.12 206.45 C11.09 206.45 11.06 206.45 11.03 206.44 C11.01 206.44
										 10.99 206.44 10.97 206.43 C10.96 206.43 10.95 206.42 10.94 206.41 C10.93 206.4 10.93 206.39
										 10.93 206.38 L10.93 204.6 C10.93 204.55 10.95 204.51 10.97 204.48 C11 204.45 11.04 204.44
										 11.08 204.44 L11.35 204.44 C11.4 204.44 11.44 204.44 11.47 204.45 C11.51 204.46 11.54 204.47
										 11.56 204.49 C11.59 204.51 11.61 204.53 11.62 204.56 C11.64 204.59 11.65 204.63 11.67 204.67
										 L12.1 205.86 L12.1 205.86 L12.55 204.67 C12.57 204.63 12.58 204.59 12.6 204.56 C12.61 204.53
										 12.63 204.51 12.65 204.49 C12.67 204.47 12.7 204.46 12.73 204.45 C12.76 204.44 12.79 204.44
										 12.83 204.44 L13.1 204.44 C13.13 204.44 13.15 204.44 13.17 204.45 C13.19 204.46 13.21 204.47
										 13.22 204.48 C13.24 204.5 13.24 204.51 13.25 204.53 C13.26 204.55 13.26 204.58 13.26 204.6
										 L13.26 206.38 L13.26 206.38 ZM15.78 199.99 C15.78 200.28 15.55 200.51 15.27 200.51 L12.33
										 200.51 C12.04 201.66 12.17 201.8 14.16 201.8 L14.16 202.27 L11.84 202.27 L10.15 202.27 L7.98
										 202.27 L7.98 201.8 C9.77 201.8 10.06 201.66 9.78 200.51 L6.88 200.51 C6.59 200.51 6.36 200.28
										 6.36 199.99 L6.36 194.27 C6.36 193.99 6.59 193.75 6.88 193.75 L15.27 193.75 C15.55 193.75
										 15.78 193.99 15.78 194.27 L15.78 199.99 L15.78 199.99 Z" class="st8"/>
						</g>
					</g>
				</g>
				<g id="group28-45" transform="translate(29.7764,-14.9406)">
					<title>Virtual machine (opaque).668</title>
					<g id="shape29-46">
						<title>Sheet.29</title>
						<path d="M20.5 190.39 L0.95 190.39 C0.43 190.39 0 190.82 0 191.34 L0 206.6 C0 207.13 0.43 207.55 0.95 207.55
									 L20.5 207.55 C21.03 207.55 21.45 207.13 21.45 206.6 L21.45 191.34 C21.45 190.82 21.03 190.39
									 20.5 190.39 Z" class="st7"/>
					</g>
					<g id="group30-48">
						<title>Sheet.30</title>
						<g id="shape31-49" transform="translate(7.02175,-7.70248)">
							<title>Sheet.31</title>
							<path d="M0 207.55 L8.1 207.55 L8.1 202.12 L0 202.12 L0 207.55 ZM5.83 205.96 L4.31 206.84 L4.31 205.09
										 L5.83 204.21 L5.83 205.96 ZM4.17 203.08 L5.69 203.97 L4.18 204.84 L2.65 203.96 L4.17 203.08
										 ZM2.51 204.2 L4.03 205.08 L4.03 206.84 L2.51 205.96 L2.51 204.2 Z" class="st8"/>
						</g>
						<g id="shape32-51">
							<title>Sheet.32</title>
							<path d="M20.5 190.39 L0.95 190.39 C0.43 190.39 0 190.82 0 191.34 L0 206.6 C0 207.13 0.43 207.55 0.95
										 207.55 L20.5 207.55 C21.03 207.55 21.45 207.13 21.45 206.6 L21.45 191.34 C21.45 190.82 21.03
										 190.39 20.5 190.39 ZM10.65 204.59 L10.06 206.37 C10.05 206.39 10.04 206.4 10.04 206.41 C10.03
										 206.42 10.01 206.43 10 206.43 C9.98 206.44 9.95 206.44 9.92 206.45 C9.89 206.45 9.85 206.45
										 9.8 206.45 C9.75 206.45 9.72 206.45 9.69 206.45 C9.66 206.45 9.64 206.45 9.62 206.44 C9.59
										 206.44 9.58 206.44 9.56 206.43 C9.55 206.43 9.54 206.42 9.53 206.42 C9.52 206.41 9.52 206.4
										 9.51 206.4 C9.51 206.39 9.5 206.38 9.5 206.36 L8.9 204.59 C8.89 204.55 8.88 204.52 8.88
										 204.5 C8.88 204.48 8.88 204.47 8.9 204.45 C8.91 204.44 8.93 204.44 8.96 204.43 C8.99 204.43
										 9.04 204.43 9.09 204.43 C9.14 204.43 9.18 204.43 9.2 204.43 C9.23 204.44 9.25 204.44 9.27
										 204.44 C9.28 204.45 9.29 204.46 9.3 204.47 C9.3 204.48 9.31 204.49 9.31 204.51 L9.8 206.05
										 L9.8 206.05 L10.28 204.51 C10.28 204.5 10.29 204.48 10.29 204.47 C10.3 204.46 10.31 204.45
										 10.32 204.45 C10.34 204.44 10.36 204.44 10.39 204.43 C10.42 204.43 10.45 204.43 10.5 204.43
										 C10.55 204.43 10.59 204.43 10.61 204.44 C10.64 204.44 10.66 204.45 10.67 204.46 C10.68 204.47
										 10.68 204.49 10.68 204.51 C10.67 204.53 10.67 204.56 10.65 204.59 ZM13.26 206.38 C13.26
										 206.39 13.26 206.4 13.25 206.41 C13.25 206.42 13.24 206.43 13.22 206.43 C13.21 206.44 13.19
										 206.44 13.16 206.44 C13.14 206.45 13.11 206.45 13.07 206.45 C13.03 206.45 13 206.45 12.98
										 206.44 C12.95 206.44 12.93 206.44 12.92 206.43 C12.9 206.43 12.89 206.42 12.89 206.41 C12.88
										 206.4 12.88 206.39 12.88 206.38 L12.88 204.76 L12.88 204.76 L12.3 206.38 C12.29 206.4 12.28
										 206.41 12.28 206.42 C12.27 206.42 12.25 206.43 12.24 206.44 C12.22 206.44 12.2 206.44 12.18
										 206.45 C12.15 206.45 12.12 206.45 12.09 206.45 C12.05 206.45 12.02 206.45 12 206.44 C11.97
										 206.44 11.95 206.44 11.94 206.43 C11.92 206.43 11.91 206.42 11.9 206.41 C11.89 206.4 11.88
										 206.39 11.88 206.38 L11.32 204.76 L11.32 204.76 L11.32 206.38 C11.32 206.39 11.31 206.4
										 11.31 206.41 C11.3 206.42 11.29 206.43 11.28 206.43 C11.26 206.44 11.24 206.44 11.22 206.44
										 C11.19 206.45 11.16 206.45 11.12 206.45 C11.09 206.45 11.06 206.45 11.03 206.44 C11.01 206.44
										 10.99 206.44 10.97 206.43 C10.96 206.43 10.95 206.42 10.94 206.41 C10.93 206.4 10.93 206.39
										 10.93 206.38 L10.93 204.6 C10.93 204.55 10.95 204.51 10.97 204.48 C11 204.45 11.04 204.44
										 11.08 204.44 L11.35 204.44 C11.4 204.44 11.44 204.44 11.47 204.45 C11.51 204.46 11.54 204.47
										 11.56 204.49 C11.59 204.51 11.61 204.53 11.62 204.56 C11.64 204.59 11.65 204.63 11.67 204.67
										 L12.1 205.86 L12.1 205.86 L12.55 204.67 C12.57 204.63 12.58 204.59 12.6 204.56 C12.61 204.53
										 12.63 204.51 12.65 204.49 C12.67 204.47 12.7 204.46 12.73 204.45 C12.76 204.44 12.79 204.44
										 12.83 204.44 L13.1 204.44 C13.13 204.44 13.15 204.44 13.17 204.45 C13.19 204.46 13.21 204.47
										 13.22 204.48 C13.24 204.5 13.24 204.51 13.25 204.53 C13.26 204.55 13.26 204.58 13.26 204.6
										 L13.26 206.38 L13.26 206.38 ZM15.78 199.99 C15.78 200.28 15.55 200.51 15.27 200.51 L12.33
										 200.51 C12.04 201.66 12.17 201.8 14.16 201.8 L14.16 202.27 L11.84 202.27 L10.15 202.27 L7.98
										 202.27 L7.98 201.8 C9.77 201.8 10.06 201.66 9.78 200.51 L6.88 200.51 C6.59 200.51 6.36 200.28
										 6.36 199.99 L6.36 194.27 C6.36 193.99 6.59 193.75 6.88 193.75 L15.27 193.75 C15.55 193.75
										 15.78 193.99 15.78 194.27 L15.78 199.99 L15.78 199.99 Z" class="st8"/>
						</g>
					</g>
				</g>
				<g id="shape33-53" transform="translate(234.673,139.859) rotate(90)">
					<title>Sheet.33</title>
					<path d="M0 207.55 L44.74 207.55" class="st9"/>
				</g>
				<g id="shape34-56" transform="translate(27.125,-22.769)">
					<title>Sheet.34</title>
				</g>
			</g>
			<g id="shape36-57" transform="translate(276.433,-21.3158)">
				<title>Sheet.36</title>
				<path d="M0 207.55 L54 207.55 L54 178.42 L0 178.42 L0 207.55 Z" class="st6"/>
			</g>
			<g id="group37-59" transform="translate(279.209,-27.8151)">
				<title>Virtual machine (opaque).576</title>
				<g id="shape38-60">
					<title>Sheet.38</title>
					<path d="M20.5 190.39 L0.95 190.39 C0.43 190.39 0 190.82 0 191.34 L0 206.6 C0 207.13 0.43 207.55 0.95 207.55
								 L20.5 207.55 C21.03 207.55 21.45 207.13 21.45 206.6 L21.45 191.34 C21.45 190.82 21.03 190.39 20.5
								 190.39 Z" class="st7"/>
				</g>
				<g id="group39-62">
					<title>Sheet.39</title>
					<g id="shape40-63" transform="translate(7.02175,-7.70248)">
						<title>Sheet.40</title>
						<path d="M0 207.55 L8.1 207.55 L8.1 202.12 L0 202.12 L0 207.55 ZM5.83 205.96 L4.31 206.84 L4.31 205.09 L5.83
									 204.21 L5.83 205.96 ZM4.17 203.08 L5.69 203.97 L4.18 204.84 L2.65 203.96 L4.17 203.08 ZM2.51
									 204.2 L4.03 205.08 L4.03 206.84 L2.51 205.96 L2.51 204.2 Z" class="st8"/>
					</g>
					<g id="shape41-65">
						<title>Sheet.41</title>
						<path d="M20.5 190.39 L0.95 190.39 C0.43 190.39 0 190.82 0 191.34 L0 206.6 C0 207.13 0.43 207.55 0.95 207.55
									 L20.5 207.55 C21.03 207.55 21.45 207.13 21.45 206.6 L21.45 191.34 C21.45 190.82 21.03 190.39
									 20.5 190.39 ZM10.65 204.59 L10.06 206.37 C10.05 206.39 10.04 206.4 10.04 206.41 C10.03 206.42
									 10.01 206.43 10 206.43 C9.98 206.44 9.95 206.44 9.92 206.45 C9.89 206.45 9.85 206.45 9.8 206.45
									 C9.75 206.45 9.72 206.45 9.69 206.45 C9.66 206.45 9.64 206.45 9.62 206.44 C9.59 206.44 9.58
									 206.44 9.56 206.43 C9.55 206.43 9.54 206.42 9.53 206.42 C9.52 206.41 9.52 206.4 9.51 206.4 C9.51
									 206.39 9.5 206.38 9.5 206.36 L8.9 204.59 C8.89 204.55 8.88 204.52 8.88 204.5 C8.88 204.48 8.88
									 204.47 8.9 204.45 C8.91 204.44 8.93 204.44 8.96 204.43 C8.99 204.43 9.04 204.43 9.09 204.43
									 C9.14 204.43 9.18 204.43 9.2 204.43 C9.23 204.44 9.25 204.44 9.27 204.44 C9.28 204.45 9.29 204.46
									 9.3 204.47 C9.3 204.48 9.31 204.49 9.31 204.51 L9.8 206.05 L9.8 206.05 L10.28 204.51 C10.28
									 204.5 10.29 204.48 10.29 204.47 C10.3 204.46 10.31 204.45 10.32 204.45 C10.34 204.44 10.36 204.44
									 10.39 204.43 C10.42 204.43 10.45 204.43 10.5 204.43 C10.55 204.43 10.59 204.43 10.61 204.44
									 C10.64 204.44 10.66 204.45 10.67 204.46 C10.68 204.47 10.68 204.49 10.68 204.51 C10.67 204.53
									 10.67 204.56 10.65 204.59 ZM13.26 206.38 C13.26 206.39 13.26 206.4 13.25 206.41 C13.25 206.42
									 13.24 206.43 13.22 206.43 C13.21 206.44 13.19 206.44 13.16 206.44 C13.14 206.45 13.11 206.45
									 13.07 206.45 C13.03 206.45 13 206.45 12.98 206.44 C12.95 206.44 12.93 206.44 12.92 206.43 C12.9
									 206.43 12.89 206.42 12.89 206.41 C12.88 206.4 12.88 206.39 12.88 206.38 L12.88 204.76 L12.88
									 204.76 L12.3 206.38 C12.29 206.4 12.28 206.41 12.28 206.42 C12.27 206.42 12.25 206.43 12.24
									 206.44 C12.22 206.44 12.2 206.44 12.18 206.45 C12.15 206.45 12.12 206.45 12.09 206.45 C12.05
									 206.45 12.02 206.45 12 206.44 C11.97 206.44 11.95 206.44 11.94 206.43 C11.92 206.43 11.91 206.42
									 11.9 206.41 C11.89 206.4 11.88 206.39 11.88 206.38 L11.32 204.76 L11.32 204.76 L11.32 206.38
									 C11.32 206.39 11.31 206.4 11.31 206.41 C11.3 206.42 11.29 206.43 11.28 206.43 C11.26 206.44
									 11.24 206.44 11.22 206.44 C11.19 206.45 11.16 206.45 11.12 206.45 C11.09 206.45 11.06 206.45
									 11.03 206.44 C11.01 206.44 10.99 206.44 10.97 206.43 C10.96 206.43 10.95 206.42 10.94 206.41
									 C10.93 206.4 10.93 206.39 10.93 206.38 L10.93 204.6 C10.93 204.55 10.95 204.51 10.97 204.48
									 C11 204.45 11.04 204.44 11.08 204.44 L11.35 204.44 C11.4 204.44 11.44 204.44 11.47 204.45 C11.51
									 204.46 11.54 204.47 11.56 204.49 C11.59 204.51 11.61 204.53 11.62 204.56 C11.64 204.59 11.65
									 204.63 11.67 204.67 L12.1 205.86 L12.1 205.86 L12.55 204.67 C12.57 204.63 12.58 204.59 12.6
									 204.56 C12.61 204.53 12.63 204.51 12.65 204.49 C12.67 204.47 12.7 204.46 12.73 204.45 C12.76
									 204.44 12.79 204.44 12.83 204.44 L13.1 204.44 C13.13 204.44 13.15 204.44 13.17 204.45 C13.19
									 204.46 13.21 204.47 13.22 204.48 C13.24 204.5 13.24 204.51 13.25 204.53 C13.26 204.55 13.26
									 204.58 13.26 204.6 L13.26 206.38 L13.26 206.38 ZM15.78 199.99 C15.78 200.28 15.55 200.51 15.27
									 200.51 L12.33 200.51 C12.04 201.66 12.17 201.8 14.16 201.8 L14.16 202.27 L11.84 202.27 L10.15
									 202.27 L7.98 202.27 L7.98 201.8 C9.77 201.8 10.06 201.66 9.78 200.51 L6.88 200.51 C6.59 200.51
									 6.36 200.28 6.36 199.99 L6.36 194.27 C6.36 193.99 6.59 193.75 6.88 193.75 L15.27 193.75 C15.55
									 193.75 15.78 193.99 15.78 194.27 L15.78 199.99 L15.78 199.99 Z" class="st8"/>
					</g>
				</g>
			</g>
			<g id="group42-67" transform="translate(306.209,-27.8151)">
				<title>Virtual machine (opaque).668</title>
				<g id="shape43-68">
					<title>Sheet.43</title>
					<path d="M20.5 190.39 L0.95 190.39 C0.43 190.39 0 190.82 0 191.34 L0 206.6 C0 207.13 0.43 207.55 0.95 207.55
								 L20.5 207.55 C21.03 207.55 21.45 207.13 21.45 206.6 L21.45 191.34 C21.45 190.82 21.03 190.39 20.5
								 190.39 Z" class="st7"/>
				</g>
				<g id="group44-70">
					<title>Sheet.44</title>
					<g id="shape45-71" transform="translate(7.02175,-7.70248)">
						<title>Sheet.45</title>
						<path d="M0 207.55 L8.1 207.55 L8.1 202.12 L0 202.12 L0 207.55 ZM5.83 205.96 L4.31 206.84 L4.31 205.09 L5.83
									 204.21 L5.83 205.96 ZM4.17 203.08 L5.69 203.97 L4.18 204.84 L2.65 203.96 L4.17 203.08 ZM2.51
									 204.2 L4.03 205.08 L4.03 206.84 L2.51 205.96 L2.51 204.2 Z" class="st8"/>
					</g>
					<g id="shape46-73">
						<title>Sheet.46</title>
						<path d="M20.5 190.39 L0.95 190.39 C0.43 190.39 0 190.82 0 191.34 L0 206.6 C0 207.13 0.43 207.55 0.95 207.55
									 L20.5 207.55 C21.03 207.55 21.45 207.13 21.45 206.6 L21.45 191.34 C21.45 190.82 21.03 190.39
									 20.5 190.39 ZM10.65 204.59 L10.06 206.37 C10.05 206.39 10.04 206.4 10.04 206.41 C10.03 206.42
									 10.01 206.43 10 206.43 C9.98 206.44 9.95 206.44 9.92 206.45 C9.89 206.45 9.85 206.45 9.8 206.45
									 C9.75 206.45 9.72 206.45 9.69 206.45 C9.66 206.45 9.64 206.45 9.62 206.44 C9.59 206.44 9.58
									 206.44 9.56 206.43 C9.55 206.43 9.54 206.42 9.53 206.42 C9.52 206.41 9.52 206.4 9.51 206.4 C9.51
									 206.39 9.5 206.38 9.5 206.36 L8.9 204.59 C8.89 204.55 8.88 204.52 8.88 204.5 C8.88 204.48 8.88
									 204.47 8.9 204.45 C8.91 204.44 8.93 204.44 8.96 204.43 C8.99 204.43 9.04 204.43 9.09 204.43
									 C9.14 204.43 9.18 204.43 9.2 204.43 C9.23 204.44 9.25 204.44 9.27 204.44 C9.28 204.45 9.29 204.46
									 9.3 204.47 C9.3 204.48 9.31 204.49 9.31 204.51 L9.8 206.05 L9.8 206.05 L10.28 204.51 C10.28
									 204.5 10.29 204.48 10.29 204.47 C10.3 204.46 10.31 204.45 10.32 204.45 C10.34 204.44 10.36 204.44
									 10.39 204.43 C10.42 204.43 10.45 204.43 10.5 204.43 C10.55 204.43 10.59 204.43 10.61 204.44
									 C10.64 204.44 10.66 204.45 10.67 204.46 C10.68 204.47 10.68 204.49 10.68 204.51 C10.67 204.53
									 10.67 204.56 10.65 204.59 ZM13.26 206.38 C13.26 206.39 13.26 206.4 13.25 206.41 C13.25 206.42
									 13.24 206.43 13.22 206.43 C13.21 206.44 13.19 206.44 13.16 206.44 C13.14 206.45 13.11 206.45
									 13.07 206.45 C13.03 206.45 13 206.45 12.98 206.44 C12.95 206.44 12.93 206.44 12.92 206.43 C12.9
									 206.43 12.89 206.42 12.89 206.41 C12.88 206.4 12.88 206.39 12.88 206.38 L12.88 204.76 L12.88
									 204.76 L12.3 206.38 C12.29 206.4 12.28 206.41 12.28 206.42 C12.27 206.42 12.25 206.43 12.24
									 206.44 C12.22 206.44 12.2 206.44 12.18 206.45 C12.15 206.45 12.12 206.45 12.09 206.45 C12.05
									 206.45 12.02 206.45 12 206.44 C11.97 206.44 11.95 206.44 11.94 206.43 C11.92 206.43 11.91 206.42
									 11.9 206.41 C11.89 206.4 11.88 206.39 11.88 206.38 L11.32 204.76 L11.32 204.76 L11.32 206.38
									 C11.32 206.39 11.31 206.4 11.31 206.41 C11.3 206.42 11.29 206.43 11.28 206.43 C11.26 206.44
									 11.24 206.44 11.22 206.44 C11.19 206.45 11.16 206.45 11.12 206.45 C11.09 206.45 11.06 206.45
									 11.03 206.44 C11.01 206.44 10.99 206.44 10.97 206.43 C10.96 206.43 10.95 206.42 10.94 206.41
									 C10.93 206.4 10.93 206.39 10.93 206.38 L10.93 204.6 C10.93 204.55 10.95 204.51 10.97 204.48
									 C11 204.45 11.04 204.44 11.08 204.44 L11.35 204.44 C11.4 204.44 11.44 204.44 11.47 204.45 C11.51
									 204.46 11.54 204.47 11.56 204.49 C11.59 204.51 11.61 204.53 11.62 204.56 C11.64 204.59 11.65
									 204.63 11.67 204.67 L12.1 205.86 L12.1 205.86 L12.55 204.67 C12.57 204.63 12.58 204.59 12.6
									 204.56 C12.61 204.53 12.63 204.51 12.65 204.49 C12.67 204.47 12.7 204.46 12.73 204.45 C12.76
									 204.44 12.79 204.44 12.83 204.44 L13.1 204.44 C13.13 204.44 13.15 204.44 13.17 204.45 C13.19
									 204.46 13.21 204.47 13.22 204.48 C13.24 204.5 13.24 204.51 13.25 204.53 C13.26 204.55 13.26
									 204.58 13.26 204.6 L13.26 206.38 L13.26 206.38 ZM15.78 199.99 C15.78 200.28 15.55 200.51 15.27
									 200.51 L12.33 200.51 C12.04 201.66 12.17 201.8 14.16 201.8 L14.16 202.27 L11.84 202.27 L10.15
									 202.27 L7.98 202.27 L7.98 201.8 C9.77 201.8 10.06 201.66 9.78 200.51 L6.88 200.51 C6.59 200.51
									 6.36 200.28 6.36 199.99 L6.36 194.27 C6.36 193.99 6.59 193.75 6.88 193.75 L15.27 193.75 C15.55
									 193.75 15.78 193.99 15.78 194.27 L15.78 199.99 L15.78 199.99 Z" class="st8"/>
					</g>
				</g>
			</g>
			<g id="shape47-75" transform="translate(304.654,-36.3682) rotate(0.9)">
				<title>Sheet.47</title>
				<path d="M0 207.55 L3.71 207.55" class="st10"/>
			</g>
			<g id="shape48-78" transform="translate(173.101,-81.2138)">
				<title>Sheet.48</title>
				<path d="M0 207.55 L241.47 207.55" class="st5"/>
			</g>
			<g id="group49-81" transform="translate(271.344,-158.921)">
				<title>Sheet.49</title>
				<g id="group50-82" transform="translate(2.83233,-0.642911)">
					<title>Sheet.50</title>
					<g id="shape51-83">
						<title>Lock, protected.1135</title>
						<path d="M13.14 196.55 L12.22 196.55 L12.22 194.84 C12.22 191.24 9.93 189.39 7.25 189.39 L6.81 189.39 C4.09
									 189.39 1.85 191.19 1.85 194.84 L1.85 196.55 L0.92 196.55 C0.54 196.55 0 197.08 0 197.47 L0 206.62
									 C0 207.01 0.54 207.55 0.92 207.55 L13.14 207.55 C13.53 207.55 14.07 207.01 14.07 206.62 L14.07
									 197.47 C14.07 197.08 13.53 196.55 13.14 196.55 ZM7.74 201.95 L7.74 205.75 L6.38 205.75 L6.38
									 201.95 C5.84 201.71 5.45 201.17 5.45 200.54 C5.45 199.66 6.18 198.93 7.06 198.93 C7.93 198.93
									 8.66 199.66 8.66 200.54 C8.62 201.12 8.27 201.66 7.74 201.95 ZM10.51 196.55 L3.55 196.55 L3.55
									 194.84 C3.55 192.56 4.77 191 6.81 191 L7.25 191 C9.35 191 10.51 192.56 10.51 194.84 L10.51 196.55
									 Z" class="st11"/>
					</g>
					<g id="shape52-85" transform="translate(2.09445,-0.35798)">
						<title>Sheet.52</title>
						<rect x="0" y="198.028" width="9.87812" height="9.52014" class="st12"/>
					</g>
				</g>
				<g id="shape53-87">
					<title>Sheet.53</title>
					<desc>NSG</desc>
					<rect x="0" y="195.941" width="19.7317" height="11.6069" class="st13"/>
					<text x="3.97" y="203.54" class="st14">NSG</text>				</g>
			</g>
			<g id="shape55-90" transform="translate(207.025,133.084) rotate(-90)">
				<title>Sheet.55</title>
				<path d="M0 207.55 L6.75 207.55" class="st10"/>
			</g>
			<g id="shape57-93" transform="translate(387.448,-21.3158)">
				<title>Sheet.57</title>
				<path d="M0 207.55 L54 207.55 L54 178.42 L0 178.42 L0 207.55 Z" class="st6"/>
			</g>
			<g id="shape58-95" transform="translate(622.121,154.128) rotate(90)">
				<title>Sheet.58</title>
				<path d="M0 207.55 L15.12 207.55" class="st9"/>
			</g>
			<g id="shape59-98" transform="translate(412.117,-37.6351)">
				<title>Sheet.59</title>
				<path d="M0 207.55 L5.76 207.55" class="st10"/>
			</g>
			<g id="group60-101" transform="translate(391.073,-29.1533)">
				<title>Database Server VM</title>
				<g id="shape61-102">
					<title>Sheet.61</title>
					<path d="M20.99 191.98 C20.99 192.36 21.04 191.17 20.72 190.85 C20.56 190.69 20.35 190.58 20.18 190.58 C20.13
								 190.58 20.08 190.58 20.02 190.58 L0.91 190.58 C0.43 190.58 0 191.07 0 191.66 L0 206.47 C0 207.06
								 0.38 207.55 0.91 207.55 L20.08 207.55 C20.56 207.55 20.99 207.06 20.99 206.47 L20.99 191.98 Z"
							class="st15"/>
				</g>
				<g id="group62-104" transform="translate(5.64304,-2.04419)">
					<title>Database server.847</title>
					<g id="shape63-105" transform="translate(4.72138,2.84217E-14)">
						<title>Sheet.63</title>
						<path d="M2.52 201.94 C1.55 201.94 0.52 201.74 0 201.32 L0 206.41 C0 207.04 1.13 207.55 2.52 207.55 C3.91
									 207.55 5.04 207.04 5.04 206.41 L5.04 201.32 C4.51 201.74 3.49 201.94 2.52 201.94 Z"
								class="st16"/>
					</g>
					<g id="shape64-107" transform="translate(4.72138,-5.97506)">
						<title>Sheet.64</title>
						<path d="M5.04 206.64 C5.04 206.14 3.91 205.74 2.52 205.74 C1.13 205.74 0 206.14 0 206.64 C0 207.14 1.13
									 207.55 2.52 207.55 C3.91 207.55 5.04 207.14 5.04 206.64 Z" class="st16"/>
					</g>
					<g id="shape65-109" transform="translate(0,-0.000314759)">
						<title>Sheet.65</title>
						<path d="M4.09 204.4 L4.09 201.32 L4.09 200.76 L4.09 200.67 C4.09 199.82 5.1 199.35 6.3 199.19 L6.3 195.26
									 C6.3 194.92 6.01 194.64 5.67 194.64 L0.63 194.64 C0.28 194.64 0 194.92 0 195.26 L0 207.55 L4.78
									 207.55 C4.34 207.25 4.09 206.85 4.09 206.41 L4.09 206.29 L0.94 206.29 L0.94 205.66 L4.09 205.66
									 L4.09 205.03 L0.94 205.03 L0.94 204.4 L4.09 204.4 L4.09 204.4 ZM0.94 196.53 L5.35 196.53 L5.35
									 197.16 L0.94 197.16 L0.94 196.53 Z" class="st16"/>
					</g>
				</g>
			</g>
			<g id="group66-111" transform="translate(417.877,-29.1533)">
				<title>Database Server VM.268</title>
				<g id="shape67-112">
					<title>Sheet.67</title>
					<path d="M20.99 191.98 C20.99 192.36 21.04 191.17 20.72 190.85 C20.56 190.69 20.35 190.58 20.18 190.58 C20.13
								 190.58 20.08 190.58 20.02 190.58 L0.91 190.58 C0.43 190.58 0 191.07 0 191.66 L0 206.47 C0 207.06
								 0.38 207.55 0.91 207.55 L20.08 207.55 C20.56 207.55 20.99 207.06 20.99 206.47 L20.99 191.98 Z"
							class="st17"/>
				</g>
				<g id="group68-114" transform="translate(5.64304,-2.04419)">
					<title>Database server.847</title>
					<g id="shape69-115" transform="translate(4.72138,2.84217E-14)">
						<title>Sheet.69</title>
						<path d="M2.52 201.94 C1.55 201.94 0.52 201.74 0 201.32 L0 206.41 C0 207.04 1.13 207.55 2.52 207.55 C3.91
									 207.55 5.04 207.04 5.04 206.41 L5.04 201.32 C4.51 201.74 3.49 201.94 2.52 201.94 Z"
								class="st18"/>
					</g>
					<g id="shape70-117" transform="translate(4.72138,-5.97506)">
						<title>Sheet.70</title>
						<path d="M5.04 206.64 C5.04 206.14 3.91 205.74 2.52 205.74 C1.13 205.74 0 206.14 0 206.64 C0 207.14 1.13
									 207.55 2.52 207.55 C3.91 207.55 5.04 207.14 5.04 206.64 Z" class="st18"/>
					</g>
					<g id="shape71-119" transform="translate(0,-0.000314759)">
						<title>Sheet.71</title>
						<path d="M4.09 204.4 L4.09 201.32 L4.09 200.76 L4.09 200.67 C4.09 199.82 5.1 199.35 6.3 199.19 L6.3 195.26
									 C6.3 194.92 6.01 194.64 5.67 194.64 L0.63 194.64 C0.28 194.64 0 194.92 0 195.26 L0 207.55 L4.78
									 207.55 C4.34 207.25 4.09 206.85 4.09 206.41 L4.09 206.29 L0.94 206.29 L0.94 205.66 L4.09 205.66
									 L4.09 205.03 L0.94 205.03 L0.94 204.4 L4.09 204.4 L4.09 204.4 ZM0.94 196.53 L5.35 196.53 L5.35
									 197.16 L0.94 197.16 L0.94 196.53 Z" class="st18"/>
					</g>
				</g>
			</g>
			<g id="shape72-121" transform="translate(239.797,-35.8304) rotate(0.9)">
				<title>Sheet.72</title>
				<path d="M0 207.55 L3.71 207.55" class="st9"/>
			</g>
			<g id="shape73-124" transform="translate(510.914,155.529) rotate(90)">
				<title>Sheet.73</title>
				<path d="M0 207.55 L15.66 207.55" class="st10"/>
			</g>
			<g id="shape74-127" transform="translate(95.8178,135.241) rotate(-90)">
				<title>Sheet.74</title>
				<path d="M0 207.55 L8.91 207.55" class="st19"/>
			</g>
			<g id="group75-130" transform="translate(404.051,-53.4202)">
				<title>Azure load balancer.311</title>
				<g id="group76-131" transform="translate(0.364216,-0.323748)">
					<title>Sheet.76</title>
					<g id="shape77-132">
						<title>Sheet.77</title>
						<path d="M19.75 196.05 L11.49 187.8 C11.13 187.44 10.68 187.23 10.16 187.23 C9.67 187.23 9.19 187.44 8.82
									 187.8 L0.57 196.05 C0.2 196.42 0 196.86 0 197.39 C0 197.88 0.2 198.36 0.57 198.73 L8.82 206.98
									 C9.19 207.35 9.63 207.55 10.16 207.55 C10.64 207.55 11.13 207.35 11.49 206.98 L19.75 198.73
									 C20.11 198.36 20.32 197.92 20.32 197.39 C20.27 196.86 20.07 196.38 19.75 196.05 ZM15.82 199.9
									 L15.82 198.04 L12.99 198.04 C12.71 199.01 11.94 199.78 10.97 200.06 L10.97 201.96 C11.37 202.25
									 11.98 202.89 11.98 203.58 C11.98 204.59 11.17 205.4 10.16 205.4 C9.15 205.4 8.34 204.59 8.34
									 203.58 C8.34 202.85 8.94 202.25 9.35 201.96 L9.35 200.1 C8.38 199.82 7.61 199.05 7.32 198.08
									 L4.49 198.08 L4.49 199.98 L1.82 197.31 L4.49 194.64 L4.49 196.5 L7.32 196.5 C7.61 195.53 8.38
									 194.76 9.35 194.48 L9.35 191.77 L7.49 191.77 L10.16 189.09 L12.83 191.77 L10.97 191.77 L10.97
									 194.48 C11.94 194.76 12.71 195.53 12.99 196.5 L15.82 196.5 L15.82 194.6 L18.49 197.27 L15.82
									 199.9 Z" class="st20"/>
					</g>
					<g id="shape78-134" transform="translate(8.01276,-8.17463)">
						<title>Sheet.78</title>
						<path d="M2.14 203.26 C0.97 203.26 0 204.23 0 205.4 C0 206.58 0.97 207.55 2.14 207.55 C3.32 207.55 4.29 206.58
									 4.29 205.4 C4.29 204.23 3.32 203.26 2.14 203.26 Z" class="st20"/>
					</g>
				</g>
			</g>
			<g id="shape80-136" transform="translate(380.649,70.6788) rotate(90)">
				<title>Sheet.80</title>
				<path d="M0 207.55 L63.71 207.55" class="st5"/>
			</g>
			<g id="shape83-139" transform="translate(145.694,-21.3158)">
				<title>Sheet.83</title>
				<path d="M0 207.55 L54 207.55 L54 178.42 L0 178.42 L0 207.55 Z" class="st6"/>
			</g>
			<g id="group84-141" transform="translate(148.471,-27.8151)">
				<title>Virtual machine (opaque).334</title>
				<g id="shape85-142">
					<title>Sheet.85</title>
					<path d="M20.5 190.39 L0.95 190.39 C0.43 190.39 0 190.82 0 191.34 L0 206.6 C0 207.13 0.43 207.55 0.95 207.55
								 L20.5 207.55 C21.03 207.55 21.45 207.13 21.45 206.6 L21.45 191.34 C21.45 190.82 21.03 190.39 20.5
								 190.39 Z" class="st7"/>
				</g>
				<g id="group86-144">
					<title>Sheet.86</title>
					<g id="shape87-145" transform="translate(7.02175,-7.70248)">
						<title>Sheet.87</title>
						<path d="M0 207.55 L8.1 207.55 L8.1 202.12 L0 202.12 L0 207.55 ZM5.83 205.96 L4.31 206.84 L4.31 205.09 L5.83
									 204.21 L5.83 205.96 ZM4.17 203.08 L5.69 203.97 L4.18 204.84 L2.65 203.96 L4.17 203.08 ZM2.51
									 204.2 L4.03 205.08 L4.03 206.84 L2.51 205.96 L2.51 204.2 Z" class="st8"/>
					</g>
					<g id="shape88-147">
						<title>Sheet.88</title>
						<path d="M20.5 190.39 L0.95 190.39 C0.43 190.39 0 190.82 0 191.34 L0 206.6 C0 207.13 0.43 207.55 0.95 207.55
									 L20.5 207.55 C21.03 207.55 21.45 207.13 21.45 206.6 L21.45 191.34 C21.45 190.82 21.03 190.39
									 20.5 190.39 ZM10.65 204.59 L10.06 206.37 C10.05 206.39 10.04 206.4 10.04 206.41 C10.03 206.42
									 10.01 206.43 10 206.43 C9.98 206.44 9.95 206.44 9.92 206.45 C9.89 206.45 9.85 206.45 9.8 206.45
									 C9.75 206.45 9.72 206.45 9.69 206.45 C9.66 206.45 9.64 206.45 9.62 206.44 C9.59 206.44 9.58
									 206.44 9.56 206.43 C9.55 206.43 9.54 206.42 9.53 206.42 C9.52 206.41 9.52 206.4 9.51 206.4 C9.51
									 206.39 9.5 206.38 9.5 206.36 L8.9 204.59 C8.89 204.55 8.88 204.52 8.88 204.5 C8.88 204.48 8.88
									 204.47 8.9 204.45 C8.91 204.44 8.93 204.44 8.96 204.43 C8.99 204.43 9.04 204.43 9.09 204.43
									 C9.14 204.43 9.18 204.43 9.2 204.43 C9.23 204.44 9.25 204.44 9.27 204.44 C9.28 204.45 9.29 204.46
									 9.3 204.47 C9.3 204.48 9.31 204.49 9.31 204.51 L9.8 206.05 L9.8 206.05 L10.28 204.51 C10.28
									 204.5 10.29 204.48 10.29 204.47 C10.3 204.46 10.31 204.45 10.32 204.45 C10.34 204.44 10.36 204.44
									 10.39 204.43 C10.42 204.43 10.45 204.43 10.5 204.43 C10.55 204.43 10.59 204.43 10.61 204.44
									 C10.64 204.44 10.66 204.45 10.67 204.46 C10.68 204.47 10.68 204.49 10.68 204.51 C10.67 204.53
									 10.67 204.56 10.65 204.59 ZM13.26 206.38 C13.26 206.39 13.26 206.4 13.25 206.41 C13.25 206.42
									 13.24 206.43 13.22 206.43 C13.21 206.44 13.19 206.44 13.16 206.44 C13.14 206.45 13.11 206.45
									 13.07 206.45 C13.03 206.45 13 206.45 12.98 206.44 C12.95 206.44 12.93 206.44 12.92 206.43 C12.9
									 206.43 12.89 206.42 12.89 206.41 C12.88 206.4 12.88 206.39 12.88 206.38 L12.88 204.76 L12.88
									 204.76 L12.3 206.38 C12.29 206.4 12.28 206.41 12.28 206.42 C12.27 206.42 12.25 206.43 12.24
									 206.44 C12.22 206.44 12.2 206.44 12.18 206.45 C12.15 206.45 12.12 206.45 12.09 206.45 C12.05
									 206.45 12.02 206.45 12 206.44 C11.97 206.44 11.95 206.44 11.94 206.43 C11.92 206.43 11.91 206.42
									 11.9 206.41 C11.89 206.4 11.88 206.39 11.88 206.38 L11.32 204.76 L11.32 204.76 L11.32 206.38
									 C11.32 206.39 11.31 206.4 11.31 206.41 C11.3 206.42 11.29 206.43 11.28 206.43 C11.26 206.44
									 11.24 206.44 11.22 206.44 C11.19 206.45 11.16 206.45 11.12 206.45 C11.09 206.45 11.06 206.45
									 11.03 206.44 C11.01 206.44 10.99 206.44 10.97 206.43 C10.96 206.43 10.95 206.42 10.94 206.41
									 C10.93 206.4 10.93 206.39 10.93 206.38 L10.93 204.6 C10.93 204.55 10.95 204.51 10.97 204.48
									 C11 204.45 11.04 204.44 11.08 204.44 L11.35 204.44 C11.4 204.44 11.44 204.44 11.47 204.45 C11.51
									 204.46 11.54 204.47 11.56 204.49 C11.59 204.51 11.61 204.53 11.62 204.56 C11.64 204.59 11.65
									 204.63 11.67 204.67 L12.1 205.86 L12.1 205.86 L12.55 204.67 C12.57 204.63 12.58 204.59 12.6
									 204.56 C12.61 204.53 12.63 204.51 12.65 204.49 C12.67 204.47 12.7 204.46 12.73 204.45 C12.76
									 204.44 12.79 204.44 12.83 204.44 L13.1 204.44 C13.13 204.44 13.15 204.44 13.17 204.45 C13.19
									 204.46 13.21 204.47 13.22 204.48 C13.24 204.5 13.24 204.51 13.25 204.53 C13.26 204.55 13.26
									 204.58 13.26 204.6 L13.26 206.38 L13.26 206.38 ZM15.78 199.99 C15.78 200.28 15.55 200.51 15.27
									 200.51 L12.33 200.51 C12.04 201.66 12.17 201.8 14.16 201.8 L14.16 202.27 L11.84 202.27 L10.15
									 202.27 L7.98 202.27 L7.98 201.8 C9.77 201.8 10.06 201.66 9.78 200.51 L6.88 200.51 C6.59 200.51
									 6.36 200.28 6.36 199.99 L6.36 194.27 C6.36 193.99 6.59 193.75 6.88 193.75 L15.27 193.75 C15.55
									 193.75 15.78 193.99 15.78 194.27 L15.78 199.99 L15.78 199.99 Z" class="st8"/>
					</g>
				</g>
			</g>
			<g id="group89-149" transform="translate(175.471,-27.8151)">
				<title>Virtual machine (opaque).339</title>
				<g id="shape90-150">
					<title>Sheet.90</title>
					<path d="M20.5 190.39 L0.95 190.39 C0.43 190.39 0 190.82 0 191.34 L0 206.6 C0 207.13 0.43 207.55 0.95 207.55
								 L20.5 207.55 C21.03 207.55 21.45 207.13 21.45 206.6 L21.45 191.34 C21.45 190.82 21.03 190.39 20.5
								 190.39 Z" class="st7"/>
				</g>
				<g id="group91-152">
					<title>Sheet.91</title>
					<g id="shape92-153" transform="translate(7.02175,-7.70248)">
						<title>Sheet.92</title>
						<path d="M0 207.55 L8.1 207.55 L8.1 202.12 L0 202.12 L0 207.55 ZM5.83 205.96 L4.31 206.84 L4.31 205.09 L5.83
									 204.21 L5.83 205.96 ZM4.17 203.08 L5.69 203.97 L4.18 204.84 L2.65 203.96 L4.17 203.08 ZM2.51
									 204.2 L4.03 205.08 L4.03 206.84 L2.51 205.96 L2.51 204.2 Z" class="st8"/>
					</g>
					<g id="shape93-155">
						<title>Sheet.93</title>
						<path d="M20.5 190.39 L0.95 190.39 C0.43 190.39 0 190.82 0 191.34 L0 206.6 C0 207.13 0.43 207.55 0.95 207.55
									 L20.5 207.55 C21.03 207.55 21.45 207.13 21.45 206.6 L21.45 191.34 C21.45 190.82 21.03 190.39
									 20.5 190.39 ZM10.65 204.59 L10.06 206.37 C10.05 206.39 10.04 206.4 10.04 206.41 C10.03 206.42
									 10.01 206.43 10 206.43 C9.98 206.44 9.95 206.44 9.92 206.45 C9.89 206.45 9.85 206.45 9.8 206.45
									 C9.75 206.45 9.72 206.45 9.69 206.45 C9.66 206.45 9.64 206.45 9.62 206.44 C9.59 206.44 9.58
									 206.44 9.56 206.43 C9.55 206.43 9.54 206.42 9.53 206.42 C9.52 206.41 9.52 206.4 9.51 206.4 C9.51
									 206.39 9.5 206.38 9.5 206.36 L8.9 204.59 C8.89 204.55 8.88 204.52 8.88 204.5 C8.88 204.48 8.88
									 204.47 8.9 204.45 C8.91 204.44 8.93 204.44 8.96 204.43 C8.99 204.43 9.04 204.43 9.09 204.43
									 C9.14 204.43 9.18 204.43 9.2 204.43 C9.23 204.44 9.25 204.44 9.27 204.44 C9.28 204.45 9.29 204.46
									 9.3 204.47 C9.3 204.48 9.31 204.49 9.31 204.51 L9.8 206.05 L9.8 206.05 L10.28 204.51 C10.28
									 204.5 10.29 204.48 10.29 204.47 C10.3 204.46 10.31 204.45 10.32 204.45 C10.34 204.44 10.36 204.44
									 10.39 204.43 C10.42 204.43 10.45 204.43 10.5 204.43 C10.55 204.43 10.59 204.43 10.61 204.44
									 C10.64 204.44 10.66 204.45 10.67 204.46 C10.68 204.47 10.68 204.49 10.68 204.51 C10.67 204.53
									 10.67 204.56 10.65 204.59 ZM13.26 206.38 C13.26 206.39 13.26 206.4 13.25 206.41 C13.25 206.42
									 13.24 206.43 13.22 206.43 C13.21 206.44 13.19 206.44 13.16 206.44 C13.14 206.45 13.11 206.45
									 13.07 206.45 C13.03 206.45 13 206.45 12.98 206.44 C12.95 206.44 12.93 206.44 12.92 206.43 C12.9
									 206.43 12.89 206.42 12.89 206.41 C12.88 206.4 12.88 206.39 12.88 206.38 L12.88 204.76 L12.88
									 204.76 L12.3 206.38 C12.29 206.4 12.28 206.41 12.28 206.42 C12.27 206.42 12.25 206.43 12.24
									 206.44 C12.22 206.44 12.2 206.44 12.18 206.45 C12.15 206.45 12.12 206.45 12.09 206.45 C12.05
									 206.45 12.02 206.45 12 206.44 C11.97 206.44 11.95 206.44 11.94 206.43 C11.92 206.43 11.91 206.42
									 11.9 206.41 C11.89 206.4 11.88 206.39 11.88 206.38 L11.32 204.76 L11.32 204.76 L11.32 206.38
									 C11.32 206.39 11.31 206.4 11.31 206.41 C11.3 206.42 11.29 206.43 11.28 206.43 C11.26 206.44
									 11.24 206.44 11.22 206.44 C11.19 206.45 11.16 206.45 11.12 206.45 C11.09 206.45 11.06 206.45
									 11.03 206.44 C11.01 206.44 10.99 206.44 10.97 206.43 C10.96 206.43 10.95 206.42 10.94 206.41
									 C10.93 206.4 10.93 206.39 10.93 206.38 L10.93 204.6 C10.93 204.55 10.95 204.51 10.97 204.48
									 C11 204.45 11.04 204.44 11.08 204.44 L11.35 204.44 C11.4 204.44 11.44 204.44 11.47 204.45 C11.51
									 204.46 11.54 204.47 11.56 204.49 C11.59 204.51 11.61 204.53 11.62 204.56 C11.64 204.59 11.65
									 204.63 11.67 204.67 L12.1 205.86 L12.1 205.86 L12.55 204.67 C12.57 204.63 12.58 204.59 12.6
									 204.56 C12.61 204.53 12.63 204.51 12.65 204.49 C12.67 204.47 12.7 204.46 12.73 204.45 C12.76
									 204.44 12.79 204.44 12.83 204.44 L13.1 204.44 C13.13 204.44 13.15 204.44 13.17 204.45 C13.19
									 204.46 13.21 204.47 13.22 204.48 C13.24 204.5 13.24 204.51 13.25 204.53 C13.26 204.55 13.26
									 204.58 13.26 204.6 L13.26 206.38 L13.26 206.38 ZM15.78 199.99 C15.78 200.28 15.55 200.51 15.27
									 200.51 L12.33 200.51 C12.04 201.66 12.17 201.8 14.16 201.8 L14.16 202.27 L11.84 202.27 L10.15
									 202.27 L7.98 202.27 L7.98 201.8 C9.77 201.8 10.06 201.66 9.78 200.51 L6.88 200.51 C6.59 200.51
									 6.36 200.28 6.36 199.99 L6.36 194.27 C6.36 193.99 6.59 193.75 6.88 193.75 L15.27 193.75 C15.55
									 193.75 15.78 193.99 15.78 194.27 L15.78 199.99 L15.78 199.99 Z" class="st8"/>
					</g>
				</g>
			</g>
			<g id="group94-157" transform="translate(384.076,-159.011)">
				<title>Sheet.94</title>
				<g id="group95-158" transform="translate(2.83233,-0.642911)">
					<title>Sheet.95</title>
					<g id="shape96-159">
						<title>Lock, protected.1135</title>
						<path d="M13.14 196.55 L12.22 196.55 L12.22 194.84 C12.22 191.24 9.93 189.39 7.25 189.39 L6.81 189.39 C4.09
									 189.39 1.85 191.19 1.85 194.84 L1.85 196.55 L0.92 196.55 C0.54 196.55 0 197.08 0 197.47 L0 206.62
									 C0 207.01 0.54 207.55 0.92 207.55 L13.14 207.55 C13.53 207.55 14.07 207.01 14.07 206.62 L14.07
									 197.47 C14.07 197.08 13.53 196.55 13.14 196.55 ZM7.74 201.95 L7.74 205.75 L6.38 205.75 L6.38
									 201.95 C5.84 201.71 5.45 201.17 5.45 200.54 C5.45 199.66 6.18 198.93 7.06 198.93 C7.93 198.93
									 8.66 199.66 8.66 200.54 C8.62 201.12 8.27 201.66 7.74 201.95 ZM10.51 196.55 L3.55 196.55 L3.55
									 194.84 C3.55 192.56 4.77 191 6.81 191 L7.25 191 C9.35 191 10.51 192.56 10.51 194.84 L10.51 196.55
									 Z" class="st11"/>
					</g>
					<g id="shape97-161" transform="translate(2.09445,-0.35798)">
						<title>Sheet.97</title>
						<rect x="0" y="198.028" width="9.87812" height="9.52014" class="st12"/>
					</g>
				</g>
				<g id="shape98-163">
					<title>Sheet.98</title>
					<desc>NSG</desc>
					<rect x="0" y="195.941" width="19.7317" height="11.6069" class="st13"/>
					<text x="3.97" y="203.54" class="st14">NSG</text>				</g>
			</g>
			<g id="shape99-166" transform="translate(-1.59872E-14,-127.628)">
				<title>Sheet.99</title>
				<rect x="0" y="149.228" width="92.25" height="58.3204" class="st21"/>
			</g>
			<g id="group100-168" transform="translate(8.23041,-154.628)">
				<title>Virtual Machine symbol only</title>
				<g id="shape101-169">
					<title>Sheet.101</title>
					<path d="M18.36 189.52 L1.06 189.52 C0.47 189.52 0 190.04 0 190.63 L0 202.69 C-0 203.27 0.47 203.79 1.06 203.79
								 L6.98 203.79 C7.62 206.04 6.76 206.37 3.01 206.37 L3.01 207.55 L7.78 207.55 L11.27 207.55 L15.78
								 207.55 L15.78 206.37 C12.02 206.37 11.65 206.04 12.29 203.79 L18.36 203.79 C18.94 203.79 19.54 203.27
								 19.54 202.69 L19.54 190.63 C19.54 190.04 18.94 189.52 18.36 189.52 ZM18.04 191.02 L18.04 202.29
								 L1.5 202.29 L1.5 191.02 L18.08 190.99 L18.04 191.02 Z" class="st22"/>
				</g>
				<g id="group102-171" transform="translate(6.23799,-7.23344)">
					<title>Sheet.102</title>
					<g id="group103-172" transform="translate(0.309967,-3.97761)">
						<title>Sheet.103</title>
						<g id="shape104-173">
							<title>Sheet.104</title>
							<path d="M6.06 205.76 L3.03 204.01 L0 205.76 L0 205.8 L3.03 207.55 L6.06 205.8 L6.06 205.76 Z"
									class="st22"/>
						</g>
					</g>
					<g id="group105-175" transform="translate(3.65041,5.68434E-14)">
						<title>Sheet.105</title>
						<g id="shape106-176">
							<title>Sheet.106</title>
							<path d="M0 204.09 L0 207.55 L3.03 205.8 L3.03 202.34 L0 204.09 Z" class="st22"/>
						</g>
					</g>
					<g id="group107-178">
						<title>Sheet.107</title>
						<g id="shape108-179">
							<title>Sheet.108</title>
							<path d="M3.03 204.09 L0 202.34 L0 205.8 L3.03 207.55 L3.03 204.09 Z" class="st22"/>
						</g>
					</g>
				</g>
			</g>
			<g id="group118-181" transform="translate(8.23041,-132.114)">
				<title>Virtual Machine symbol only.251</title>
				<g id="shape119-182">
					<title>Sheet.119</title>
					<path d="M18.36 189.52 L1.06 189.52 C0.47 189.52 0 190.04 0 190.63 L0 202.69 C-0 203.27 0.47 203.79 1.06 203.79
								 L6.98 203.79 C7.62 206.04 6.76 206.37 3.01 206.37 L3.01 207.55 L7.78 207.55 L11.27 207.55 L15.78
								 207.55 L15.78 206.37 C12.02 206.37 11.65 206.04 12.29 203.79 L18.36 203.79 C18.94 203.79 19.54 203.27
								 19.54 202.69 L19.54 190.63 C19.54 190.04 18.94 189.52 18.36 189.52 ZM18.04 191.02 L18.04 202.29
								 L1.5 202.29 L1.5 191.02 L18.08 190.99 L18.04 191.02 Z" class="st22"/>
				</g>
				<g id="group120-184" transform="translate(6.23799,-7.23344)">
					<title>Sheet.120</title>
					<g id="group121-185" transform="translate(0.309967,-3.97761)">
						<title>Sheet.121</title>
						<g id="shape122-186">
							<title>Sheet.122</title>
							<path d="M6.06 205.76 L3.03 204.01 L0 205.76 L0 205.8 L3.03 207.55 L6.06 205.8 L6.06 205.76 Z"
									class="st22"/>
						</g>
					</g>
					<g id="group123-188" transform="translate(3.65041,5.68434E-14)">
						<title>Sheet.123</title>
						<g id="shape124-189">
							<title>Sheet.124</title>
							<path d="M0 204.09 L0 207.55 L3.03 205.8 L3.03 202.34 L0 204.09 Z" class="st22"/>
						</g>
					</g>
					<g id="group125-191">
						<title>Sheet.125</title>
						<g id="shape126-192">
							<title>Sheet.126</title>
							<path d="M3.03 204.09 L0 202.34 L0 205.8 L3.03 207.55 L3.03 204.09 Z" class="st22"/>
						</g>
					</g>
				</g>
			</g>
			<g id="shape127-194" transform="translate(49.125,-137.556)">
				<title>Gateway.166</title>
				<path d="M13.87 179.8 C6.21 179.8 0 186.01 0 193.67 C0 201.34 6.21 207.55 13.87 207.55 C21.54 207.55 27.75 201.34
							 27.75 193.67 C27.75 186.01 21.54 179.8 13.87 179.8 ZM12.61 186.1 L12.61 181.69 L15.14 181.69 L15.14
							 186.1 L16.4 186.1 L13.87 191.2 L11.35 186.1 L12.61 186.1 ZM6.94 196.2 L1.84 193.67 L6.94 191.15 L6.94
							 192.41 L11.35 192.41 L11.35 194.93 L6.94 194.93 L6.94 196.2 ZM15.14 200.61 L15.14 205.03 L12.61 205.03
							 L12.61 200.61 L11.35 200.61 L13.87 195.51 L16.4 200.61 L15.14 200.61 ZM20.81 196.2 L20.81 194.93 L16.4
							 194.93 L16.4 192.41 L20.81 192.41 L20.81 191.15 L25.91 193.67 L20.81 196.2 Z" class="st22"/>
			</g>
			<g id="shape130-196" transform="translate(380.462,153.762) rotate(90)">
				<title>Sheet.130</title>
				<path d="M0 207.55 L18.55 207.55" class="st9"/>
			</g>
			<g id="shape131-199" transform="translate(174.01,-35.2415) rotate(0.9)">
				<title>Sheet.131</title>
				<path d="M0 207.55 L3.71 207.55" class="st9"/>
			</g>
			<g id="group147-202" transform="translate(162.58,-52.1187)">
				<title>Azure load balancer.344</title>
				<g id="group148-203" transform="translate(0.364216,-0.323748)">
					<title>Sheet.148</title>
					<g id="shape149-204">
						<title>Sheet.149</title>
						<path d="M19.75 196.05 L11.49 187.8 C11.13 187.44 10.68 187.23 10.16 187.23 C9.67 187.23 9.19 187.44 8.82
									 187.8 L0.57 196.05 C0.2 196.42 0 196.86 0 197.39 C0 197.88 0.2 198.36 0.57 198.73 L8.82 206.98
									 C9.19 207.35 9.63 207.55 10.16 207.55 C10.64 207.55 11.13 207.35 11.49 206.98 L19.75 198.73
									 C20.11 198.36 20.32 197.92 20.32 197.39 C20.27 196.86 20.07 196.38 19.75 196.05 ZM15.82 199.9
									 L15.82 198.04 L12.99 198.04 C12.71 199.01 11.94 199.78 10.97 200.06 L10.97 201.96 C11.37 202.25
									 11.98 202.89 11.98 203.58 C11.98 204.59 11.17 205.4 10.16 205.4 C9.15 205.4 8.34 204.59 8.34
									 203.58 C8.34 202.85 8.94 202.25 9.35 201.96 L9.35 200.1 C8.38 199.82 7.61 199.05 7.32 198.08
									 L4.49 198.08 L4.49 199.98 L1.82 197.31 L4.49 194.64 L4.49 196.5 L7.32 196.5 C7.61 195.53 8.38
									 194.76 9.35 194.48 L9.35 191.77 L7.49 191.77 L10.16 189.09 L12.83 191.77 L10.97 191.77 L10.97
									 194.48 C11.94 194.76 12.71 195.53 12.99 196.5 L15.82 196.5 L15.82 194.6 L18.49 197.27 L15.82
									 199.9 Z" class="st20"/>
					</g>
					<g id="shape150-206" transform="translate(8.01276,-8.17463)">
						<title>Sheet.150</title>
						<path d="M2.14 203.26 C0.97 203.26 0 204.23 0 205.4 C0 206.58 0.97 207.55 2.14 207.55 C3.32 207.55 4.29 206.58
									 4.29 205.4 C4.29 204.23 3.32 203.26 2.14 203.26 Z" class="st20"/>
					</g>
				</g>
			</g>
			<g id="group151-208" transform="translate(292.844,-52.0195)">
				<title>Azure load balancer.352</title>
				<g id="group152-209" transform="translate(0.364216,-0.323748)">
					<title>Sheet.152</title>
					<g id="shape153-210">
						<title>Sheet.153</title>
						<path d="M19.75 196.05 L11.49 187.8 C11.13 187.44 10.68 187.23 10.16 187.23 C9.67 187.23 9.19 187.44 8.82
									 187.8 L0.57 196.05 C0.2 196.42 0 196.86 0 197.39 C0 197.88 0.2 198.36 0.57 198.73 L8.82 206.98
									 C9.19 207.35 9.63 207.55 10.16 207.55 C10.64 207.55 11.13 207.35 11.49 206.98 L19.75 198.73
									 C20.11 198.36 20.32 197.92 20.32 197.39 C20.27 196.86 20.07 196.38 19.75 196.05 ZM15.82 199.9
									 L15.82 198.04 L12.99 198.04 C12.71 199.01 11.94 199.78 10.97 200.06 L10.97 201.96 C11.37 202.25
									 11.98 202.89 11.98 203.58 C11.98 204.59 11.17 205.4 10.16 205.4 C9.15 205.4 8.34 204.59 8.34
									 203.58 C8.34 202.85 8.94 202.25 9.35 201.96 L9.35 200.1 C8.38 199.82 7.61 199.05 7.32 198.08
									 L4.49 198.08 L4.49 199.98 L1.82 197.31 L4.49 194.64 L4.49 196.5 L7.32 196.5 C7.61 195.53 8.38
									 194.76 9.35 194.48 L9.35 191.77 L7.49 191.77 L10.16 189.09 L12.83 191.77 L10.97 191.77 L10.97
									 194.48 C11.94 194.76 12.71 195.53 12.99 196.5 L15.82 196.5 L15.82 194.6 L18.49 197.27 L15.82
									 199.9 Z" class="st20"/>
					</g>
					<g id="shape154-212" transform="translate(8.01276,-8.17463)">
						<title>Sheet.154</title>
						<path d="M2.14 203.26 C0.97 203.26 0 204.23 0 205.4 C0 206.58 0.97 207.55 2.14 207.55 C3.32 207.55 4.29 206.58
									 4.29 205.4 C4.29 204.23 3.32 203.26 2.14 203.26 Z" class="st20"/>
					</g>
				</g>
			</g>
			<g id="shape155-214" transform="translate(100.679,-155.309)">
				<title>ExpressRoute</title>
				<path d="M22.48 201.84 C22.06 201.84 21.65 201.94 21.29 202.11 L15.25 196.07 C15.42 195.7 15.51 195.3 15.51 194.87
							 C15.51 193.31 14.24 192.04 12.68 192.04 C11.11 192.04 9.84 193.31 9.84 194.87 C9.84 195.3 9.94 195.71
							 10.11 196.07 L4.04 202.14 C3.67 201.97 3.27 201.87 2.84 201.87 C1.27 201.87 0 203.14 0 204.71 C-0 206.28
							 1.27 207.55 2.84 207.55 C4.06 207.55 5.1 206.78 5.5 205.69 L19.83 205.69 C20.24 206.76 21.27 207.52
							 22.48 207.52 C24.05 207.52 25.32 206.25 25.32 204.68 C25.32 203.11 24.05 201.84 22.48 201.84 ZM2.84
							 205.64 C2.32 205.64 1.91 205.22 1.91 204.71 C1.91 204.2 2.32 203.78 2.84 203.78 C3.35 203.78 3.77 204.2
							 3.77 204.71 C3.77 205.22 3.35 205.64 2.84 205.64 ZM12.68 193.94 C13.19 193.94 13.6 194.36 13.6 194.87
							 C13.6 195.39 13.19 195.8 12.68 195.8 C12.16 195.8 11.75 195.39 11.75 194.87 C11.75 194.36 12.16 193.94
							 12.68 193.94 ZM19.81 203.74 L5.5 203.74 C5.48 203.67 5.45 203.59 5.41 203.52 L11.49 197.45 C11.85 197.61
							 12.25 197.71 12.68 197.71 C13.1 197.71 13.5 197.61 13.87 197.45 L19.91 203.49 C19.87 203.57 19.84 203.66
							 19.81 203.74 ZM22.48 205.61 C21.97 205.61 21.55 205.19 21.55 204.68 C21.55 204.17 21.97 203.75 22.48
							 203.75 C23 203.75 23.41 204.17 23.41 204.68 C23.41 205.19 23 205.61 22.48 205.61 Z" class="st8"/>
			</g>
			<g id="shape158-216" transform="translate(159.226,-137.321)">
				<title>Gateway</title>
				<path d="M13.87 179.8 C6.21 179.8 0 186.01 0 193.67 C-0 201.34 6.21 207.55 13.87 207.55 C21.54 207.55 27.75 201.34
							 27.75 193.67 C27.75 186.01 21.54 179.8 13.87 179.8 ZM12.61 186.1 L12.61 181.69 L15.14 181.69 L15.14
							 186.1 L16.4 186.1 L13.87 191.2 L11.35 186.1 L12.61 186.1 ZM6.94 196.2 L1.84 193.67 L6.94 191.15 L6.94
							 192.41 L11.35 192.41 L11.35 194.93 L6.94 194.93 L6.94 196.2 ZM15.14 200.61 L15.14 205.03 L12.61 205.03
							 L12.61 200.61 L11.35 200.61 L13.87 195.51 L16.4 200.61 L15.14 200.61 ZM20.81 196.2 L20.81 194.93 L16.4
							 194.93 L16.4 192.41 L20.81 192.41 L20.81 191.15 L25.91 193.67 L20.81 196.2 Z" class="st22"/>
			</g>
			<g id="group159-218" transform="translate(319.5,-136.142)">
				<title>Sheet.159</title>
				<g id="shape160-219" transform="translate(0,-0.173634)">
					<title>Sheet.160</title>
					<path d="M0 207.55 L58.5 207.55 L58.5 170.51 L0 170.51 L0 207.55 Z" class="st6"/>
				</g>
				<g id="group162-221" transform="translate(32.2752,-12.0152)">
					<title>Virtual machine (opaque).857</title>
					<g id="shape163-222">
						<title>Sheet.163</title>
						<path d="M20.54 188.21 L0.95 188.21 C0.43 188.21 0 188.69 0 189.28 L0 206.48 C0 207.07 0.43 207.55 0.95 207.55
									 L20.54 207.55 C21.07 207.55 21.49 207.07 21.49 206.48 L21.49 189.28 C21.49 188.69 21.07 188.21
									 20.54 188.21 Z" class="st23"/>
					</g>
					<g id="group164-224">
						<title>Sheet.164</title>
						<g id="shape165-225" transform="translate(7.03553,-8.67988)">
							<title>Sheet.165</title>
							<path d="M0 207.55 L8.12 207.55 L8.12 201.43 L0 201.43 L0 207.55 ZM5.84 205.76 L4.32 206.75 L4.32 204.78
										 L5.84 203.79 L5.84 205.76 ZM4.18 202.52 L5.7 203.51 L4.19 204.5 L2.66 203.51 L4.18 202.52
										 ZM2.51 203.78 L4.04 204.77 L4.04 206.75 L2.51 205.76 L2.51 203.78 Z" class="st24"/>
						</g>
						<g id="shape166-227">
							<title>Sheet.166</title>
							<path d="M20.54 188.21 L0.95 188.21 C0.43 188.21 0 188.69 0 189.28 L0 206.48 C0 207.07 0.43 207.55 0.95
										 207.55 L20.54 207.55 C21.07 207.55 21.49 207.07 21.49 206.48 L21.49 189.28 C21.49 188.69
										 21.07 188.21 20.54 188.21 ZM10.67 204.22 L10.08 206.22 C10.07 206.24 10.06 206.25 10.06
										 206.27 C10.05 206.28 10.03 206.29 10.02 206.29 C10 206.3 9.97 206.3 9.94 206.31 C9.91 206.31
										 9.87 206.31 9.82 206.31 C9.77 206.31 9.74 206.31 9.71 206.31 C9.68 206.31 9.65 206.31 9.63
										 206.3 C9.61 206.3 9.6 206.3 9.58 206.29 C9.57 206.29 9.56 206.28 9.55 206.28 C9.54 206.27
										 9.54 206.26 9.53 206.25 C9.53 206.24 9.52 206.23 9.52 206.21 L8.92 204.22 C8.91 204.17 8.9
										 204.14 8.9 204.12 C8.9 204.09 8.9 204.07 8.91 204.06 C8.93 204.05 8.95 204.04 8.98 204.04
										 C9.01 204.04 9.05 204.03 9.11 204.03 C9.16 204.03 9.19 204.04 9.22 204.04 C9.25 204.04 9.27
										 204.04 9.28 204.05 C9.3 204.06 9.31 204.06 9.31 204.08 C9.32 204.09 9.32 204.1 9.33 204.12
										 L9.82 205.86 L9.82 205.86 L10.3 204.13 C10.3 204.11 10.31 204.09 10.31 204.08 C10.32 204.07
										 10.33 204.06 10.34 204.05 C10.36 204.05 10.38 204.04 10.41 204.04 C10.44 204.04 10.47 204.04
										 10.52 204.04 C10.57 204.04 10.61 204.04 10.63 204.04 C10.66 204.04 10.68 204.05 10.69 204.07
										 C10.7 204.08 10.7 204.1 10.7 204.12 C10.69 204.15 10.69 204.18 10.67 204.22 ZM13.29 206.24
										 C13.29 206.25 13.29 206.26 13.28 206.27 C13.27 206.28 13.26 206.28 13.25 206.29 C13.23 206.3
										 13.21 206.3 13.19 206.3 C13.16 206.31 13.13 206.31 13.1 206.31 C13.06 206.31 13.03 206.31
										 13 206.3 C12.98 206.3 12.96 206.3 12.94 206.29 C12.93 206.28 12.92 206.28 12.91 206.27 C12.91
										 206.26 12.9 206.25 12.9 206.24 L12.9 204.4 L12.9 204.4 L12.32 206.23 C12.32 206.25 12.31
										 206.26 12.3 206.27 C12.29 206.28 12.28 206.29 12.26 206.3 C12.25 206.3 12.22 206.3 12.2
										 206.31 C12.18 206.31 12.15 206.31 12.11 206.31 C12.08 206.31 12.05 206.31 12.02 206.3 C12
										 206.3 11.97 206.3 11.96 206.29 C11.94 206.28 11.93 206.28 11.92 206.27 C11.91 206.26 11.91
										 206.25 11.9 206.23 L11.34 204.4 L11.34 204.4 L11.34 206.24 C11.34 206.25 11.34 206.26 11.33
										 206.27 C11.33 206.28 11.31 206.28 11.3 206.29 C11.28 206.3 11.26 206.3 11.24 206.3 C11.21
										 206.31 11.18 206.31 11.15 206.31 C11.11 206.31 11.08 206.31 11.05 206.3 C11.03 206.3 11.01
										 206.3 10.99 206.29 C10.98 206.28 10.97 206.28 10.96 206.27 C10.96 206.26 10.95 206.25 10.95
										 206.24 L10.95 204.23 C10.95 204.17 10.97 204.12 10.99 204.09 C11.02 204.06 11.06 204.05
										 11.11 204.05 L11.37 204.05 C11.42 204.05 11.46 204.05 11.49 204.06 C11.53 204.07 11.56 204.08
										 11.58 204.1 C11.61 204.12 11.63 204.15 11.65 204.18 C11.66 204.22 11.68 204.26 11.69 204.31
										 L12.12 205.65 L12.13 205.65 L12.58 204.31 C12.59 204.26 12.61 204.22 12.62 204.19 C12.64
										 204.15 12.66 204.12 12.68 204.1 C12.7 204.08 12.72 204.07 12.75 204.06 C12.78 204.05 12.81
										 204.05 12.85 204.05 L13.13 204.05 C13.15 204.05 13.18 204.05 13.2 204.06 C13.22 204.07 13.24
										 204.08 13.25 204.09 C13.26 204.11 13.27 204.13 13.28 204.15 C13.28 204.17 13.29 204.2 13.29
										 204.23 L13.29 206.24 L13.29 206.24 ZM15.81 199.03 C15.81 199.35 15.58 199.61 15.3 199.61
										 L12.35 199.61 C12.06 200.91 12.2 201.07 14.19 201.07 L14.19 201.6 L11.87 201.6 L10.17 201.6
										 L8 201.6 L8 201.07 C9.79 201.07 10.08 200.91 9.8 199.61 L6.89 199.61 C6.6 199.61 6.37 199.35
										 6.37 199.03 L6.37 192.59 C6.37 192.27 6.6 192 6.89 192 L15.3 192 C15.58 192 15.81 192.27
										 15.81 192.59 L15.81 199.03 L15.81 199.03 Z" class="st24"/>
						</g>
					</g>
				</g>
				<g id="group167-229" transform="translate(5.7805,-12.0152)">
					<title>Virtual machine (opaque).919</title>
					<g id="shape168-230">
						<title>Sheet.168</title>
						<path d="M20.54 188.21 L0.95 188.21 C0.43 188.21 0 188.69 0 189.28 L0 206.48 C0 207.07 0.43 207.55 0.95 207.55
									 L20.54 207.55 C21.07 207.55 21.49 207.07 21.49 206.48 L21.49 189.28 C21.49 188.69 21.07 188.21
									 20.54 188.21 Z" class="st23"/>
					</g>
					<g id="group169-232">
						<title>Sheet.169</title>
						<g id="shape170-233" transform="translate(7.03553,-8.67988)">
							<title>Sheet.170</title>
							<path d="M0 207.55 L8.12 207.55 L8.12 201.43 L0 201.43 L0 207.55 ZM5.84 205.76 L4.32 206.75 L4.32 204.78
										 L5.84 203.79 L5.84 205.76 ZM4.18 202.52 L5.7 203.51 L4.19 204.5 L2.66 203.51 L4.18 202.52
										 ZM2.51 203.78 L4.04 204.77 L4.04 206.75 L2.51 205.76 L2.51 203.78 Z" class="st24"/>
						</g>
						<g id="shape171-235">
							<title>Sheet.171</title>
							<path d="M20.54 188.21 L0.95 188.21 C0.43 188.21 0 188.69 0 189.28 L0 206.48 C0 207.07 0.43 207.55 0.95
										 207.55 L20.54 207.55 C21.07 207.55 21.49 207.07 21.49 206.48 L21.49 189.28 C21.49 188.69
										 21.07 188.21 20.54 188.21 ZM10.67 204.22 L10.08 206.22 C10.07 206.24 10.06 206.25 10.06
										 206.27 C10.05 206.28 10.03 206.29 10.02 206.29 C10 206.3 9.97 206.3 9.94 206.31 C9.91 206.31
										 9.87 206.31 9.82 206.31 C9.77 206.31 9.74 206.31 9.71 206.31 C9.68 206.31 9.65 206.31 9.63
										 206.3 C9.61 206.3 9.6 206.3 9.58 206.29 C9.57 206.29 9.56 206.28 9.55 206.28 C9.54 206.27
										 9.54 206.26 9.53 206.25 C9.53 206.24 9.52 206.23 9.52 206.21 L8.92 204.22 C8.91 204.17 8.9
										 204.14 8.9 204.12 C8.9 204.09 8.9 204.07 8.91 204.06 C8.93 204.05 8.95 204.04 8.98 204.04
										 C9.01 204.04 9.05 204.03 9.11 204.03 C9.16 204.03 9.19 204.04 9.22 204.04 C9.25 204.04 9.27
										 204.04 9.28 204.05 C9.3 204.06 9.31 204.06 9.31 204.08 C9.32 204.09 9.32 204.1 9.33 204.12
										 L9.82 205.86 L9.82 205.86 L10.3 204.13 C10.3 204.11 10.31 204.09 10.31 204.08 C10.32 204.07
										 10.33 204.06 10.34 204.05 C10.36 204.05 10.38 204.04 10.41 204.04 C10.44 204.04 10.47 204.04
										 10.52 204.04 C10.57 204.04 10.61 204.04 10.63 204.04 C10.66 204.04 10.68 204.05 10.69 204.07
										 C10.7 204.08 10.7 204.1 10.7 204.12 C10.69 204.15 10.69 204.18 10.67 204.22 ZM13.29 206.24
										 C13.29 206.25 13.29 206.26 13.28 206.27 C13.27 206.28 13.26 206.28 13.25 206.29 C13.23 206.3
										 13.21 206.3 13.19 206.3 C13.16 206.31 13.13 206.31 13.1 206.31 C13.06 206.31 13.03 206.31
										 13 206.3 C12.98 206.3 12.96 206.3 12.94 206.29 C12.93 206.28 12.92 206.28 12.91 206.27 C12.91
										 206.26 12.9 206.25 12.9 206.24 L12.9 204.4 L12.9 204.4 L12.32 206.23 C12.32 206.25 12.31
										 206.26 12.3 206.27 C12.29 206.28 12.28 206.29 12.26 206.3 C12.25 206.3 12.22 206.3 12.2
										 206.31 C12.18 206.31 12.15 206.31 12.11 206.31 C12.08 206.31 12.05 206.31 12.02 206.3 C12
										 206.3 11.97 206.3 11.96 206.29 C11.94 206.28 11.93 206.28 11.92 206.27 C11.91 206.26 11.91
										 206.25 11.9 206.23 L11.34 204.4 L11.34 204.4 L11.34 206.24 C11.34 206.25 11.34 206.26 11.33
										 206.27 C11.33 206.28 11.31 206.28 11.3 206.29 C11.28 206.3 11.26 206.3 11.24 206.3 C11.21
										 206.31 11.18 206.31 11.15 206.31 C11.11 206.31 11.08 206.31 11.05 206.3 C11.03 206.3 11.01
										 206.3 10.99 206.29 C10.98 206.28 10.97 206.28 10.96 206.27 C10.96 206.26 10.95 206.25 10.95
										 206.24 L10.95 204.23 C10.95 204.17 10.97 204.12 10.99 204.09 C11.02 204.06 11.06 204.05
										 11.11 204.05 L11.37 204.05 C11.42 204.05 11.46 204.05 11.49 204.06 C11.53 204.07 11.56 204.08
										 11.58 204.1 C11.61 204.12 11.63 204.15 11.65 204.18 C11.66 204.22 11.68 204.26 11.69 204.31
										 L12.12 205.65 L12.13 205.65 L12.58 204.31 C12.59 204.26 12.61 204.22 12.62 204.19 C12.64
										 204.15 12.66 204.12 12.68 204.1 C12.7 204.08 12.72 204.07 12.75 204.06 C12.78 204.05 12.81
										 204.05 12.85 204.05 L13.13 204.05 C13.15 204.05 13.18 204.05 13.2 204.06 C13.22 204.07 13.24
										 204.08 13.25 204.09 C13.26 204.11 13.27 204.13 13.28 204.15 C13.28 204.17 13.29 204.2 13.29
										 204.23 L13.29 206.24 L13.29 206.24 ZM15.81 199.03 C15.81 199.35 15.58 199.61 15.3 199.61
										 L12.35 199.61 C12.06 200.91 12.2 201.07 14.19 201.07 L14.19 201.6 L11.87 201.6 L10.17 201.6
										 L8 201.6 L8 201.07 C9.79 201.07 10.08 200.91 9.8 199.61 L6.89 199.61 C6.6 199.61 6.37 199.35
										 6.37 199.03 L6.37 192.59 C6.37 192.27 6.6 192 6.89 192 L15.3 192 C15.58 192 15.81 192.27
										 15.81 192.59 L15.81 199.03 L15.81 199.03 Z" class="st24"/>
						</g>
					</g>
				</g>
			</g>
			<g id="group172-237" transform="translate(436.5,-120.878)">
				<title>Sheet.172</title>
				<g id="shape173-238">
					<title>Sheet.173</title>
					<rect x="0" y="194.048" width="18" height="13.5" class="st2"/>
				</g>
				<g id="group174-240" transform="translate(0.337483,-2.05688)">
					<title>Virtual Network</title>
					<g id="shape175-241" transform="translate(12.0617,2.84217E-14)">
						<title>Sheet.175</title>
						<path d="M5.26 202.85 L4.21 201.8 L0.57 198.16 L0 198.78 L4.08 202.85 L0 206.93 L0.57 207.55 L4.21 203.91
									 L5.26 202.85 Z" class="st3"/>
					</g>
					<g id="shape176-243">
						<title>Sheet.176</title>
						<path d="M0 202.85 L1.05 201.8 L4.69 198.16 L5.26 198.78 L1.18 202.85 L5.26 206.93 L4.69 207.55 L1.05 203.91
									 L0 202.85 Z" class="st3"/>
					</g>
					<g id="shape177-245" transform="translate(4.4738,-3.64044)">
						<title>Sheet.177</title>
						<path d="M2.11 206.5 C2.11 207.07 1.62 207.55 1.05 207.55 C0.44 207.55 0 207.07 0 206.5 C0 205.93 0.48 205.44
									 1.05 205.44 C1.62 205.44 2.11 205.88 2.11 206.5 Z" class="st3"/>
					</g>
					<g id="shape178-247" transform="translate(7.63177,-3.64044)">
						<title>Sheet.178</title>
						<ellipse cx="1.05266" cy="206.495" rx="1.05266" ry="1.05266" class="st3"/>
					</g>
					<g id="shape179-249" transform="translate(10.7897,-3.64044)">
						<title>Sheet.179</title>
						<ellipse cx="1.05266" cy="206.495" rx="1.05266" ry="1.05266" class="st3"/>
					</g>
				</g>
			</g>
			<g id="shape180-251" transform="translate(91.8632,113.701) rotate(-90)">
				<title>Sheet.180</title>
				<path d="M8.52 207.55 L8.88 207.55 L23.88 207.55" class="st25"/>
			</g>
			<g id="shape182-260" transform="translate(77.787,-151.43) rotate(0.164715)">
				<title>Sheet.182</title>
				<path d="M0 207.55 L81.72 207.55" class="st27"/>
			</g>
			<g id="group184-263" transform="translate(237.751,-141.608)">
				<title>Virtual machine (opaque).919</title>
				<g id="shape185-264">
					<title>Sheet.185</title>
					<path d="M20.54 188.21 L0.95 188.21 C0.43 188.21 0 188.69 0 189.28 L0 206.48 C0 207.07 0.43 207.55 0.95 207.55
								 L20.54 207.55 C21.07 207.55 21.49 207.07 21.49 206.48 L21.49 189.28 C21.49 188.69 21.07 188.21 20.54
								 188.21 Z" class="st23"/>
				</g>
				<g id="group186-266">
					<title>Sheet.186</title>
					<g id="shape187-267" transform="translate(7.03553,-8.67988)">
						<title>Sheet.187</title>
						<path d="M0 207.55 L8.12 207.55 L8.12 201.43 L0 201.43 L0 207.55 ZM5.84 205.76 L4.32 206.75 L4.32 204.78
									 L5.84 203.79 L5.84 205.76 ZM4.18 202.52 L5.7 203.51 L4.19 204.5 L2.66 203.51 L4.18 202.52 ZM2.51
									 203.78 L4.04 204.77 L4.04 206.75 L2.51 205.76 L2.51 203.78 Z" class="st24"/>
					</g>
					<g id="shape188-269">
						<title>Sheet.188</title>
						<path d="M20.54 188.21 L0.95 188.21 C0.43 188.21 0 188.69 0 189.28 L0 206.48 C0 207.07 0.43 207.55 0.95 207.55
									 L20.54 207.55 C21.07 207.55 21.49 207.07 21.49 206.48 L21.49 189.28 C21.49 188.69 21.07 188.21
									 20.54 188.21 ZM10.67 204.22 L10.08 206.22 C10.07 206.24 10.06 206.25 10.06 206.27 C10.05 206.28
									 10.03 206.29 10.02 206.29 C10 206.3 9.97 206.3 9.94 206.31 C9.91 206.31 9.87 206.31 9.82 206.31
									 C9.77 206.31 9.74 206.31 9.71 206.31 C9.68 206.31 9.65 206.31 9.63 206.3 C9.61 206.3 9.6 206.3
									 9.58 206.29 C9.57 206.29 9.56 206.28 9.55 206.28 C9.54 206.27 9.54 206.26 9.53 206.25 C9.53
									 206.24 9.52 206.23 9.52 206.21 L8.92 204.22 C8.91 204.17 8.9 204.14 8.9 204.12 C8.9 204.09 8.9
									 204.07 8.91 204.06 C8.93 204.05 8.95 204.04 8.98 204.04 C9.01 204.04 9.05 204.03 9.11 204.03
									 C9.16 204.03 9.19 204.04 9.22 204.04 C9.25 204.04 9.27 204.04 9.28 204.05 C9.3 204.06 9.31 204.06
									 9.31 204.08 C9.32 204.09 9.32 204.1 9.33 204.12 L9.82 205.86 L9.82 205.86 L10.3 204.13 C10.3
									 204.11 10.31 204.09 10.31 204.08 C10.32 204.07 10.33 204.06 10.34 204.05 C10.36 204.05 10.38
									 204.04 10.41 204.04 C10.44 204.04 10.47 204.04 10.52 204.04 C10.57 204.04 10.61 204.04 10.63
									 204.04 C10.66 204.04 10.68 204.05 10.69 204.07 C10.7 204.08 10.7 204.1 10.7 204.12 C10.69 204.15
									 10.69 204.18 10.67 204.22 ZM13.29 206.24 C13.29 206.25 13.29 206.26 13.28 206.27 C13.27 206.28
									 13.26 206.28 13.25 206.29 C13.23 206.3 13.21 206.3 13.19 206.3 C13.16 206.31 13.13 206.31 13.1
									 206.31 C13.06 206.31 13.03 206.31 13 206.3 C12.98 206.3 12.96 206.3 12.94 206.29 C12.93 206.28
									 12.92 206.28 12.91 206.27 C12.91 206.26 12.9 206.25 12.9 206.24 L12.9 204.4 L12.9 204.4 L12.32
									 206.23 C12.32 206.25 12.31 206.26 12.3 206.27 C12.29 206.28 12.28 206.29 12.26 206.3 C12.25
									 206.3 12.22 206.3 12.2 206.31 C12.18 206.31 12.15 206.31 12.11 206.31 C12.08 206.31 12.05 206.31
									 12.02 206.3 C12 206.3 11.97 206.3 11.96 206.29 C11.94 206.28 11.93 206.28 11.92 206.27 C11.91
									 206.26 11.91 206.25 11.9 206.23 L11.34 204.4 L11.34 204.4 L11.34 206.24 C11.34 206.25 11.34
									 206.26 11.33 206.27 C11.33 206.28 11.31 206.28 11.3 206.29 C11.28 206.3 11.26 206.3 11.24 206.3
									 C11.21 206.31 11.18 206.31 11.15 206.31 C11.11 206.31 11.08 206.31 11.05 206.3 C11.03 206.3
									 11.01 206.3 10.99 206.29 C10.98 206.28 10.97 206.28 10.96 206.27 C10.96 206.26 10.95 206.25
									 10.95 206.24 L10.95 204.23 C10.95 204.17 10.97 204.12 10.99 204.09 C11.02 204.06 11.06 204.05
									 11.11 204.05 L11.37 204.05 C11.42 204.05 11.46 204.05 11.49 204.06 C11.53 204.07 11.56 204.08
									 11.58 204.1 C11.61 204.12 11.63 204.15 11.65 204.18 C11.66 204.22 11.68 204.26 11.69 204.31
									 L12.12 205.65 L12.13 205.65 L12.58 204.31 C12.59 204.26 12.61 204.22 12.62 204.19 C12.64 204.15
									 12.66 204.12 12.68 204.1 C12.7 204.08 12.72 204.07 12.75 204.06 C12.78 204.05 12.81 204.05 12.85
									 204.05 L13.13 204.05 C13.15 204.05 13.18 204.05 13.2 204.06 C13.22 204.07 13.24 204.08 13.25
									 204.09 C13.26 204.11 13.27 204.13 13.28 204.15 C13.28 204.17 13.29 204.2 13.29 204.23 L13.29
									 206.24 L13.29 206.24 ZM15.81 199.03 C15.81 199.35 15.58 199.61 15.3 199.61 L12.35 199.61 C12.06
									 200.91 12.2 201.07 14.19 201.07 L14.19 201.6 L11.87 201.6 L10.17 201.6 L8 201.6 L8 201.07 C9.79
									 201.07 10.08 200.91 9.8 199.61 L6.89 199.61 C6.6 199.61 6.37 199.35 6.37 199.03 L6.37 192.59
									 C6.37 192.27 6.6 192 6.89 192 L15.3 192 C15.58 192 15.81 192.27 15.81 192.59 L15.81 199.03 L15.81
									 199.03 Z" class="st24"/>
					</g>
				</g>
			</g>
			<g id="group189-271" transform="translate(333,-57.4852)">
				<title>Sheet.189</title>
				<g id="group190-272" transform="translate(2.83233,-0.642911)">
					<title>Sheet.190</title>
					<g id="shape191-273">
						<title>Lock, protected.1135</title>
						<path d="M13.14 196.55 L12.22 196.55 L12.22 194.84 C12.22 191.24 9.93 189.39 7.25 189.39 L6.81 189.39 C4.09
									 189.39 1.85 191.19 1.85 194.84 L1.85 196.55 L0.92 196.55 C0.54 196.55 0 197.08 0 197.47 L0 206.62
									 C0 207.01 0.54 207.55 0.92 207.55 L13.14 207.55 C13.53 207.55 14.07 207.01 14.07 206.62 L14.07
									 197.47 C14.07 197.08 13.53 196.55 13.14 196.55 ZM7.74 201.95 L7.74 205.75 L6.38 205.75 L6.38
									 201.95 C5.84 201.71 5.45 201.17 5.45 200.54 C5.45 199.66 6.18 198.93 7.06 198.93 C7.93 198.93
									 8.66 199.66 8.66 200.54 C8.62 201.12 8.27 201.66 7.74 201.95 ZM10.51 196.55 L3.55 196.55 L3.55
									 194.84 C3.55 192.56 4.77 191 6.81 191 L7.25 191 C9.35 191 10.51 192.56 10.51 194.84 L10.51 196.55
									 Z" class="st11"/>
					</g>
					<g id="shape192-275" transform="translate(2.09445,-0.35798)">
						<title>Sheet.192</title>
						<rect x="0" y="198.028" width="9.87812" height="9.52014" class="st12"/>
					</g>
				</g>
				<g id="shape193-277">
					<title>Sheet.193</title>
					<desc>NSG</desc>
					<rect x="0" y="195.941" width="19.7317" height="11.6069" class="st13"/>
					<text x="3.97" y="203.54" class="st14">NSG</text>				</g>
			</g>
			<g id="group194-280" transform="translate(430.043,-57.4852)">
				<title>Sheet.194</title>
				<g id="group195-281" transform="translate(2.83233,-0.642911)">
					<title>Sheet.195</title>
					<g id="shape196-282">
						<title>Lock, protected.1135</title>
						<path d="M13.14 196.55 L12.22 196.55 L12.22 194.84 C12.22 191.24 9.93 189.39 7.25 189.39 L6.81 189.39 C4.09
									 189.39 1.85 191.19 1.85 194.84 L1.85 196.55 L0.92 196.55 C0.54 196.55 0 197.08 0 197.47 L0 206.62
									 C0 207.01 0.54 207.55 0.92 207.55 L13.14 207.55 C13.53 207.55 14.07 207.01 14.07 206.62 L14.07
									 197.47 C14.07 197.08 13.53 196.55 13.14 196.55 ZM7.74 201.95 L7.74 205.75 L6.38 205.75 L6.38
									 201.95 C5.84 201.71 5.45 201.17 5.45 200.54 C5.45 199.66 6.18 198.93 7.06 198.93 C7.93 198.93
									 8.66 199.66 8.66 200.54 C8.62 201.12 8.27 201.66 7.74 201.95 ZM10.51 196.55 L3.55 196.55 L3.55
									 194.84 C3.55 192.56 4.77 191 6.81 191 L7.25 191 C9.35 191 10.51 192.56 10.51 194.84 L10.51 196.55
									 Z" class="st11"/>
					</g>
					<g id="shape197-284" transform="translate(2.09445,-0.35798)">
						<title>Sheet.197</title>
						<rect x="0" y="198.028" width="9.87812" height="9.52014" class="st12"/>
					</g>
				</g>
				<g id="shape198-286">
					<title>Sheet.198</title>
					<desc>NSG</desc>
					<rect x="0" y="195.941" width="19.7317" height="11.6069" class="st13"/>
					<text x="3.97" y="203.54" class="st14">NSG</text>				</g>
			</g>
		</g>
	</g>
</svg>
