<?xml version="1.0" encoding="UTF-8" standalone="no"?>
<!DOCTYPE svg PUBLIC "-//W3C//DTD SVG 1.1//EN" "http://www.w3.org/Graphics/SVG/1.1/DTD/svg11.dtd">
<!-- Generated by Microsoft Visio, SVG Export sap-netweaver.svg Page-4 -->
<svg xmlns="http://www.w3.org/2000/svg" xmlns:xlink="http://www.w3.org/1999/xlink" xmlns:ev="http://www.w3.org/2001/xml-events"
		width="11in" height="8.5in" viewBox="0 0 792 612" xml:space="preserve" color-interpolation-filters="sRGB" class="st28">
	<style type="text/css">
	<![CDATA[
		.st1 {fill:none;stroke:#0078d7;stroke-dasharray:0,6.75;stroke-linecap:round;stroke-linejoin:round;stroke-width:2.25}
		.st2 {fill:#ffffff;stroke:none;stroke-linecap:round;stroke-linejoin:round;stroke-width:0.75}
		.st3 {fill:#0078d7;stroke:none;stroke-linecap:butt;stroke-width:0.6375}
		.st4 {fill:#f2f2f2;stroke:#bfbfbf;stroke-linecap:round;stroke-linejoin:round;stroke-width:0.75}
		.st5 {stroke:#0070c0;stroke-linecap:round;stroke-linejoin:round;stroke-width:1.5}
		.st6 {fill:none;stroke:#7f7f7f;stroke-dasharray:2.25,2.25;stroke-linecap:round;stroke-linejoin:round;stroke-width:0.75}
		.st7 {fill:#feffff;stroke:#395ea3;stroke-linecap:butt;stroke-width:1.25}
		.st8 {fill:#0078d7;stroke:none;stroke-linecap:butt;stroke-width:1.25}
		.st9 {stroke:#0078d7;stroke-linecap:round;stroke-linejoin:round;stroke-width:1.5}
		.st10 {stroke:#0078d7;stroke-linecap:round;stroke-linejoin:round;stroke-width:1}
		.st11 {fill:#0078d7;stroke:none;stroke-width:0.25}
		.st12 {fill:#0078d7;stroke:none;stroke-linecap:round;stroke-linejoin:round;stroke-width:0.75}
		.st13 {fill:none;stroke:none;stroke-linecap:round;stroke-linejoin:round;stroke-width:0.75}
		.st14 {fill:#ffffff;font-family:Segoe UI;font-size:0.499992em}
		.st15 {fill:#00188f;stroke:none;stroke-width:0.25}
		.st16 {fill:#ffffff;stroke:none;stroke-width:0.25}
		.st17 {fill:#00188f;stroke:none;stroke-width:1.5}
		.st18 {fill:#ffffff;stroke:none;stroke-width:1.5}
		.st19 {stroke:#4672c4;stroke-linecap:round;stroke-linejoin:round;stroke-width:1}
		.st20 {fill:#4672c4;stroke:none;stroke-width:0.25}
		.st21 {fill:#f2f2f2;stroke:#bfbfbf;stroke-linecap:round;stroke-linejoin:round;stroke-width:1}
		.st22 {fill:#002060;stroke:none;stroke-linecap:butt;stroke-width:1.25}
		.st23 {fill:#ffffff;stroke:#ffffff;stroke-linecap:butt;stroke-width:1.5}
		.st24 {fill:#0078d7;stroke:none;stroke-linecap:butt;stroke-width:0.75}
		.st25 {marker-end:url(#mrkr4-258);marker-start:url(#mrkr4-256);stroke:#5b9bd5;stroke-width:3}
		.st26 {fill:#5b9bd5;fill-opacity:1;stroke:#5b9bd5;stroke-opacity:1;stroke-width:0.67567567567568}
		.st27 {stroke:#0070c0;stroke-linecap:round;stroke-linejoin:round;stroke-width:2.25}
		.st28 {fill:none;fill-rule:evenodd;font-size:12px;overflow:visible;stroke-linecap:square;stroke-miterlimit:3}
	]]>
	</style>

	<defs id="Markers">
		<g id="lend4">
			<path d="M 2 1 L 0 0 L 2 -1 L 2 1 " style="stroke:none"/>
		</g>
		<marker id="mrkr4-256" class="st26" refX="2.84" orient="auto" markerUnits="strokeWidth" overflow="visible">
			<use xlink:href="#lend4" transform="scale(1.48) "/>
		</marker>
		<marker id="mrkr4-258" class="st26" refX="-2.96" orient="auto" markerUnits="strokeWidth" overflow="visible">
			<use xlink:href="#lend4" transform="scale(-1.48,-1.48) "/>
		</marker>
	</defs>
	<g>
		<title>Page-4</title>
		<g id="shape2-1" transform="translate(294.039,-365.062)">
			<title>Virtual Network Box</title>
			<path d="M0 612 L325.27 612 L325.27 525.49 L0 525.49 L0 612 Z" class="st1"/>
		</g>
		<g id="group3-3" transform="translate(594,-358.372)">
			<title>Sheet.3</title>
			<g id="shape4-4">
				<title>Sheet.4</title>
				<rect x="0" y="599.743" width="18" height="12.2566" class="st2"/>
			</g>
			<g id="group5-6" transform="translate(0.337483,-1.86743)">
				<title>Virtual Network</title>
				<g id="shape6-7" transform="translate(12.0617,0)">
					<title>Sheet.6</title>
					<path d="M5.26 607.74 L4.21 606.78 L0.57 603.48 L0 604.04 L4.08 607.74 L0 611.44 L0.57 612 L4.21 608.69 L5.26
								 607.74 Z" class="st3"/>
				</g>
				<g id="shape7-9">
					<title>Sheet.7</title>
					<path d="M0 607.74 L1.05 606.78 L4.69 603.48 L5.26 604.04 L1.18 607.74 L5.26 611.44 L4.69 612 L1.05 608.69 L0
								 607.74 Z" class="st3"/>
				</g>
				<g id="shape8-11" transform="translate(4.4738,-3.30514)">
					<title>Sheet.8</title>
					<path d="M2.11 611.04 C2.11 611.56 1.62 612 1.05 612 C0.44 612 0 611.56 0 611.04 C0 610.53 0.48 610.09 1.05 610.09
								 C1.62 610.09 2.11 610.49 2.11 611.04 Z" class="st3"/>
				</g>
				<g id="shape9-13" transform="translate(7.63177,-3.30514)">
					<title>Sheet.9</title>
					<ellipse cx="1.05266" cy="611.044" rx="1.05266" ry="0.955703" class="st3"/>
				</g>
				<g id="shape10-15" transform="translate(10.7897,-3.30514)">
					<title>Sheet.10</title>
					<ellipse cx="1.05266" cy="611.044" rx="1.05266" ry="0.955703" class="st3"/>
				</g>
			</g>
		</g>
		<g id="shape11-17" transform="translate(294.275,-486)">
			<title>Virtual Network Box.295</title>
			<path d="M0 612 L325.27 612 L325.27 552.37 L0 552.37 L0 612 Z" class="st1"/>
		</g>
		<g id="shape12-19" transform="translate(532.8,-372.378)">
			<title>Sheet.12</title>
			<rect x="0" y="539.742" width="79.2" height="72.2575" class="st4"/>
		</g>
		<g id="shape13-21" transform="translate(378.814,-490.056)">
			<title>Sheet.13</title>
			<rect x="0" y="563.625" width="72" height="48.375" class="st4"/>
		</g>
		<g id="shape14-23" transform="translate(470.25,-490.056)">
			<title>Sheet.14</title>
			<rect x="0" y="563.625" width="92.25" height="48.375" class="st4"/>
		</g>
		<g id="shape15-25" transform="translate(299.327,-372.358)">
			<title>Sheet.15</title>
			<rect x="0" y="539.742" width="213.673" height="72.2575" class="st4"/>
		</g>
		<g id="shape16-27" transform="translate(302.904,-490.056)">
			<title>Sheet.16</title>
			<rect x="0" y="563.625" width="57.6" height="48.375" class="st4"/>
		</g>
		<g id="shape18-29" transform="translate(343.807,-509.567) rotate(-0.0921682)">
			<title>Sheet.18</title>
			<path d="M0 612 L49.35 612" class="st5"/>
		</g>
		<g id="group19-32" transform="translate(493.508,-497.014)">
			<title>Sheet.19</title>
		</g>
		<g id="group20-33" transform="translate(369.077,-371.246)">
			<title>Sheet.20</title>
			<g id="shape22-34" transform="translate(0,-8.44124)">
				<title>Sheet.22</title>
				<path d="M0 612 L54 612 L54 582.87 L0 582.87 L0 612 Z" class="st6"/>
			</g>
			<g id="group23-36" transform="translate(2.77639,-14.4028)">
				<title>Virtual machine (opaque).576</title>
				<g id="shape24-37">
					<title>Sheet.24</title>
					<path d="M20.5 594.84 L0.95 594.84 C0.43 594.84 0 595.27 0 595.79 L0 611.05 C0 611.58 0.43 612 0.95 612 L20.5
								 612 C21.03 612 21.45 611.58 21.45 611.05 L21.45 595.79 C21.45 595.27 21.03 594.84 20.5 594.84 Z"
							class="st7"/>
				</g>
				<g id="group25-39">
					<title>Sheet.25</title>
					<g id="shape26-40" transform="translate(7.02175,-7.70248)">
						<title>Sheet.26</title>
						<path d="M0 612 L8.1 612 L8.1 606.57 L0 606.57 L0 612 ZM5.83 610.42 L4.31 611.3 L4.31 609.54 L5.83 608.66
									 L5.83 610.42 ZM4.17 607.53 L5.69 608.42 L4.18 609.29 L2.65 608.41 L4.17 607.53 ZM2.51 608.65
									 L4.03 609.53 L4.03 611.29 L2.51 610.42 L2.51 608.65 Z" class="st8"/>
					</g>
					<g id="shape27-42">
						<title>Sheet.27</title>
						<path d="M20.5 594.84 L0.95 594.84 C0.43 594.84 0 595.27 0 595.79 L0 611.05 C0 611.58 0.43 612 0.95 612 L20.5
									 612 C21.03 612 21.45 611.58 21.45 611.05 L21.45 595.79 C21.45 595.27 21.03 594.84 20.5 594.84
									 ZM10.65 609.05 L10.06 610.82 C10.05 610.84 10.04 610.85 10.04 610.86 C10.03 610.87 10.01 610.88
									 10 610.89 C9.98 610.89 9.95 610.9 9.92 610.9 C9.89 610.9 9.85 610.9 9.8 610.9 C9.75 610.9 9.72
									 610.9 9.69 610.9 C9.66 610.9 9.64 610.9 9.62 610.9 C9.59 610.89 9.58 610.89 9.56 610.89 C9.55
									 610.88 9.54 610.88 9.53 610.87 C9.52 610.86 9.52 610.86 9.51 610.85 C9.51 610.84 9.5 610.83
									 9.5 610.82 L8.9 609.04 C8.89 609.01 8.88 608.98 8.88 608.96 C8.88 608.93 8.88 608.92 8.9 608.91
									 C8.91 608.9 8.93 608.89 8.96 608.89 C8.99 608.88 9.04 608.88 9.09 608.88 C9.14 608.88 9.18 608.88
									 9.2 608.89 C9.23 608.89 9.25 608.89 9.27 608.9 C9.28 608.9 9.29 608.91 9.3 608.92 C9.3 608.93
									 9.31 608.94 9.31 608.96 L9.8 610.5 L9.8 610.5 L10.28 608.97 C10.28 608.95 10.29 608.93 10.29
									 608.92 C10.3 608.91 10.31 608.9 10.32 608.9 C10.34 608.89 10.36 608.89 10.39 608.89 C10.42 608.88
									 10.45 608.88 10.5 608.88 C10.55 608.88 10.59 608.88 10.61 608.89 C10.64 608.89 10.66 608.9 10.67
									 608.91 C10.68 608.92 10.68 608.94 10.68 608.96 C10.67 608.98 10.67 609.01 10.65 609.05 ZM13.26
									 610.84 C13.26 610.85 13.26 610.86 13.25 610.86 C13.25 610.87 13.24 610.88 13.22 610.88 C13.21
									 610.89 13.19 610.89 13.16 610.9 C13.14 610.9 13.11 610.9 13.07 610.9 C13.03 610.9 13 610.9 12.98
									 610.9 C12.95 610.89 12.93 610.89 12.92 610.88 C12.9 610.88 12.89 610.87 12.89 610.86 C12.88
									 610.85 12.88 610.85 12.88 610.84 L12.88 609.21 L12.88 609.21 L12.3 610.83 C12.29 610.85 12.28
									 610.86 12.28 610.87 C12.27 610.88 12.25 610.88 12.24 610.89 C12.22 610.89 12.2 610.9 12.18 610.9
									 C12.15 610.9 12.12 610.9 12.09 610.9 C12.05 610.9 12.02 610.9 12 610.9 C11.97 610.89 11.95 610.89
									 11.94 610.88 C11.92 610.88 11.91 610.87 11.9 610.86 C11.89 610.85 11.88 610.85 11.88 610.83
									 L11.32 609.21 L11.32 609.21 L11.32 610.84 C11.32 610.85 11.31 610.86 11.31 610.86 C11.3 610.87
									 11.29 610.88 11.28 610.88 C11.26 610.89 11.24 610.89 11.22 610.9 C11.19 610.9 11.16 610.9 11.12
									 610.9 C11.09 610.9 11.06 610.9 11.03 610.9 C11.01 610.89 10.99 610.89 10.97 610.88 C10.96 610.88
									 10.95 610.87 10.94 610.86 C10.93 610.85 10.93 610.85 10.93 610.84 L10.93 609.05 C10.93 609 10.95
									 608.96 10.97 608.93 C11 608.91 11.04 608.89 11.08 608.89 L11.35 608.89 C11.4 608.89 11.44 608.9
									 11.47 608.9 C11.51 608.91 11.54 608.92 11.56 608.94 C11.59 608.96 11.61 608.98 11.62 609.01
									 C11.64 609.04 11.65 609.08 11.67 609.12 L12.1 610.31 L12.1 610.31 L12.55 609.13 C12.57 609.08
									 12.58 609.05 12.6 609.02 C12.61 608.99 12.63 608.96 12.65 608.94 C12.67 608.92 12.7 608.91 12.73
									 608.9 C12.76 608.9 12.79 608.89 12.83 608.89 L13.1 608.89 C13.13 608.89 13.15 608.9 13.17 608.9
									 C13.19 608.91 13.21 608.92 13.22 608.93 C13.24 608.95 13.24 608.97 13.25 608.99 C13.26 609.01
									 13.26 609.03 13.26 609.05 L13.26 610.84 L13.26 610.84 ZM15.78 604.44 C15.78 604.73 15.55 604.96
									 15.27 604.96 L12.33 604.96 C12.04 606.11 12.17 606.25 14.16 606.25 L14.16 606.72 L11.84 606.72
									 L10.15 606.72 L7.98 606.72 L7.98 606.25 C9.77 606.25 10.06 606.11 9.78 604.96 L6.88 604.96 C6.59
									 604.96 6.36 604.73 6.36 604.44 L6.36 598.72 C6.36 598.44 6.59 598.2 6.88 598.2 L15.27 598.2
									 C15.55 598.2 15.78 598.44 15.78 598.72 L15.78 604.44 L15.78 604.44 Z" class="st8"/>
					</g>
				</g>
			</g>
			<g id="group28-44" transform="translate(29.7764,-14.9406)">
				<title>Virtual machine (opaque).668</title>
				<g id="shape29-45">
					<title>Sheet.29</title>
					<path d="M20.5 594.84 L0.95 594.84 C0.43 594.84 0 595.27 0 595.79 L0 611.05 C0 611.58 0.43 612 0.95 612 L20.5
								 612 C21.03 612 21.45 611.58 21.45 611.05 L21.45 595.79 C21.45 595.27 21.03 594.84 20.5 594.84 Z"
							class="st7"/>
				</g>
				<g id="group30-47">
					<title>Sheet.30</title>
					<g id="shape31-48" transform="translate(7.02175,-7.70248)">
						<title>Sheet.31</title>
						<path d="M0 612 L8.1 612 L8.1 606.57 L0 606.57 L0 612 ZM5.83 610.42 L4.31 611.3 L4.31 609.54 L5.83 608.66
									 L5.83 610.42 ZM4.17 607.53 L5.69 608.42 L4.18 609.29 L2.65 608.41 L4.17 607.53 ZM2.51 608.65
									 L4.03 609.53 L4.03 611.29 L2.51 610.42 L2.51 608.65 Z" class="st8"/>
					</g>
					<g id="shape32-50">
						<title>Sheet.32</title>
						<path d="M20.5 594.84 L0.95 594.84 C0.43 594.84 0 595.27 0 595.79 L0 611.05 C0 611.58 0.43 612 0.95 612 L20.5
									 612 C21.03 612 21.45 611.58 21.45 611.05 L21.45 595.79 C21.45 595.27 21.03 594.84 20.5 594.84
									 ZM10.65 609.05 L10.06 610.82 C10.05 610.84 10.04 610.85 10.04 610.86 C10.03 610.87 10.01 610.88
									 10 610.89 C9.98 610.89 9.95 610.9 9.92 610.9 C9.89 610.9 9.85 610.9 9.8 610.9 C9.75 610.9 9.72
									 610.9 9.69 610.9 C9.66 610.9 9.64 610.9 9.62 610.9 C9.59 610.89 9.58 610.89 9.56 610.89 C9.55
									 610.88 9.54 610.88 9.53 610.87 C9.52 610.86 9.52 610.86 9.51 610.85 C9.51 610.84 9.5 610.83
									 9.5 610.82 L8.9 609.04 C8.89 609.01 8.88 608.98 8.88 608.96 C8.88 608.93 8.88 608.92 8.9 608.91
									 C8.91 608.9 8.93 608.89 8.96 608.89 C8.99 608.88 9.04 608.88 9.09 608.88 C9.14 608.88 9.18 608.88
									 9.2 608.89 C9.23 608.89 9.25 608.89 9.27 608.9 C9.28 608.9 9.29 608.91 9.3 608.92 C9.3 608.93
									 9.31 608.94 9.31 608.96 L9.8 610.5 L9.8 610.5 L10.28 608.97 C10.28 608.95 10.29 608.93 10.29
									 608.92 C10.3 608.91 10.31 608.9 10.32 608.9 C10.34 608.89 10.36 608.89 10.39 608.89 C10.42 608.88
									 10.45 608.88 10.5 608.88 C10.55 608.88 10.59 608.88 10.61 608.89 C10.64 608.89 10.66 608.9 10.67
									 608.91 C10.68 608.92 10.68 608.94 10.68 608.96 C10.67 608.98 10.67 609.01 10.65 609.05 ZM13.26
									 610.84 C13.26 610.85 13.26 610.86 13.25 610.86 C13.25 610.87 13.24 610.88 13.22 610.88 C13.21
									 610.89 13.19 610.89 13.16 610.9 C13.14 610.9 13.11 610.9 13.07 610.9 C13.03 610.9 13 610.9 12.98
									 610.9 C12.95 610.89 12.93 610.89 12.92 610.88 C12.9 610.88 12.89 610.87 12.89 610.86 C12.88
									 610.85 12.88 610.85 12.88 610.84 L12.88 609.21 L12.88 609.21 L12.3 610.83 C12.29 610.85 12.28
									 610.86 12.28 610.87 C12.27 610.88 12.25 610.88 12.24 610.89 C12.22 610.89 12.2 610.9 12.18 610.9
									 C12.15 610.9 12.12 610.9 12.09 610.9 C12.05 610.9 12.02 610.9 12 610.9 C11.97 610.89 11.95 610.89
									 11.94 610.88 C11.92 610.88 11.91 610.87 11.9 610.86 C11.89 610.85 11.88 610.85 11.88 610.83
									 L11.32 609.21 L11.32 609.21 L11.32 610.84 C11.32 610.85 11.31 610.86 11.31 610.86 C11.3 610.87
									 11.29 610.88 11.28 610.88 C11.26 610.89 11.24 610.89 11.22 610.9 C11.19 610.9 11.16 610.9 11.12
									 610.9 C11.09 610.9 11.06 610.9 11.03 610.9 C11.01 610.89 10.99 610.89 10.97 610.88 C10.96 610.88
									 10.95 610.87 10.94 610.86 C10.93 610.85 10.93 610.85 10.93 610.84 L10.93 609.05 C10.93 609 10.95
									 608.96 10.97 608.93 C11 608.91 11.04 608.89 11.08 608.89 L11.35 608.89 C11.4 608.89 11.44 608.9
									 11.47 608.9 C11.51 608.91 11.54 608.92 11.56 608.94 C11.59 608.96 11.61 608.98 11.62 609.01
									 C11.64 609.04 11.65 609.08 11.67 609.12 L12.1 610.31 L12.1 610.31 L12.55 609.13 C12.57 609.08
									 12.58 609.05 12.6 609.02 C12.61 608.99 12.63 608.96 12.65 608.94 C12.67 608.92 12.7 608.91 12.73
									 608.9 C12.76 608.9 12.79 608.89 12.83 608.89 L13.1 608.89 C13.13 608.89 13.15 608.9 13.17 608.9
									 C13.19 608.91 13.21 608.92 13.22 608.93 C13.24 608.95 13.24 608.97 13.25 608.99 C13.26 609.01
									 13.26 609.03 13.26 609.05 L13.26 610.84 L13.26 610.84 ZM15.78 604.44 C15.78 604.73 15.55 604.96
									 15.27 604.96 L12.33 604.96 C12.04 606.11 12.17 606.25 14.16 606.25 L14.16 606.72 L11.84 606.72
									 L10.15 606.72 L7.98 606.72 L7.98 606.25 C9.77 606.25 10.06 606.11 9.78 604.96 L6.88 604.96 C6.59
									 604.96 6.36 604.73 6.36 604.44 L6.36 598.72 C6.36 598.44 6.59 598.2 6.88 598.2 L15.27 598.2
									 C15.55 598.2 15.78 598.44 15.78 598.72 L15.78 604.44 L15.78 604.44 Z" class="st8"/>
					</g>
				</g>
			</g>
			<g id="shape33-52" transform="translate(639.125,544.311) rotate(90)">
				<title>Sheet.33</title>
				<path d="M0 612 L44.74 612" class="st9"/>
			</g>
			<g id="shape34-55" transform="translate(27.125,-22.769)">
				<title>Sheet.34</title>
			</g>
		</g>
		<g id="shape36-56" transform="translate(433.933,-379.687)">
			<title>Sheet.36</title>
			<path d="M0 612 L54 612 L54 582.87 L0 582.87 L0 612 Z" class="st6"/>
		</g>
		<g id="group37-58" transform="translate(436.709,-386.187)">
			<title>Virtual machine (opaque).576</title>
			<g id="shape38-59">
				<title>Sheet.38</title>
				<path d="M20.5 594.84 L0.95 594.84 C0.43 594.84 0 595.27 0 595.79 L0 611.05 C0 611.58 0.43 612 0.95 612 L20.5 612
							 C21.03 612 21.45 611.58 21.45 611.05 L21.45 595.79 C21.45 595.27 21.03 594.84 20.5 594.84 Z"
						class="st7"/>
			</g>
			<g id="group39-61">
				<title>Sheet.39</title>
				<g id="shape40-62" transform="translate(7.02175,-7.70248)">
					<title>Sheet.40</title>
					<path d="M0 612 L8.1 612 L8.1 606.57 L0 606.57 L0 612 ZM5.83 610.42 L4.31 611.3 L4.31 609.54 L5.83 608.66 L5.83
								 610.42 ZM4.17 607.53 L5.69 608.42 L4.18 609.29 L2.65 608.41 L4.17 607.53 ZM2.51 608.65 L4.03 609.53
								 L4.03 611.29 L2.51 610.42 L2.51 608.65 Z" class="st8"/>
				</g>
				<g id="shape41-64">
					<title>Sheet.41</title>
					<path d="M20.5 594.84 L0.95 594.84 C0.43 594.84 0 595.27 0 595.79 L0 611.05 C0 611.58 0.43 612 0.95 612 L20.5
								 612 C21.03 612 21.45 611.58 21.45 611.05 L21.45 595.79 C21.45 595.27 21.03 594.84 20.5 594.84 ZM10.65
								 609.05 L10.06 610.82 C10.05 610.84 10.04 610.85 10.04 610.86 C10.03 610.87 10.01 610.88 10 610.89
								 C9.98 610.89 9.95 610.9 9.92 610.9 C9.89 610.9 9.85 610.9 9.8 610.9 C9.75 610.9 9.72 610.9 9.69
								 610.9 C9.66 610.9 9.64 610.9 9.62 610.9 C9.59 610.89 9.58 610.89 9.56 610.89 C9.55 610.88 9.54 610.88
								 9.53 610.87 C9.52 610.86 9.52 610.86 9.51 610.85 C9.51 610.84 9.5 610.83 9.5 610.82 L8.9 609.04
								 C8.89 609.01 8.88 608.98 8.88 608.96 C8.88 608.93 8.88 608.92 8.9 608.91 C8.91 608.9 8.93 608.89
								 8.96 608.89 C8.99 608.88 9.04 608.88 9.09 608.88 C9.14 608.88 9.18 608.88 9.2 608.89 C9.23 608.89
								 9.25 608.89 9.27 608.9 C9.28 608.9 9.29 608.91 9.3 608.92 C9.3 608.93 9.31 608.94 9.31 608.96 L9.8
								 610.5 L9.8 610.5 L10.28 608.97 C10.28 608.95 10.29 608.93 10.29 608.92 C10.3 608.91 10.31 608.9
								 10.32 608.9 C10.34 608.89 10.36 608.89 10.39 608.89 C10.42 608.88 10.45 608.88 10.5 608.88 C10.55
								 608.88 10.59 608.88 10.61 608.89 C10.64 608.89 10.66 608.9 10.67 608.91 C10.68 608.92 10.68 608.94
								 10.68 608.96 C10.67 608.98 10.67 609.01 10.65 609.05 ZM13.26 610.84 C13.26 610.85 13.26 610.86 13.25
								 610.86 C13.25 610.87 13.24 610.88 13.22 610.88 C13.21 610.89 13.19 610.89 13.16 610.9 C13.14 610.9
								 13.11 610.9 13.07 610.9 C13.03 610.9 13 610.9 12.98 610.9 C12.95 610.89 12.93 610.89 12.92 610.88
								 C12.9 610.88 12.89 610.87 12.89 610.86 C12.88 610.85 12.88 610.85 12.88 610.84 L12.88 609.21 L12.88
								 609.21 L12.3 610.83 C12.29 610.85 12.28 610.86 12.28 610.87 C12.27 610.88 12.25 610.88 12.24 610.89
								 C12.22 610.89 12.2 610.9 12.18 610.9 C12.15 610.9 12.12 610.9 12.09 610.9 C12.05 610.9 12.02 610.9
								 12 610.9 C11.97 610.89 11.95 610.89 11.94 610.88 C11.92 610.88 11.91 610.87 11.9 610.86 C11.89 610.85
								 11.88 610.85 11.88 610.83 L11.32 609.21 L11.32 609.21 L11.32 610.84 C11.32 610.85 11.31 610.86 11.31
								 610.86 C11.3 610.87 11.29 610.88 11.28 610.88 C11.26 610.89 11.24 610.89 11.22 610.9 C11.19 610.9
								 11.16 610.9 11.12 610.9 C11.09 610.9 11.06 610.9 11.03 610.9 C11.01 610.89 10.99 610.89 10.97 610.88
								 C10.96 610.88 10.95 610.87 10.94 610.86 C10.93 610.85 10.93 610.85 10.93 610.84 L10.93 609.05 C10.93
								 609 10.95 608.96 10.97 608.93 C11 608.91 11.04 608.89 11.08 608.89 L11.35 608.89 C11.4 608.89 11.44
								 608.9 11.47 608.9 C11.51 608.91 11.54 608.92 11.56 608.94 C11.59 608.96 11.61 608.98 11.62 609.01
								 C11.64 609.04 11.65 609.08 11.67 609.12 L12.1 610.31 L12.1 610.31 L12.55 609.13 C12.57 609.08 12.58
								 609.05 12.6 609.02 C12.61 608.99 12.63 608.96 12.65 608.94 C12.67 608.92 12.7 608.91 12.73 608.9
								 C12.76 608.9 12.79 608.89 12.83 608.89 L13.1 608.89 C13.13 608.89 13.15 608.9 13.17 608.9 C13.19
								 608.91 13.21 608.92 13.22 608.93 C13.24 608.95 13.24 608.97 13.25 608.99 C13.26 609.01 13.26 609.03
								 13.26 609.05 L13.26 610.84 L13.26 610.84 ZM15.78 604.44 C15.78 604.73 15.55 604.96 15.27 604.96
								 L12.33 604.96 C12.04 606.11 12.17 606.25 14.16 606.25 L14.16 606.72 L11.84 606.72 L10.15 606.72
								 L7.98 606.72 L7.98 606.25 C9.77 606.25 10.06 606.11 9.78 604.96 L6.88 604.96 C6.59 604.96 6.36 604.73
								 6.36 604.44 L6.36 598.72 C6.36 598.44 6.59 598.2 6.88 598.2 L15.27 598.2 C15.55 598.2 15.78 598.44
								 15.78 598.72 L15.78 604.44 L15.78 604.44 Z" class="st8"/>
				</g>
			</g>
		</g>
		<g id="group42-66" transform="translate(463.709,-386.187)">
			<title>Virtual machine (opaque).668</title>
			<g id="shape43-67">
				<title>Sheet.43</title>
				<path d="M20.5 594.84 L0.95 594.84 C0.43 594.84 0 595.27 0 595.79 L0 611.05 C0 611.58 0.43 612 0.95 612 L20.5 612
							 C21.03 612 21.45 611.58 21.45 611.05 L21.45 595.79 C21.45 595.27 21.03 594.84 20.5 594.84 Z"
						class="st7"/>
			</g>
			<g id="group44-69">
				<title>Sheet.44</title>
				<g id="shape45-70" transform="translate(7.02175,-7.70248)">
					<title>Sheet.45</title>
					<path d="M0 612 L8.1 612 L8.1 606.57 L0 606.57 L0 612 ZM5.83 610.42 L4.31 611.3 L4.31 609.54 L5.83 608.66 L5.83
								 610.42 ZM4.17 607.53 L5.69 608.42 L4.18 609.29 L2.65 608.41 L4.17 607.53 ZM2.51 608.65 L4.03 609.53
								 L4.03 611.29 L2.51 610.42 L2.51 608.65 Z" class="st8"/>
				</g>
				<g id="shape46-72">
					<title>Sheet.46</title>
					<path d="M20.5 594.84 L0.95 594.84 C0.43 594.84 0 595.27 0 595.79 L0 611.05 C0 611.58 0.43 612 0.95 612 L20.5
								 612 C21.03 612 21.45 611.58 21.45 611.05 L21.45 595.79 C21.45 595.27 21.03 594.84 20.5 594.84 ZM10.65
								 609.05 L10.06 610.82 C10.05 610.84 10.04 610.85 10.04 610.86 C10.03 610.87 10.01 610.88 10 610.89
								 C9.98 610.89 9.95 610.9 9.92 610.9 C9.89 610.9 9.85 610.9 9.8 610.9 C9.75 610.9 9.72 610.9 9.69
								 610.9 C9.66 610.9 9.64 610.9 9.62 610.9 C9.59 610.89 9.58 610.89 9.56 610.89 C9.55 610.88 9.54 610.88
								 9.53 610.87 C9.52 610.86 9.52 610.86 9.51 610.85 C9.51 610.84 9.5 610.83 9.5 610.82 L8.9 609.04
								 C8.89 609.01 8.88 608.98 8.88 608.96 C8.88 608.93 8.88 608.92 8.9 608.91 C8.91 608.9 8.93 608.89
								 8.96 608.89 C8.99 608.88 9.04 608.88 9.09 608.88 C9.14 608.88 9.18 608.88 9.2 608.89 C9.23 608.89
								 9.25 608.89 9.27 608.9 C9.28 608.9 9.29 608.91 9.3 608.92 C9.3 608.93 9.31 608.94 9.31 608.96 L9.8
								 610.5 L9.8 610.5 L10.28 608.97 C10.28 608.95 10.29 608.93 10.29 608.92 C10.3 608.91 10.31 608.9
								 10.32 608.9 C10.34 608.89 10.36 608.89 10.39 608.89 C10.42 608.88 10.45 608.88 10.5 608.88 C10.55
								 608.88 10.59 608.88 10.61 608.89 C10.64 608.89 10.66 608.9 10.67 608.91 C10.68 608.92 10.68 608.94
								 10.68 608.96 C10.67 608.98 10.67 609.01 10.65 609.05 ZM13.26 610.84 C13.26 610.85 13.26 610.86 13.25
								 610.86 C13.25 610.87 13.24 610.88 13.22 610.88 C13.21 610.89 13.19 610.89 13.16 610.9 C13.14 610.9
								 13.11 610.9 13.07 610.9 C13.03 610.9 13 610.9 12.98 610.9 C12.95 610.89 12.93 610.89 12.92 610.88
								 C12.9 610.88 12.89 610.87 12.89 610.86 C12.88 610.85 12.88 610.85 12.88 610.84 L12.88 609.21 L12.88
								 609.21 L12.3 610.83 C12.29 610.85 12.28 610.86 12.28 610.87 C12.27 610.88 12.25 610.88 12.24 610.89
								 C12.22 610.89 12.2 610.9 12.18 610.9 C12.15 610.9 12.12 610.9 12.09 610.9 C12.05 610.9 12.02 610.9
								 12 610.9 C11.97 610.89 11.95 610.89 11.94 610.88 C11.92 610.88 11.91 610.87 11.9 610.86 C11.89 610.85
								 11.88 610.85 11.88 610.83 L11.32 609.21 L11.32 609.21 L11.32 610.84 C11.32 610.85 11.31 610.86 11.31
								 610.86 C11.3 610.87 11.29 610.88 11.28 610.88 C11.26 610.89 11.24 610.89 11.22 610.9 C11.19 610.9
								 11.16 610.9 11.12 610.9 C11.09 610.9 11.06 610.9 11.03 610.9 C11.01 610.89 10.99 610.89 10.97 610.88
								 C10.96 610.88 10.95 610.87 10.94 610.86 C10.93 610.85 10.93 610.85 10.93 610.84 L10.93 609.05 C10.93
								 609 10.95 608.96 10.97 608.93 C11 608.91 11.04 608.89 11.08 608.89 L11.35 608.89 C11.4 608.89 11.44
								 608.9 11.47 608.9 C11.51 608.91 11.54 608.92 11.56 608.94 C11.59 608.96 11.61 608.98 11.62 609.01
								 C11.64 609.04 11.65 609.08 11.67 609.12 L12.1 610.31 L12.1 610.31 L12.55 609.13 C12.57 609.08 12.58
								 609.05 12.6 609.02 C12.61 608.99 12.63 608.96 12.65 608.94 C12.67 608.92 12.7 608.91 12.73 608.9
								 C12.76 608.9 12.79 608.89 12.83 608.89 L13.1 608.89 C13.13 608.89 13.15 608.9 13.17 608.9 C13.19
								 608.91 13.21 608.92 13.22 608.93 C13.24 608.95 13.24 608.97 13.25 608.99 C13.26 609.01 13.26 609.03
								 13.26 609.05 L13.26 610.84 L13.26 610.84 ZM15.78 604.44 C15.78 604.73 15.55 604.96 15.27 604.96
								 L12.33 604.96 C12.04 606.11 12.17 606.25 14.16 606.25 L14.16 606.72 L11.84 606.72 L10.15 606.72
								 L7.98 606.72 L7.98 606.25 C9.77 606.25 10.06 606.11 9.78 604.96 L6.88 604.96 C6.59 604.96 6.36 604.73
								 6.36 604.44 L6.36 598.72 C6.36 598.44 6.59 598.2 6.88 598.2 L15.27 598.2 C15.55 598.2 15.78 598.44
								 15.78 598.72 L15.78 604.44 L15.78 604.44 Z" class="st8"/>
				</g>
			</g>
		</g>
		<g id="shape47-74" transform="translate(468.506,-394.69) rotate(0.9)">
			<title>Sheet.47</title>
			<path d="M0 612 L3.71 612" class="st10"/>
		</g>
		<g id="shape48-77" transform="translate(330.601,-439.586)">
			<title>Sheet.48</title>
			<path d="M0 612 L241.47 612" class="st5"/>
		</g>
		<g id="group49-80" transform="translate(428.844,-517.293)">
			<title>Sheet.49</title>
			<g id="group50-81" transform="translate(2.83233,-0.642911)">
				<title>Sheet.50</title>
				<g id="shape51-82">
					<title>Lock, protected.1135</title>
					<path d="M13.14 601 L12.22 601 L12.22 599.3 C12.22 595.69 9.93 593.84 7.25 593.84 L6.81 593.84 C4.09 593.84 1.85
								 595.65 1.85 599.3 L1.85 601 L0.92 601 C0.54 601 0 601.53 0 601.92 L0 611.08 C0 611.46 0.54 612 0.92
								 612 L13.14 612 C13.53 612 14.07 611.46 14.07 611.08 L14.07 601.92 C14.07 601.53 13.53 601 13.14
								 601 ZM7.74 606.4 L7.74 610.2 L6.38 610.2 L6.38 606.4 C5.84 606.16 5.45 605.62 5.45 604.99 C5.45
								 604.11 6.18 603.38 7.06 603.38 C7.93 603.38 8.66 604.11 8.66 604.99 C8.62 605.57 8.27 606.11 7.74
								 606.4 ZM10.51 601 L3.55 601 L3.55 599.3 C3.55 597.01 4.77 595.45 6.81 595.45 L7.25 595.45 C9.35
								 595.45 10.51 597.01 10.51 599.3 L10.51 601 Z" class="st11"/>
				</g>
				<g id="shape52-84" transform="translate(2.09445,-0.35798)">
					<title>Sheet.52</title>
					<rect x="0" y="602.48" width="9.87812" height="9.52014" class="st12"/>
				</g>
			</g>
			<g id="shape53-86">
				<title>Sheet.53</title>
				<desc>NSG</desc>
				<rect x="0" y="600.393" width="19.7317" height="11.6069" class="st13"/>
				<text x="3.97" y="608" class="st14">NSG</text>			</g>
		</g>
		<g id="shape55-89" transform="translate(-39.927,179.164) rotate(-90)">
			<title>Sheet.55</title>
			<path d="M0 612 L6.75 612" class="st10"/>
		</g>
		<g id="shape57-92" transform="translate(544.948,-379.687)">
			<title>Sheet.57</title>
			<path d="M0 612 L54 612 L54 582.87 L0 582.87 L0 612 Z" class="st6"/>
		</g>
		<g id="shape58-94" transform="translate(1184.07,200.208) rotate(90)">
			<title>Sheet.58</title>
			<path d="M0 612 L15.12 612" class="st9"/>
		</g>
		<g id="shape59-97" transform="translate(569.617,-396.007)">
			<title>Sheet.59</title>
			<path d="M0 612 L5.76 612" class="st10"/>
		</g>
		<g id="group60-100" transform="translate(548.573,-387.525)">
			<title>Database Server VM</title>
			<g id="shape61-101">
				<title>Sheet.61</title>
				<path d="M20.99 596.43 C20.99 596.81 21.04 595.63 20.72 595.3 C20.56 595.14 20.35 595.04 20.18 595.04 C20.13 595.04
							 20.08 595.04 20.02 595.04 L0.91 595.04 C0.43 595.04 0 595.52 0 596.11 L0 610.93 C0 611.52 0.38 612 0.91
							 612 L20.08 612 C20.56 612 20.99 611.52 20.99 610.93 L20.99 596.43 Z" class="st15"/>
			</g>
			<g id="group62-103" transform="translate(5.64304,-2.04419)">
				<title>Database server.847</title>
				<g id="shape63-104" transform="translate(4.72138,0)">
					<title>Sheet.63</title>
					<path d="M2.52 606.39 C1.55 606.39 0.52 606.19 0 605.78 L0 610.86 C0 611.49 1.13 612 2.52 612 C3.91 612 5.04
								 611.49 5.04 610.86 L5.04 605.78 C4.51 606.19 3.49 606.39 2.52 606.39 Z" class="st16"/>
				</g>
				<g id="shape64-106" transform="translate(4.72138,-5.97506)">
					<title>Sheet.64</title>
					<path d="M5.04 611.1 C5.04 610.6 3.91 610.19 2.52 610.19 C1.13 610.19 0 610.6 0 611.1 C0 611.59 1.13 612 2.52
								 612 C3.91 612 5.04 611.59 5.04 611.1 Z" class="st16"/>
				</g>
				<g id="shape65-108" transform="translate(0,-0.000314759)">
					<title>Sheet.65</title>
					<path d="M4.09 608.85 L4.09 605.78 L4.09 605.21 L4.09 605.12 C4.09 604.28 5.1 603.8 6.3 603.65 L6.3 599.71 C6.3
								 599.37 6.01 599.09 5.67 599.09 L0.63 599.09 C0.28 599.09 0 599.37 0 599.71 L0 612 L4.78 612 C4.34
								 611.7 4.09 611.3 4.09 610.86 L4.09 610.74 L0.94 610.74 L0.94 610.11 L4.09 610.11 L4.09 609.48 L0.94
								 609.48 L0.94 608.85 L4.09 608.85 L4.09 608.85 ZM0.94 600.98 L5.35 600.98 L5.35 601.61 L0.94 601.61
								 L0.94 600.98 Z" class="st16"/>
				</g>
			</g>
		</g>
		<g id="group66-110" transform="translate(575.377,-387.525)">
			<title>Database Server VM.268</title>
			<g id="shape67-111">
				<title>Sheet.67</title>
				<path d="M20.99 596.43 C20.99 596.81 21.04 595.63 20.72 595.3 C20.56 595.14 20.35 595.04 20.18 595.04 C20.13 595.04
							 20.08 595.04 20.02 595.04 L0.91 595.04 C0.43 595.04 0 595.52 0 596.11 L0 610.93 C0 611.52 0.38 612 0.91
							 612 L20.08 612 C20.56 612 20.99 611.52 20.99 610.93 L20.99 596.43 Z" class="st17"/>
			</g>
			<g id="group68-113" transform="translate(5.64304,-2.04419)">
				<title>Database server.847</title>
				<g id="shape69-114" transform="translate(4.72138,0)">
					<title>Sheet.69</title>
					<path d="M2.52 606.39 C1.55 606.39 0.52 606.19 0 605.78 L0 610.86 C0 611.49 1.13 612 2.52 612 C3.91 612 5.04
								 611.49 5.04 610.86 L5.04 605.78 C4.51 606.19 3.49 606.39 2.52 606.39 Z" class="st18"/>
				</g>
				<g id="shape70-116" transform="translate(4.72138,-5.97506)">
					<title>Sheet.70</title>
					<path d="M5.04 611.1 C5.04 610.6 3.91 610.19 2.52 610.19 C1.13 610.19 0 610.6 0 611.1 C0 611.59 1.13 612 2.52
								 612 C3.91 612 5.04 611.59 5.04 611.1 Z" class="st18"/>
				</g>
				<g id="shape71-118" transform="translate(0,-0.000314759)">
					<title>Sheet.71</title>
					<path d="M4.09 608.85 L4.09 605.78 L4.09 605.21 L4.09 605.12 C4.09 604.28 5.1 603.8 6.3 603.65 L6.3 599.71 C6.3
								 599.37 6.01 599.09 5.67 599.09 L0.63 599.09 C0.28 599.09 0 599.37 0 599.71 L0 612 L4.78 612 C4.34
								 611.7 4.09 611.3 4.09 610.86 L4.09 610.74 L0.94 610.74 L0.94 610.11 L4.09 610.11 L4.09 609.48 L0.94
								 609.48 L0.94 608.85 L4.09 608.85 L4.09 608.85 ZM0.94 600.98 L5.35 600.98 L5.35 601.61 L0.94 601.61
								 L0.94 600.98 Z" class="st18"/>
				</g>
			</g>
		</g>
		<g id="shape72-120" transform="translate(403.65,-394.152) rotate(0.9)">
			<title>Sheet.72</title>
			<path d="M0 612 L3.71 612" class="st9"/>
		</g>
		<g id="shape73-123" transform="translate(1072.87,201.609) rotate(90)">
			<title>Sheet.73</title>
			<path d="M0 612 L15.66 612" class="st10"/>
		</g>
		<g id="shape74-126" transform="translate(-151.134,181.321) rotate(-90)">
			<title>Sheet.74</title>
			<path d="M0 612 L8.91 612" class="st19"/>
		</g>
		<g id="group75-129" transform="translate(561.551,-411.792)">
			<title>Azure load balancer.311</title>
			<g id="group76-130" transform="translate(0.364216,-0.323748)">
				<title>Sheet.76</title>
				<g id="shape77-131">
					<title>Sheet.77</title>
					<path d="M19.75 600.51 L11.49 592.25 C11.13 591.89 10.68 591.68 10.16 591.68 C9.67 591.68 9.19 591.89 8.82 592.25
								 L0.57 600.51 C0.2 600.87 0 601.32 0 601.84 C0 602.33 0.2 602.81 0.57 603.18 L8.82 611.43 C9.19 611.8
								 9.63 612 10.16 612 C10.64 612 11.13 611.8 11.49 611.43 L19.75 603.18 C20.11 602.81 20.32 602.37
								 20.32 601.84 C20.27 601.32 20.07 600.83 19.75 600.51 ZM15.82 604.35 L15.82 602.49 L12.99 602.49
								 C12.71 603.46 11.94 604.23 10.97 604.51 L10.97 606.42 C11.37 606.7 11.98 607.35 11.98 608.03 C11.98
								 609.05 11.17 609.86 10.16 609.86 C9.15 609.86 8.34 609.05 8.34 608.03 C8.34 607.31 8.94 606.7 9.35
								 606.42 L9.35 604.55 C8.38 604.27 7.61 603.5 7.32 602.53 L4.49 602.53 L4.49 604.43 L1.82 601.76 L4.49
								 599.09 L4.49 600.95 L7.32 600.95 C7.61 599.98 8.38 599.21 9.35 598.93 L9.35 596.22 L7.49 596.22
								 L10.16 593.55 L12.83 596.22 L10.97 596.22 L10.97 598.93 C11.94 599.21 12.71 599.98 12.99 600.95
								 L15.82 600.95 L15.82 599.05 L18.49 601.72 L15.82 604.35 Z" class="st20"/>
				</g>
				<g id="shape78-133" transform="translate(8.01276,-8.17463)">
					<title>Sheet.78</title>
					<path d="M2.14 607.71 C0.97 607.71 0 608.68 0 609.86 C0 611.03 0.97 612 2.14 612 C3.32 612 4.29 611.03 4.29 609.86
								 C4.29 608.68 3.32 607.71 2.14 607.71 Z" class="st20"/>
				</g>
			</g>
		</g>
		<g id="shape80-135" transform="translate(942.601,116.759) rotate(90)">
			<title>Sheet.80</title>
			<path d="M0 612 L63.71 612" class="st5"/>
		</g>
		<g id="shape83-138" transform="translate(303.194,-379.687)">
			<title>Sheet.83</title>
			<path d="M0 612 L54 612 L54 582.87 L0 582.87 L0 612 Z" class="st6"/>
		</g>
		<g id="group84-140" transform="translate(305.971,-386.187)">
			<title>Virtual machine (opaque).334</title>
			<g id="shape85-141">
				<title>Sheet.85</title>
				<path d="M20.5 594.84 L0.95 594.84 C0.43 594.84 0 595.27 0 595.79 L0 611.05 C0 611.58 0.43 612 0.95 612 L20.5 612
							 C21.03 612 21.45 611.58 21.45 611.05 L21.45 595.79 C21.45 595.27 21.03 594.84 20.5 594.84 Z"
						class="st7"/>
			</g>
			<g id="group86-143">
				<title>Sheet.86</title>
				<g id="shape87-144" transform="translate(7.02175,-7.70248)">
					<title>Sheet.87</title>
					<path d="M0 612 L8.1 612 L8.1 606.57 L0 606.57 L0 612 ZM5.83 610.42 L4.31 611.3 L4.31 609.54 L5.83 608.66 L5.83
								 610.42 ZM4.17 607.53 L5.69 608.42 L4.18 609.29 L2.65 608.41 L4.17 607.53 ZM2.51 608.65 L4.03 609.53
								 L4.03 611.29 L2.51 610.42 L2.51 608.65 Z" class="st8"/>
				</g>
				<g id="shape88-146">
					<title>Sheet.88</title>
					<path d="M20.5 594.84 L0.95 594.84 C0.43 594.84 0 595.27 0 595.79 L0 611.05 C0 611.58 0.43 612 0.95 612 L20.5
								 612 C21.03 612 21.45 611.58 21.45 611.05 L21.45 595.79 C21.45 595.27 21.03 594.84 20.5 594.84 ZM10.65
								 609.05 L10.06 610.82 C10.05 610.84 10.04 610.85 10.04 610.86 C10.03 610.87 10.01 610.88 10 610.89
								 C9.98 610.89 9.95 610.9 9.92 610.9 C9.89 610.9 9.85 610.9 9.8 610.9 C9.75 610.9 9.72 610.9 9.69
								 610.9 C9.66 610.9 9.64 610.9 9.62 610.9 C9.59 610.89 9.58 610.89 9.56 610.89 C9.55 610.88 9.54 610.88
								 9.53 610.87 C9.52 610.86 9.52 610.86 9.51 610.85 C9.51 610.84 9.5 610.83 9.5 610.82 L8.9 609.04
								 C8.89 609.01 8.88 608.98 8.88 608.96 C8.88 608.93 8.88 608.92 8.9 608.91 C8.91 608.9 8.93 608.89
								 8.96 608.89 C8.99 608.88 9.04 608.88 9.09 608.88 C9.14 608.88 9.18 608.88 9.2 608.89 C9.23 608.89
								 9.25 608.89 9.27 608.9 C9.28 608.9 9.29 608.91 9.3 608.92 C9.3 608.93 9.31 608.94 9.31 608.96 L9.8
								 610.5 L9.8 610.5 L10.28 608.97 C10.28 608.95 10.29 608.93 10.29 608.92 C10.3 608.91 10.31 608.9
								 10.32 608.9 C10.34 608.89 10.36 608.89 10.39 608.89 C10.42 608.88 10.45 608.88 10.5 608.88 C10.55
								 608.88 10.59 608.88 10.61 608.89 C10.64 608.89 10.66 608.9 10.67 608.91 C10.68 608.92 10.68 608.94
								 10.68 608.96 C10.67 608.98 10.67 609.01 10.65 609.05 ZM13.26 610.84 C13.26 610.85 13.26 610.86 13.25
								 610.86 C13.25 610.87 13.24 610.88 13.22 610.88 C13.21 610.89 13.19 610.89 13.16 610.9 C13.14 610.9
								 13.11 610.9 13.07 610.9 C13.03 610.9 13 610.9 12.98 610.9 C12.95 610.89 12.93 610.89 12.92 610.88
								 C12.9 610.88 12.89 610.87 12.89 610.86 C12.88 610.85 12.88 610.85 12.88 610.84 L12.88 609.21 L12.88
								 609.21 L12.3 610.83 C12.29 610.85 12.28 610.86 12.28 610.87 C12.27 610.88 12.25 610.88 12.24 610.89
								 C12.22 610.89 12.2 610.9 12.18 610.9 C12.15 610.9 12.12 610.9 12.09 610.9 C12.05 610.9 12.02 610.9
								 12 610.9 C11.97 610.89 11.95 610.89 11.94 610.88 C11.92 610.88 11.91 610.87 11.9 610.86 C11.89 610.85
								 11.88 610.85 11.88 610.83 L11.32 609.21 L11.32 609.21 L11.32 610.84 C11.32 610.85 11.31 610.86 11.31
								 610.86 C11.3 610.87 11.29 610.88 11.28 610.88 C11.26 610.89 11.24 610.89 11.22 610.9 C11.19 610.9
								 11.16 610.9 11.12 610.9 C11.09 610.9 11.06 610.9 11.03 610.9 C11.01 610.89 10.99 610.89 10.97 610.88
								 C10.96 610.88 10.95 610.87 10.94 610.86 C10.93 610.85 10.93 610.85 10.93 610.84 L10.93 609.05 C10.93
								 609 10.95 608.96 10.97 608.93 C11 608.91 11.04 608.89 11.08 608.89 L11.35 608.89 C11.4 608.89 11.44
								 608.9 11.47 608.9 C11.51 608.91 11.54 608.92 11.56 608.94 C11.59 608.96 11.61 608.98 11.62 609.01
								 C11.64 609.04 11.65 609.08 11.67 609.12 L12.1 610.31 L12.1 610.31 L12.55 609.13 C12.57 609.08 12.58
								 609.05 12.6 609.02 C12.61 608.99 12.63 608.96 12.65 608.94 C12.67 608.92 12.7 608.91 12.73 608.9
								 C12.76 608.9 12.79 608.89 12.83 608.89 L13.1 608.89 C13.13 608.89 13.15 608.9 13.17 608.9 C13.19
								 608.91 13.21 608.92 13.22 608.93 C13.24 608.95 13.24 608.97 13.25 608.99 C13.26 609.01 13.26 609.03
								 13.26 609.05 L13.26 610.84 L13.26 610.84 ZM15.78 604.44 C15.78 604.73 15.55 604.96 15.27 604.96
								 L12.33 604.96 C12.04 606.11 12.17 606.25 14.16 606.25 L14.16 606.72 L11.84 606.72 L10.15 606.72
								 L7.98 606.72 L7.98 606.25 C9.77 606.25 10.06 606.11 9.78 604.96 L6.88 604.96 C6.59 604.96 6.36 604.73
								 6.36 604.44 L6.36 598.72 C6.36 598.44 6.59 598.2 6.88 598.2 L15.27 598.2 C15.55 598.2 15.78 598.44
								 15.78 598.72 L15.78 604.44 L15.78 604.44 Z" class="st8"/>
				</g>
			</g>
		</g>
		<g id="group89-148" transform="translate(332.971,-386.187)">
			<title>Virtual machine (opaque).339</title>
			<g id="shape90-149">
				<title>Sheet.90</title>
				<path d="M20.5 594.84 L0.95 594.84 C0.43 594.84 0 595.27 0 595.79 L0 611.05 C0 611.58 0.43 612 0.95 612 L20.5 612
							 C21.03 612 21.45 611.58 21.45 611.05 L21.45 595.79 C21.45 595.27 21.03 594.84 20.5 594.84 Z"
						class="st7"/>
			</g>
			<g id="group91-151">
				<title>Sheet.91</title>
				<g id="shape92-152" transform="translate(7.02175,-7.70248)">
					<title>Sheet.92</title>
					<path d="M0 612 L8.1 612 L8.1 606.57 L0 606.57 L0 612 ZM5.83 610.42 L4.31 611.3 L4.31 609.54 L5.83 608.66 L5.83
								 610.42 ZM4.17 607.53 L5.69 608.42 L4.18 609.29 L2.65 608.41 L4.17 607.53 ZM2.51 608.65 L4.03 609.53
								 L4.03 611.29 L2.51 610.42 L2.51 608.65 Z" class="st8"/>
				</g>
				<g id="shape93-154">
					<title>Sheet.93</title>
					<path d="M20.5 594.84 L0.95 594.84 C0.43 594.84 0 595.27 0 595.79 L0 611.05 C0 611.58 0.43 612 0.95 612 L20.5
								 612 C21.03 612 21.45 611.58 21.45 611.05 L21.45 595.79 C21.45 595.27 21.03 594.84 20.5 594.84 ZM10.65
								 609.05 L10.06 610.82 C10.05 610.84 10.04 610.85 10.04 610.86 C10.03 610.87 10.01 610.88 10 610.89
								 C9.98 610.89 9.95 610.9 9.92 610.9 C9.89 610.9 9.85 610.9 9.8 610.9 C9.75 610.9 9.72 610.9 9.69
								 610.9 C9.66 610.9 9.64 610.9 9.62 610.9 C9.59 610.89 9.58 610.89 9.56 610.89 C9.55 610.88 9.54 610.88
								 9.53 610.87 C9.52 610.86 9.52 610.86 9.51 610.85 C9.51 610.84 9.5 610.83 9.5 610.82 L8.9 609.04
								 C8.89 609.01 8.88 608.98 8.88 608.96 C8.88 608.93 8.88 608.92 8.9 608.91 C8.91 608.9 8.93 608.89
								 8.96 608.89 C8.99 608.88 9.04 608.88 9.09 608.88 C9.14 608.88 9.18 608.88 9.2 608.89 C9.23 608.89
								 9.25 608.89 9.27 608.9 C9.28 608.9 9.29 608.91 9.3 608.92 C9.3 608.93 9.31 608.94 9.31 608.96 L9.8
								 610.5 L9.8 610.5 L10.28 608.97 C10.28 608.95 10.29 608.93 10.29 608.92 C10.3 608.91 10.31 608.9
								 10.32 608.9 C10.34 608.89 10.36 608.89 10.39 608.89 C10.42 608.88 10.45 608.88 10.5 608.88 C10.55
								 608.88 10.59 608.88 10.61 608.89 C10.64 608.89 10.66 608.9 10.67 608.91 C10.68 608.92 10.68 608.94
								 10.68 608.96 C10.67 608.98 10.67 609.01 10.65 609.05 ZM13.26 610.84 C13.26 610.85 13.26 610.86 13.25
								 610.86 C13.25 610.87 13.24 610.88 13.22 610.88 C13.21 610.89 13.19 610.89 13.16 610.9 C13.14 610.9
								 13.11 610.9 13.07 610.9 C13.03 610.9 13 610.9 12.98 610.9 C12.95 610.89 12.93 610.89 12.92 610.88
								 C12.9 610.88 12.89 610.87 12.89 610.86 C12.88 610.85 12.88 610.85 12.88 610.84 L12.88 609.21 L12.88
								 609.21 L12.3 610.83 C12.29 610.85 12.28 610.86 12.28 610.87 C12.27 610.88 12.25 610.88 12.24 610.89
								 C12.22 610.89 12.2 610.9 12.18 610.9 C12.15 610.9 12.12 610.9 12.09 610.9 C12.05 610.9 12.02 610.9
								 12 610.9 C11.97 610.89 11.95 610.89 11.94 610.88 C11.92 610.88 11.91 610.87 11.9 610.86 C11.89 610.85
								 11.88 610.85 11.88 610.83 L11.32 609.21 L11.32 609.21 L11.32 610.84 C11.32 610.85 11.31 610.86 11.31
								 610.86 C11.3 610.87 11.29 610.88 11.28 610.88 C11.26 610.89 11.24 610.89 11.22 610.9 C11.19 610.9
								 11.16 610.9 11.12 610.9 C11.09 610.9 11.06 610.9 11.03 610.9 C11.01 610.89 10.99 610.89 10.97 610.88
								 C10.96 610.88 10.95 610.87 10.94 610.86 C10.93 610.85 10.93 610.85 10.93 610.84 L10.93 609.05 C10.93
								 609 10.95 608.96 10.97 608.93 C11 608.91 11.04 608.89 11.08 608.89 L11.35 608.89 C11.4 608.89 11.44
								 608.9 11.47 608.9 C11.51 608.91 11.54 608.92 11.56 608.94 C11.59 608.96 11.61 608.98 11.62 609.01
								 C11.64 609.04 11.65 609.08 11.67 609.12 L12.1 610.31 L12.1 610.31 L12.55 609.13 C12.57 609.08 12.58
								 609.05 12.6 609.02 C12.61 608.99 12.63 608.96 12.65 608.94 C12.67 608.92 12.7 608.91 12.73 608.9
								 C12.76 608.9 12.79 608.89 12.83 608.89 L13.1 608.89 C13.13 608.89 13.15 608.9 13.17 608.9 C13.19
								 608.91 13.21 608.92 13.22 608.93 C13.24 608.95 13.24 608.97 13.25 608.99 C13.26 609.01 13.26 609.03
								 13.26 609.05 L13.26 610.84 L13.26 610.84 ZM15.78 604.44 C15.78 604.73 15.55 604.96 15.27 604.96
								 L12.33 604.96 C12.04 606.11 12.17 606.25 14.16 606.25 L14.16 606.72 L11.84 606.72 L10.15 606.72
								 L7.98 606.72 L7.98 606.25 C9.77 606.25 10.06 606.11 9.78 604.96 L6.88 604.96 C6.59 604.96 6.36 604.73
								 6.36 604.44 L6.36 598.72 C6.36 598.44 6.59 598.2 6.88 598.2 L15.27 598.2 C15.55 598.2 15.78 598.44
								 15.78 598.72 L15.78 604.44 L15.78 604.44 Z" class="st8"/>
				</g>
			</g>
		</g>
		<g id="group94-156" transform="translate(541.576,-517.382)">
			<title>Sheet.94</title>
			<g id="group95-157" transform="translate(2.83233,-0.642911)">
				<title>Sheet.95</title>
				<g id="shape96-158">
					<title>Lock, protected.1135</title>
					<path d="M13.14 601 L12.22 601 L12.22 599.3 C12.22 595.69 9.93 593.84 7.25 593.84 L6.81 593.84 C4.09 593.84 1.85
								 595.65 1.85 599.3 L1.85 601 L0.92 601 C0.54 601 0 601.53 0 601.92 L0 611.08 C0 611.46 0.54 612 0.92
								 612 L13.14 612 C13.53 612 14.07 611.46 14.07 611.08 L14.07 601.92 C14.07 601.53 13.53 601 13.14
								 601 ZM7.74 606.4 L7.74 610.2 L6.38 610.2 L6.38 606.4 C5.84 606.16 5.45 605.62 5.45 604.99 C5.45
								 604.11 6.18 603.38 7.06 603.38 C7.93 603.38 8.66 604.11 8.66 604.99 C8.62 605.57 8.27 606.11 7.74
								 606.4 ZM10.51 601 L3.55 601 L3.55 599.3 C3.55 597.01 4.77 595.45 6.81 595.45 L7.25 595.45 C9.35
								 595.45 10.51 597.01 10.51 599.3 L10.51 601 Z" class="st11"/>
				</g>
				<g id="shape97-160" transform="translate(2.09445,-0.35798)">
					<title>Sheet.97</title>
					<rect x="0" y="602.48" width="9.87812" height="9.52014" class="st12"/>
				</g>
			</g>
			<g id="shape98-162">
				<title>Sheet.98</title>
				<desc>NSG</desc>
				<rect x="0" y="600.393" width="19.7317" height="11.6069" class="st13"/>
				<text x="3.97" y="608" class="st14">NSG</text>			</g>
		</g>
		<g id="shape99-165" transform="translate(157.5,-486)">
			<title>Sheet.99</title>
			<rect x="0" y="553.68" width="92.25" height="58.3204" class="st21"/>
		</g>
		<g id="group100-167" transform="translate(165.73,-513)">
			<title>Virtual Machine symbol only</title>
			<g id="shape101-168">
				<title>Sheet.101</title>
				<path d="M18.36 593.97 L1.06 593.97 C0.47 593.97 0 594.5 0 595.08 L0 607.14 C-0 607.72 0.47 608.24 1.06 608.24 L6.98
							 608.24 C7.62 610.5 6.76 610.82 3.01 610.82 L3.01 612 L7.78 612 L11.27 612 L15.78 612 L15.78 610.82 C12.02
							 610.82 11.65 610.5 12.29 608.24 L18.36 608.24 C18.94 608.24 19.54 607.72 19.54 607.14 L19.54 595.08
							 C19.54 594.5 18.94 593.97 18.36 593.97 ZM18.04 595.47 L18.04 606.74 L1.5 606.74 L1.5 595.47 L18.08 595.44
							 L18.04 595.47 Z" class="st22"/>
			</g>
			<g id="group102-170" transform="translate(6.23799,-7.23344)">
				<title>Sheet.102</title>
				<g id="group103-171" transform="translate(0.309967,-3.97761)">
					<title>Sheet.103</title>
					<g id="shape104-172">
						<title>Sheet.104</title>
						<path d="M6.06 610.21 L3.03 608.46 L0 610.21 L0 610.25 L3.03 612 L6.06 610.25 L6.06 610.21 Z" class="st22"/>
					</g>
				</g>
				<g id="group105-174" transform="translate(3.65041,0)">
					<title>Sheet.105</title>
					<g id="shape106-175">
						<title>Sheet.106</title>
						<path d="M0 608.54 L0 612 L3.03 610.25 L3.03 606.79 L0 608.54 Z" class="st22"/>
					</g>
				</g>
				<g id="group107-177">
					<title>Sheet.107</title>
					<g id="shape108-178">
						<title>Sheet.108</title>
						<path d="M3.03 608.54 L0 606.79 L0 610.25 L3.03 612 L3.03 608.54 Z" class="st22"/>
					</g>
				</g>
			</g>
		</g>
		<g id="group118-180" transform="translate(165.73,-490.485)">
			<title>Virtual Machine symbol only.251</title>
			<g id="shape119-181">
				<title>Sheet.119</title>
				<path d="M18.36 593.97 L1.06 593.97 C0.47 593.97 0 594.5 0 595.08 L0 607.14 C-0 607.72 0.47 608.24 1.06 608.24 L6.98
							 608.24 C7.62 610.5 6.76 610.82 3.01 610.82 L3.01 612 L7.78 612 L11.27 612 L15.78 612 L15.78 610.82 C12.02
							 610.82 11.65 610.5 12.29 608.24 L18.36 608.24 C18.94 608.24 19.54 607.72 19.54 607.14 L19.54 595.08
							 C19.54 594.5 18.94 593.97 18.36 593.97 ZM18.04 595.47 L18.04 606.74 L1.5 606.74 L1.5 595.47 L18.08 595.44
							 L18.04 595.47 Z" class="st22"/>
			</g>
			<g id="group120-183" transform="translate(6.23799,-7.23344)">
				<title>Sheet.120</title>
				<g id="group121-184" transform="translate(0.309967,-3.97761)">
					<title>Sheet.121</title>
					<g id="shape122-185">
						<title>Sheet.122</title>
						<path d="M6.06 610.21 L3.03 608.46 L0 610.21 L0 610.25 L3.03 612 L6.06 610.25 L6.06 610.21 Z" class="st22"/>
					</g>
				</g>
				<g id="group123-187" transform="translate(3.65041,0)">
					<title>Sheet.123</title>
					<g id="shape124-188">
						<title>Sheet.124</title>
						<path d="M0 608.54 L0 612 L3.03 610.25 L3.03 606.79 L0 608.54 Z" class="st22"/>
					</g>
				</g>
				<g id="group125-190">
					<title>Sheet.125</title>
					<g id="shape126-191">
						<title>Sheet.126</title>
						<path d="M3.03 608.54 L0 606.79 L0 610.25 L3.03 612 L3.03 608.54 Z" class="st22"/>
					</g>
				</g>
			</g>
		</g>
		<g id="shape127-193" transform="translate(206.625,-495.927)">
			<title>Gateway.166</title>
			<path d="M13.87 584.25 C6.21 584.25 0 590.46 0 598.13 C0 605.79 6.21 612 13.87 612 C21.54 612 27.75 605.79 27.75 598.13
						 C27.75 590.46 21.54 584.25 13.87 584.25 ZM12.61 590.56 L12.61 586.14 L15.14 586.14 L15.14 590.56 L16.4 590.56
						 L13.87 595.65 L11.35 590.56 L12.61 590.56 ZM6.94 600.65 L1.84 598.13 L6.94 595.6 L6.94 596.86 L11.35 596.86
						 L11.35 599.39 L6.94 599.39 L6.94 600.65 ZM15.14 605.06 L15.14 609.48 L12.61 609.48 L12.61 605.06 L11.35
						 605.06 L13.87 599.97 L16.4 605.06 L15.14 605.06 ZM20.81 600.65 L20.81 599.39 L16.4 599.39 L16.4 596.86 L20.81
						 596.86 L20.81 595.6 L25.91 598.13 L20.81 600.65 Z" class="st22"/>
		</g>
		<g id="shape130-195" transform="translate(942.414,199.843) rotate(90)">
			<title>Sheet.130</title>
			<path d="M0 612 L18.55 612" class="st9"/>
		</g>
		<g id="shape131-198" transform="translate(337.863,-393.563) rotate(0.9)">
			<title>Sheet.131</title>
			<path d="M0 612 L3.71 612" class="st9"/>
		</g>
		<g id="group147-201" transform="translate(320.08,-410.49)">
			<title>Azure load balancer.344</title>
			<g id="group148-202" transform="translate(0.364216,-0.323748)">
				<title>Sheet.148</title>
				<g id="shape149-203">
					<title>Sheet.149</title>
					<path d="M19.75 600.51 L11.49 592.25 C11.13 591.89 10.68 591.68 10.16 591.68 C9.67 591.68 9.19 591.89 8.82 592.25
								 L0.57 600.51 C0.2 600.87 0 601.32 0 601.84 C0 602.33 0.2 602.81 0.57 603.18 L8.82 611.43 C9.19 611.8
								 9.63 612 10.16 612 C10.64 612 11.13 611.8 11.49 611.43 L19.75 603.18 C20.11 602.81 20.32 602.37
								 20.32 601.84 C20.27 601.32 20.07 600.83 19.75 600.51 ZM15.82 604.35 L15.82 602.49 L12.99 602.49
								 C12.71 603.46 11.94 604.23 10.97 604.51 L10.97 606.42 C11.37 606.7 11.98 607.35 11.98 608.03 C11.98
								 609.05 11.17 609.86 10.16 609.86 C9.15 609.86 8.34 609.05 8.34 608.03 C8.34 607.31 8.94 606.7 9.35
								 606.42 L9.35 604.55 C8.38 604.27 7.61 603.5 7.32 602.53 L4.49 602.53 L4.49 604.43 L1.82 601.76 L4.49
								 599.09 L4.49 600.95 L7.32 600.95 C7.61 599.98 8.38 599.21 9.35 598.93 L9.35 596.22 L7.49 596.22
								 L10.16 593.55 L12.83 596.22 L10.97 596.22 L10.97 598.93 C11.94 599.21 12.71 599.98 12.99 600.95
								 L15.82 600.95 L15.82 599.05 L18.49 601.72 L15.82 604.35 Z" class="st20"/>
				</g>
				<g id="shape150-205" transform="translate(8.01276,-8.17463)">
					<title>Sheet.150</title>
					<path d="M2.14 607.71 C0.97 607.71 0 608.68 0 609.86 C0 611.03 0.97 612 2.14 612 C3.32 612 4.29 611.03 4.29 609.86
								 C4.29 608.68 3.32 607.71 2.14 607.71 Z" class="st20"/>
				</g>
			</g>
		</g>
		<g id="group151-207" transform="translate(450.344,-410.391)">
			<title>Azure load balancer.352</title>
			<g id="group152-208" transform="translate(0.364216,-0.323748)">
				<title>Sheet.152</title>
				<g id="shape153-209">
					<title>Sheet.153</title>
					<path d="M19.75 600.51 L11.49 592.25 C11.13 591.89 10.68 591.68 10.16 591.68 C9.67 591.68 9.19 591.89 8.82 592.25
								 L0.57 600.51 C0.2 600.87 0 601.32 0 601.84 C0 602.33 0.2 602.81 0.57 603.18 L8.82 611.43 C9.19 611.8
								 9.63 612 10.16 612 C10.64 612 11.13 611.8 11.49 611.43 L19.75 603.18 C20.11 602.81 20.32 602.37
								 20.32 601.84 C20.27 601.32 20.07 600.83 19.75 600.51 ZM15.82 604.35 L15.82 602.49 L12.99 602.49
								 C12.71 603.46 11.94 604.23 10.97 604.51 L10.97 606.42 C11.37 606.7 11.98 607.35 11.98 608.03 C11.98
								 609.05 11.17 609.86 10.16 609.86 C9.15 609.86 8.34 609.05 8.34 608.03 C8.34 607.31 8.94 606.7 9.35
								 606.42 L9.35 604.55 C8.38 604.27 7.61 603.5 7.32 602.53 L4.49 602.53 L4.49 604.43 L1.82 601.76 L4.49
								 599.09 L4.49 600.95 L7.32 600.95 C7.61 599.98 8.38 599.21 9.35 598.93 L9.35 596.22 L7.49 596.22
								 L10.16 593.55 L12.83 596.22 L10.97 596.22 L10.97 598.93 C11.94 599.21 12.71 599.98 12.99 600.95
								 L15.82 600.95 L15.82 599.05 L18.49 601.72 L15.82 604.35 Z" class="st20"/>
				</g>
				<g id="shape154-211" transform="translate(8.01276,-8.17463)">
					<title>Sheet.154</title>
					<path d="M2.14 607.71 C0.97 607.71 0 608.68 0 609.86 C0 611.03 0.97 612 2.14 612 C3.32 612 4.29 611.03 4.29 609.86
								 C4.29 608.68 3.32 607.71 2.14 607.71 Z" class="st20"/>
				</g>
			</g>
		</g>
		<g id="shape155-213" transform="translate(258.179,-513.681)">
			<title>ExpressRoute</title>
			<path d="M22.48 606.29 C22.06 606.29 21.65 606.39 21.29 606.56 L15.25 600.52 C15.42 600.16 15.51 599.75 15.51 599.32
						 C15.51 597.76 14.24 596.49 12.68 596.49 C11.11 596.49 9.84 597.76 9.84 599.32 C9.84 599.75 9.94 600.16 10.11
						 600.52 L4.04 606.59 C3.67 606.42 3.27 606.32 2.84 606.32 C1.27 606.32 0 607.59 0 609.16 C-0 610.73 1.27
						 612 2.84 612 C4.06 612 5.1 611.23 5.5 610.15 L19.83 610.15 C20.24 611.21 21.27 611.97 22.48 611.97 C24.05
						 611.97 25.32 610.7 25.32 609.13 C25.32 607.57 24.05 606.29 22.48 606.29 ZM2.84 610.09 C2.32 610.09 1.91
						 609.68 1.91 609.16 C1.91 608.65 2.32 608.23 2.84 608.23 C3.35 608.23 3.77 608.65 3.77 609.16 C3.77 609.68
						 3.35 610.09 2.84 610.09 ZM12.68 598.4 C13.19 598.4 13.6 598.81 13.6 599.32 C13.6 599.84 13.19 600.25 12.68
						 600.25 C12.16 600.25 11.75 599.84 11.75 599.32 C11.75 598.81 12.16 598.4 12.68 598.4 ZM19.81 608.2 L5.5
						 608.2 C5.48 608.12 5.45 608.05 5.41 607.97 L11.49 601.9 C11.85 602.07 12.25 602.16 12.68 602.16 C13.1 602.16
						 13.5 602.07 13.87 601.9 L19.91 607.94 C19.87 608.02 19.84 608.11 19.81 608.2 ZM22.48 610.06 C21.97 610.06
						 21.55 609.65 21.55 609.13 C21.55 608.62 21.97 608.2 22.48 608.2 C23 608.2 23.41 608.62 23.41 609.13 C23.41
						 609.65 23 610.06 22.48 610.06 Z" class="st8"/>
		</g>
		<g id="shape158-215" transform="translate(316.726,-495.692)">
			<title>Gateway</title>
			<path d="M13.87 584.25 C6.21 584.25 0 590.46 0 598.13 C-0 605.79 6.21 612 13.87 612 C21.54 612 27.75 605.79 27.75 598.13
						 C27.75 590.46 21.54 584.25 13.87 584.25 ZM12.61 590.56 L12.61 586.14 L15.14 586.14 L15.14 590.56 L16.4 590.56
						 L13.87 595.65 L11.35 590.56 L12.61 590.56 ZM6.94 600.65 L1.84 598.13 L6.94 595.6 L6.94 596.86 L11.35 596.86
						 L11.35 599.39 L6.94 599.39 L6.94 600.65 ZM15.14 605.06 L15.14 609.48 L12.61 609.48 L12.61 605.06 L11.35
						 605.06 L13.87 599.97 L16.4 605.06 L15.14 605.06 ZM20.81 600.65 L20.81 599.39 L16.4 599.39 L16.4 596.86 L20.81
						 596.86 L20.81 595.6 L25.91 598.13 L20.81 600.65 Z" class="st22"/>
		</g>
		<g id="group159-217" transform="translate(477,-494.514)">
			<title>Sheet.159</title>
			<g id="shape160-218" transform="translate(0,-0.173634)">
				<title>Sheet.160</title>
				<path d="M0 612 L58.5 612 L58.5 574.96 L0 574.96 L0 612 Z" class="st6"/>
			</g>
			<g id="group162-220" transform="translate(32.2752,-12.0152)">
				<title>Virtual machine (opaque).857</title>
				<g id="shape163-221">
					<title>Sheet.163</title>
					<path d="M20.54 592.67 L0.95 592.67 C0.43 592.67 0 593.15 0 593.73 L0 610.93 C0 611.53 0.43 612 0.95 612 L20.54
								 612 C21.07 612 21.49 611.53 21.49 610.93 L21.49 593.73 C21.49 593.15 21.07 592.67 20.54 592.67 Z"
							class="st23"/>
				</g>
				<g id="group164-223">
					<title>Sheet.164</title>
					<g id="shape165-224" transform="translate(7.03553,-8.67988)">
						<title>Sheet.165</title>
						<path d="M0 612 L8.12 612 L8.12 605.88 L0 605.88 L0 612 ZM5.84 610.22 L4.32 611.21 L4.32 609.23 L5.84 608.24
									 L5.84 610.22 ZM4.18 606.97 L5.7 607.96 L4.19 608.95 L2.66 607.96 L4.18 606.97 ZM2.51 608.23
									 L4.04 609.22 L4.04 611.21 L2.51 610.21 L2.51 608.23 Z" class="st24"/>
					</g>
					<g id="shape166-226">
						<title>Sheet.166</title>
						<path d="M20.54 592.67 L0.95 592.67 C0.43 592.67 0 593.15 0 593.73 L0 610.93 C0 611.53 0.43 612 0.95 612
									 L20.54 612 C21.07 612 21.49 611.53 21.49 610.93 L21.49 593.73 C21.49 593.15 21.07 592.67 20.54
									 592.67 ZM10.67 608.67 L10.08 610.67 C10.07 610.69 10.06 610.71 10.06 610.72 C10.05 610.73 10.03
									 610.74 10.02 610.75 C10 610.75 9.97 610.76 9.94 610.76 C9.91 610.76 9.87 610.76 9.82 610.76
									 C9.77 610.76 9.74 610.76 9.71 610.76 C9.68 610.76 9.65 610.76 9.63 610.76 C9.61 610.75 9.6 610.75
									 9.58 610.74 C9.57 610.74 9.56 610.73 9.55 610.73 C9.54 610.72 9.54 610.71 9.53 610.7 C9.53 610.69
									 9.52 610.68 9.52 610.67 L8.92 608.67 C8.91 608.63 8.9 608.59 8.9 608.57 C8.9 608.54 8.9 608.53
									 8.91 608.51 C8.93 608.5 8.95 608.49 8.98 608.49 C9.01 608.49 9.05 608.49 9.11 608.49 C9.16 608.49
									 9.19 608.49 9.22 608.49 C9.25 608.49 9.27 608.5 9.28 608.5 C9.3 608.51 9.31 608.52 9.31 608.53
									 C9.32 608.54 9.32 608.55 9.33 608.57 L9.82 610.31 L9.82 610.31 L10.3 608.58 C10.3 608.56 10.31
									 608.54 10.31 608.53 C10.32 608.52 10.33 608.51 10.34 608.5 C10.36 608.5 10.38 608.49 10.41 608.49
									 C10.44 608.49 10.47 608.49 10.52 608.49 C10.57 608.49 10.61 608.49 10.63 608.49 C10.66 608.5
									 10.68 608.5 10.69 608.52 C10.7 608.53 10.7 608.55 10.7 608.57 C10.69 608.6 10.69 608.63 10.67
									 608.67 ZM13.29 610.69 C13.29 610.7 13.29 610.71 13.28 610.72 C13.27 610.73 13.26 610.74 13.25
									 610.74 C13.23 610.75 13.21 610.75 13.19 610.76 C13.16 610.76 13.13 610.76 13.1 610.76 C13.06
									 610.76 13.03 610.76 13 610.76 C12.98 610.75 12.96 610.75 12.94 610.74 C12.93 610.74 12.92 610.73
									 12.91 610.72 C12.91 610.71 12.9 610.7 12.9 610.69 L12.9 608.85 L12.9 608.85 L12.32 610.69 C12.32
									 610.7 12.31 610.71 12.3 610.72 C12.29 610.73 12.28 610.74 12.26 610.75 C12.25 610.75 12.22 610.76
									 12.2 610.76 C12.18 610.76 12.15 610.76 12.11 610.76 C12.08 610.76 12.05 610.76 12.02 610.76
									 C12 610.75 11.97 610.75 11.96 610.74 C11.94 610.74 11.93 610.73 11.92 610.72 C11.91 610.71 11.91
									 610.7 11.9 610.69 L11.34 608.85 L11.34 608.85 L11.34 610.69 C11.34 610.7 11.34 610.71 11.33
									 610.72 C11.33 610.73 11.31 610.74 11.3 610.74 C11.28 610.75 11.26 610.75 11.24 610.76 C11.21
									 610.76 11.18 610.76 11.15 610.76 C11.11 610.76 11.08 610.76 11.05 610.76 C11.03 610.75 11.01
									 610.75 10.99 610.74 C10.98 610.74 10.97 610.73 10.96 610.72 C10.96 610.71 10.95 610.7 10.95
									 610.69 L10.95 608.68 C10.95 608.62 10.97 608.58 10.99 608.54 C11.02 608.51 11.06 608.5 11.11
									 608.5 L11.37 608.5 C11.42 608.5 11.46 608.5 11.49 608.51 C11.53 608.52 11.56 608.53 11.58 608.55
									 C11.61 608.57 11.63 608.6 11.65 608.63 C11.66 608.67 11.68 608.71 11.69 608.76 L12.12 610.1
									 L12.13 610.1 L12.58 608.76 C12.59 608.71 12.61 608.67 12.62 608.64 C12.64 608.6 12.66 608.58
									 12.68 608.56 C12.7 608.53 12.72 608.52 12.75 608.51 C12.78 608.5 12.81 608.5 12.85 608.5 L13.13
									 608.5 C13.15 608.5 13.18 608.5 13.2 608.51 C13.22 608.52 13.24 608.53 13.25 608.55 C13.26 608.56
									 13.27 608.58 13.28 608.6 C13.28 608.63 13.29 608.65 13.29 608.68 L13.29 610.69 L13.29 610.69
									 ZM15.81 603.48 C15.81 603.81 15.58 604.06 15.3 604.06 L12.35 604.06 C12.06 605.36 12.2 605.52
									 14.19 605.52 L14.19 606.05 L11.87 606.05 L10.17 606.05 L8 606.05 L8 605.52 C9.79 605.52 10.08
									 605.36 9.8 604.06 L6.89 604.06 C6.6 604.06 6.37 603.81 6.37 603.48 L6.37 597.04 C6.37 596.72
									 6.6 596.45 6.89 596.45 L15.3 596.45 C15.58 596.45 15.81 596.72 15.81 597.04 L15.81 603.48 L15.81
									 603.48 Z" class="st24"/>
					</g>
				</g>
			</g>
			<g id="group167-228" transform="translate(5.7805,-12.0152)">
				<title>Virtual machine (opaque).919</title>
				<g id="shape168-229">
					<title>Sheet.168</title>
					<path d="M20.54 592.67 L0.95 592.67 C0.43 592.67 0 593.15 0 593.73 L0 610.93 C0 611.53 0.43 612 0.95 612 L20.54
								 612 C21.07 612 21.49 611.53 21.49 610.93 L21.49 593.73 C21.49 593.15 21.07 592.67 20.54 592.67 Z"
							class="st23"/>
				</g>
				<g id="group169-231">
					<title>Sheet.169</title>
					<g id="shape170-232" transform="translate(7.03553,-8.67988)">
						<title>Sheet.170</title>
						<path d="M0 612 L8.12 612 L8.12 605.88 L0 605.88 L0 612 ZM5.84 610.22 L4.32 611.21 L4.32 609.23 L5.84 608.24
									 L5.84 610.22 ZM4.18 606.97 L5.7 607.96 L4.19 608.95 L2.66 607.96 L4.18 606.97 ZM2.51 608.23
									 L4.04 609.22 L4.04 611.21 L2.51 610.21 L2.51 608.23 Z" class="st24"/>
					</g>
					<g id="shape171-234">
						<title>Sheet.171</title>
						<path d="M20.54 592.67 L0.95 592.67 C0.43 592.67 0 593.15 0 593.73 L0 610.93 C0 611.53 0.43 612 0.95 612
									 L20.54 612 C21.07 612 21.49 611.53 21.49 610.93 L21.49 593.73 C21.49 593.15 21.07 592.67 20.54
									 592.67 ZM10.67 608.67 L10.08 610.67 C10.07 610.69 10.06 610.71 10.06 610.72 C10.05 610.73 10.03
									 610.74 10.02 610.75 C10 610.75 9.97 610.76 9.94 610.76 C9.91 610.76 9.87 610.76 9.82 610.76
									 C9.77 610.76 9.74 610.76 9.71 610.76 C9.68 610.76 9.65 610.76 9.63 610.76 C9.61 610.75 9.6 610.75
									 9.58 610.74 C9.57 610.74 9.56 610.73 9.55 610.73 C9.54 610.72 9.54 610.71 9.53 610.7 C9.53 610.69
									 9.52 610.68 9.52 610.67 L8.92 608.67 C8.91 608.63 8.9 608.59 8.9 608.57 C8.9 608.54 8.9 608.53
									 8.91 608.51 C8.93 608.5 8.95 608.49 8.98 608.49 C9.01 608.49 9.05 608.49 9.11 608.49 C9.16 608.49
									 9.19 608.49 9.22 608.49 C9.25 608.49 9.27 608.5 9.28 608.5 C9.3 608.51 9.31 608.52 9.31 608.53
									 C9.32 608.54 9.32 608.55 9.33 608.57 L9.82 610.31 L9.82 610.31 L10.3 608.58 C10.3 608.56 10.31
									 608.54 10.31 608.53 C10.32 608.52 10.33 608.51 10.34 608.5 C10.36 608.5 10.38 608.49 10.41 608.49
									 C10.44 608.49 10.47 608.49 10.52 608.49 C10.57 608.49 10.61 608.49 10.63 608.49 C10.66 608.5
									 10.68 608.5 10.69 608.52 C10.7 608.53 10.7 608.55 10.7 608.57 C10.69 608.6 10.69 608.63 10.67
									 608.67 ZM13.29 610.69 C13.29 610.7 13.29 610.71 13.28 610.72 C13.27 610.73 13.26 610.74 13.25
									 610.74 C13.23 610.75 13.21 610.75 13.19 610.76 C13.16 610.76 13.13 610.76 13.1 610.76 C13.06
									 610.76 13.03 610.76 13 610.76 C12.98 610.75 12.96 610.75 12.94 610.74 C12.93 610.74 12.92 610.73
									 12.91 610.72 C12.91 610.71 12.9 610.7 12.9 610.69 L12.9 608.85 L12.9 608.85 L12.32 610.69 C12.32
									 610.7 12.31 610.71 12.3 610.72 C12.29 610.73 12.28 610.74 12.26 610.75 C12.25 610.75 12.22 610.76
									 12.2 610.76 C12.18 610.76 12.15 610.76 12.11 610.76 C12.08 610.76 12.05 610.76 12.02 610.76
									 C12 610.75 11.97 610.75 11.96 610.74 C11.94 610.74 11.93 610.73 11.92 610.72 C11.91 610.71 11.91
									 610.7 11.9 610.69 L11.34 608.85 L11.34 608.85 L11.34 610.69 C11.34 610.7 11.34 610.71 11.33
									 610.72 C11.33 610.73 11.31 610.74 11.3 610.74 C11.28 610.75 11.26 610.75 11.24 610.76 C11.21
									 610.76 11.18 610.76 11.15 610.76 C11.11 610.76 11.08 610.76 11.05 610.76 C11.03 610.75 11.01
									 610.75 10.99 610.74 C10.98 610.74 10.97 610.73 10.96 610.72 C10.96 610.71 10.95 610.7 10.95
									 610.69 L10.95 608.68 C10.95 608.62 10.97 608.58 10.99 608.54 C11.02 608.51 11.06 608.5 11.11
									 608.5 L11.37 608.5 C11.42 608.5 11.46 608.5 11.49 608.51 C11.53 608.52 11.56 608.53 11.58 608.55
									 C11.61 608.57 11.63 608.6 11.65 608.63 C11.66 608.67 11.68 608.71 11.69 608.76 L12.12 610.1
									 L12.13 610.1 L12.58 608.76 C12.59 608.71 12.61 608.67 12.62 608.64 C12.64 608.6 12.66 608.58
									 12.68 608.56 C12.7 608.53 12.72 608.52 12.75 608.51 C12.78 608.5 12.81 608.5 12.85 608.5 L13.13
									 608.5 C13.15 608.5 13.18 608.5 13.2 608.51 C13.22 608.52 13.24 608.53 13.25 608.55 C13.26 608.56
									 13.27 608.58 13.28 608.6 C13.28 608.63 13.29 608.65 13.29 608.68 L13.29 610.69 L13.29 610.69
									 ZM15.81 603.48 C15.81 603.81 15.58 604.06 15.3 604.06 L12.35 604.06 C12.06 605.36 12.2 605.52
									 14.19 605.52 L14.19 606.05 L11.87 606.05 L10.17 606.05 L8 606.05 L8 605.52 C9.79 605.52 10.08
									 605.36 9.8 604.06 L6.89 604.06 C6.6 604.06 6.37 603.81 6.37 603.48 L6.37 597.04 C6.37 596.72
									 6.6 596.45 6.89 596.45 L15.3 596.45 C15.58 596.45 15.81 596.72 15.81 597.04 L15.81 603.48 L15.81
									 603.48 Z" class="st24"/>
					</g>
				</g>
			</g>
		</g>
		<g id="group172-236" transform="translate(594,-479.25)">
			<title>Sheet.172</title>
			<g id="shape173-237">
				<title>Sheet.173</title>
				<rect x="0" y="598.5" width="18" height="13.5" class="st2"/>
			</g>
			<g id="group174-239" transform="translate(0.337483,-2.05688)">
				<title>Virtual Network</title>
				<g id="shape175-240" transform="translate(12.0617,0)">
					<title>Sheet.175</title>
					<path d="M5.26 607.31 L4.21 606.25 L0.57 602.61 L0 603.23 L4.08 607.31 L0 611.39 L0.57 612 L4.21 608.36 L5.26
								 607.31 Z" class="st3"/>
				</g>
				<g id="shape176-242">
					<title>Sheet.176</title>
					<path d="M0 607.31 L1.05 606.25 L4.69 602.61 L5.26 603.23 L1.18 607.31 L5.26 611.39 L4.69 612 L1.05 608.36 L0
								 607.31 Z" class="st3"/>
				</g>
				<g id="shape177-244" transform="translate(4.4738,-3.64044)">
					<title>Sheet.177</title>
					<path d="M2.11 610.95 C2.11 611.52 1.62 612 1.05 612 C0.44 612 0 611.52 0 610.95 C0 610.38 0.48 609.89 1.05 609.89
								 C1.62 609.89 2.11 610.33 2.11 610.95 Z" class="st3"/>
				</g>
				<g id="shape178-246" transform="translate(7.63177,-3.64044)">
					<title>Sheet.178</title>
					<ellipse cx="1.05266" cy="610.947" rx="1.05266" ry="1.05266" class="st3"/>
				</g>
				<g id="shape179-248" transform="translate(10.7897,-3.64044)">
					<title>Sheet.179</title>
					<ellipse cx="1.05266" cy="610.947" rx="1.05266" ry="1.05266" class="st3"/>
				</g>
			</g>
		</g>
		<g id="shape180-250" transform="translate(-155.089,159.781) rotate(-90)">
			<title>Sheet.180</title>
			<path d="M8.52 612 L8.88 612 L23.88 612" class="st25"/>
		</g>
		<g id="shape182-259" transform="translate(236.45,-509.8) rotate(0.164715)">
			<title>Sheet.182</title>
			<path d="M0 612 L81.72 612" class="st27"/>
		</g>
		<g id="group184-262" transform="translate(395.251,-499.98)">
			<title>Virtual machine (opaque).919</title>
			<g id="shape185-263">
				<title>Sheet.185</title>
				<path d="M20.54 592.67 L0.95 592.67 C0.43 592.67 0 593.15 0 593.73 L0 610.93 C0 611.53 0.43 612 0.95 612 L20.54 612
							 C21.07 612 21.49 611.53 21.49 610.93 L21.49 593.73 C21.49 593.15 21.07 592.67 20.54 592.67 Z"
						class="st23"/>
			</g>
			<g id="group186-265">
				<title>Sheet.186</title>
				<g id="shape187-266" transform="translate(7.03553,-8.67988)">
					<title>Sheet.187</title>
					<path d="M0 612 L8.12 612 L8.12 605.88 L0 605.88 L0 612 ZM5.84 610.22 L4.32 611.21 L4.32 609.23 L5.84 608.24
								 L5.84 610.22 ZM4.18 606.97 L5.7 607.96 L4.19 608.95 L2.66 607.96 L4.18 606.97 ZM2.51 608.23 L4.04
								 609.22 L4.04 611.21 L2.51 610.21 L2.51 608.23 Z" class="st24"/>
				</g>
				<g id="shape188-268">
					<title>Sheet.188</title>
					<path d="M20.54 592.67 L0.95 592.67 C0.43 592.67 0 593.15 0 593.73 L0 610.93 C0 611.53 0.43 612 0.95 612 L20.54
								 612 C21.07 612 21.49 611.53 21.49 610.93 L21.49 593.73 C21.49 593.15 21.07 592.67 20.54 592.67 ZM10.67
								 608.67 L10.08 610.67 C10.07 610.69 10.06 610.71 10.06 610.72 C10.05 610.73 10.03 610.74 10.02 610.75
								 C10 610.75 9.97 610.76 9.94 610.76 C9.91 610.76 9.87 610.76 9.82 610.76 C9.77 610.76 9.74 610.76
								 9.71 610.76 C9.68 610.76 9.65 610.76 9.63 610.76 C9.61 610.75 9.6 610.75 9.58 610.74 C9.57 610.74
								 9.56 610.73 9.55 610.73 C9.54 610.72 9.54 610.71 9.53 610.7 C9.53 610.69 9.52 610.68 9.52 610.67
								 L8.92 608.67 C8.91 608.63 8.9 608.59 8.9 608.57 C8.9 608.54 8.9 608.53 8.91 608.51 C8.93 608.5 8.95
								 608.49 8.98 608.49 C9.01 608.49 9.05 608.49 9.11 608.49 C9.16 608.49 9.19 608.49 9.22 608.49 C9.25
								 608.49 9.27 608.5 9.28 608.5 C9.3 608.51 9.31 608.52 9.31 608.53 C9.32 608.54 9.32 608.55 9.33 608.57
								 L9.82 610.31 L9.82 610.31 L10.3 608.58 C10.3 608.56 10.31 608.54 10.31 608.53 C10.32 608.52 10.33
								 608.51 10.34 608.5 C10.36 608.5 10.38 608.49 10.41 608.49 C10.44 608.49 10.47 608.49 10.52 608.49
								 C10.57 608.49 10.61 608.49 10.63 608.49 C10.66 608.5 10.68 608.5 10.69 608.52 C10.7 608.53 10.7
								 608.55 10.7 608.57 C10.69 608.6 10.69 608.63 10.67 608.67 ZM13.29 610.69 C13.29 610.7 13.29 610.71
								 13.28 610.72 C13.27 610.73 13.26 610.74 13.25 610.74 C13.23 610.75 13.21 610.75 13.19 610.76 C13.16
								 610.76 13.13 610.76 13.1 610.76 C13.06 610.76 13.03 610.76 13 610.76 C12.98 610.75 12.96 610.75
								 12.94 610.74 C12.93 610.74 12.92 610.73 12.91 610.72 C12.91 610.71 12.9 610.7 12.9 610.69 L12.9
								 608.85 L12.9 608.85 L12.32 610.69 C12.32 610.7 12.31 610.71 12.3 610.72 C12.29 610.73 12.28 610.74
								 12.26 610.75 C12.25 610.75 12.22 610.76 12.2 610.76 C12.18 610.76 12.15 610.76 12.11 610.76 C12.08
								 610.76 12.05 610.76 12.02 610.76 C12 610.75 11.97 610.75 11.96 610.74 C11.94 610.74 11.93 610.73
								 11.92 610.72 C11.91 610.71 11.91 610.7 11.9 610.69 L11.34 608.85 L11.34 608.85 L11.34 610.69 C11.34
								 610.7 11.34 610.71 11.33 610.72 C11.33 610.73 11.31 610.74 11.3 610.74 C11.28 610.75 11.26 610.75
								 11.24 610.76 C11.21 610.76 11.18 610.76 11.15 610.76 C11.11 610.76 11.08 610.76 11.05 610.76 C11.03
								 610.75 11.01 610.75 10.99 610.74 C10.98 610.74 10.97 610.73 10.96 610.72 C10.96 610.71 10.95 610.7
								 10.95 610.69 L10.95 608.68 C10.95 608.62 10.97 608.58 10.99 608.54 C11.02 608.51 11.06 608.5 11.11
								 608.5 L11.37 608.5 C11.42 608.5 11.46 608.5 11.49 608.51 C11.53 608.52 11.56 608.53 11.58 608.55
								 C11.61 608.57 11.63 608.6 11.65 608.63 C11.66 608.67 11.68 608.71 11.69 608.76 L12.12 610.1 L12.13
								 610.1 L12.58 608.76 C12.59 608.71 12.61 608.67 12.62 608.64 C12.64 608.6 12.66 608.58 12.68 608.56
								 C12.7 608.53 12.72 608.52 12.75 608.51 C12.78 608.5 12.81 608.5 12.85 608.5 L13.13 608.5 C13.15
								 608.5 13.18 608.5 13.2 608.51 C13.22 608.52 13.24 608.53 13.25 608.55 C13.26 608.56 13.27 608.58
								 13.28 608.6 C13.28 608.63 13.29 608.65 13.29 608.68 L13.29 610.69 L13.29 610.69 ZM15.81 603.48 C15.81
								 603.81 15.58 604.06 15.3 604.06 L12.35 604.06 C12.06 605.36 12.2 605.52 14.19 605.52 L14.19 606.05
								 L11.87 606.05 L10.17 606.05 L8 606.05 L8 605.52 C9.79 605.52 10.08 605.36 9.8 604.06 L6.89 604.06
								 C6.6 604.06 6.37 603.81 6.37 603.48 L6.37 597.04 C6.37 596.72 6.6 596.45 6.89 596.45 L15.3 596.45
								 C15.58 596.45 15.81 596.72 15.81 597.04 L15.81 603.48 L15.81 603.48 Z" class="st24"/>
				</g>
			</g>
		</g>
		<g id="group189-270" transform="translate(490.5,-415.857)">
			<title>Sheet.189</title>
			<g id="group190-271" transform="translate(2.83233,-0.642911)">
				<title>Sheet.190</title>
				<g id="shape191-272">
					<title>Lock, protected.1135</title>
					<path d="M13.14 601 L12.22 601 L12.22 599.3 C12.22 595.69 9.93 593.84 7.25 593.84 L6.81 593.84 C4.09 593.84 1.85
								 595.65 1.85 599.3 L1.85 601 L0.92 601 C0.54 601 0 601.53 0 601.92 L0 611.08 C0 611.46 0.54 612 0.92
								 612 L13.14 612 C13.53 612 14.07 611.46 14.07 611.08 L14.07 601.92 C14.07 601.53 13.53 601 13.14
								 601 ZM7.74 606.4 L7.74 610.2 L6.38 610.2 L6.38 606.4 C5.84 606.16 5.45 605.62 5.45 604.99 C5.45
								 604.11 6.18 603.38 7.06 603.38 C7.93 603.38 8.66 604.11 8.66 604.99 C8.62 605.57 8.27 606.11 7.74
								 606.4 ZM10.51 601 L3.55 601 L3.55 599.3 C3.55 597.01 4.77 595.45 6.81 595.45 L7.25 595.45 C9.35
								 595.45 10.51 597.01 10.51 599.3 L10.51 601 Z" class="st11"/>
				</g>
				<g id="shape192-274" transform="translate(2.09445,-0.35798)">
					<title>Sheet.192</title>
					<rect x="0" y="602.48" width="9.87812" height="9.52014" class="st12"/>
				</g>
			</g>
			<g id="shape193-276">
				<title>Sheet.193</title>
				<desc>NSG</desc>
				<rect x="0" y="600.393" width="19.7317" height="11.6069" class="st13"/>
				<text x="3.97" y="608" class="st14">NSG</text>			</g>
		</g>
		<g id="group194-279" transform="translate(587.543,-415.857)">
			<title>Sheet.194</title>
			<g id="group195-280" transform="translate(2.83233,-0.642911)">
				<title>Sheet.195</title>
				<g id="shape196-281">
					<title>Lock, protected.1135</title>
					<path d="M13.14 601 L12.22 601 L12.22 599.3 C12.22 595.69 9.93 593.84 7.25 593.84 L6.81 593.84 C4.09 593.84 1.85
								 595.65 1.85 599.3 L1.85 601 L0.92 601 C0.54 601 0 601.53 0 601.92 L0 611.08 C0 611.46 0.54 612 0.92
								 612 L13.14 612 C13.53 612 14.07 611.46 14.07 611.08 L14.07 601.92 C14.07 601.53 13.53 601 13.14
								 601 ZM7.74 606.4 L7.74 610.2 L6.38 610.2 L6.38 606.4 C5.84 606.16 5.45 605.62 5.45 604.99 C5.45
								 604.11 6.18 603.38 7.06 603.38 C7.93 603.38 8.66 604.11 8.66 604.99 C8.62 605.57 8.27 606.11 7.74
								 606.4 ZM10.51 601 L3.55 601 L3.55 599.3 C3.55 597.01 4.77 595.45 6.81 595.45 L7.25 595.45 C9.35
								 595.45 10.51 597.01 10.51 599.3 L10.51 601 Z" class="st11"/>
				</g>
				<g id="shape197-283" transform="translate(2.09445,-0.35798)">
					<title>Sheet.197</title>
					<rect x="0" y="602.48" width="9.87812" height="9.52014" class="st12"/>
				</g>
			</g>
			<g id="shape198-285">
				<title>Sheet.198</title>
				<desc>NSG</desc>
				<rect x="0" y="600.393" width="19.7317" height="11.6069" class="st13"/>
				<text x="3.97" y="608" class="st14">NSG</text>			</g>
		</g>
	</g>
</svg>
